<svg xmlns="http://www.w3.org/2000/svg" width="20" height="20" viewBox="0 0 20 20">
    <defs>
        <style>
            .cls-1{fill:#beb6ce}
        </style>
    </defs>
    <g id="_002-ticket" transform="translate(0 -.001)">
        <g id="Group_1326" transform="translate(6.864 6.966)">
            <g id="Group_1325">
                <path id="Path_28708" d="M181.682 178.478a.586.586 0 0 0-.829 0l-.485.485-.015-.007a1.758 1.758 0 0 0-1.986 2.837.586.586 0 0 1-.635.958.8.8 0 0 1-.425-.793.586.586 0 0 0-.586-.577h-.009a.586.586 0 0 0-.577.6 2.3 2.3 0 0 0 .229.992l-.483.483a.586.586 0 0 0 .829.829l.485-.485a1.758 1.758 0 0 0 2-2.83.586.586 0 0 1 .662-.946.9.9 0 0 1 .391.968.586.586 0 1 0 1.168.1 2.438 2.438 0 0 0-.216-1.3l.481-.481a.586.586 0 0 0 .001-.833z" class="cls-1" transform="translate(-175.709 -178.306)"/>
            </g>
        </g>
        <g id="Group_1328" transform="translate(0 .001)">
            <g id="Group_1327">
                <path id="Path_28709" d="M18.247 10.871l1.239-1.239a1.76 1.76 0 0 0 0-2.486L17 4.659a.586.586 0 0 0-.829 0 .586.586 0 0 1-.829-.829.586.586 0 0 0 0-.829L12.855.515a1.76 1.76 0 0 0-2.486 0L.514 10.37a1.76 1.76 0 0 0 0 2.486l.829.829L3 15.343a.586.586 0 0 0 .829 0 .586.586 0 0 1 .829.829.586.586 0 0 0 0 .829l1.657 1.657.829.829a1.76 1.76 0 0 0 2.486 0l.083-.083 9.194-4.6a1.757 1.757 0 0 0 .457-2.816zM8.8 18.658a.587.587 0 0 1-.829 0l-.414-.414L8.8 17a.586.586 0 0 0-.829-.829L6.73 17.415l-.9-.9a1.76 1.76 0 0 0-2.345-2.345l-.9-.9 1.243-1.243A.586.586 0 1 0 3 11.2l-1.243 1.242-.414-.414a.587.587 0 0 1 0-.829L11.2 1.344a.587.587 0 0 1 .829 0l.414.414L11.2 3a.586.586 0 0 0 .829.829l1.241-1.242.9.9a1.76 1.76 0 0 0 2.346 2.346l.9.9-1.245 1.241A.586.586 0 0 0 17 8.8l1.243-1.24.414.414a.587.587 0 0 1 0 .829zm9.582-4.9l-6.049 3.025 5.085-5.083 1.119 1.119a.586.586 0 0 1-.152.939z" class="cls-1" transform="translate(0 -.001)"/>
            </g>
        </g>
        <g id="Group_1330" transform="translate(12.692 9.452)">
            <g id="Group_1329">
                <path id="Path_28710" d="M327.566 242.129a.586.586 0 0 0-.829 0l-1.658 1.658a.586.586 0 0 0 .829.829l1.658-1.658a.586.586 0 0 0 0-.829z" class="cls-1" transform="translate(-324.908 -241.958)"/>
            </g>
        </g>
        <g id="Group_1332" transform="translate(9.377 12.767)">
            <g id="Group_1331">
                <path id="Path_28711" d="M242.7 327a.586.586 0 0 0-.829 0l-1.658 1.658a.586.586 0 0 0 .829.829l1.658-1.658a.586.586 0 0 0 0-.829z" class="cls-1" transform="translate(-240.038 -326.828)"/>
            </g>
        </g>
        <g id="Group_1334" transform="translate(7.719 4.479)">
            <g id="Group_1333">
                <path id="Path_28712" d="M200.261 114.825a.586.586 0 0 0-.829 0l-1.658 1.658a.586.586 0 0 0 .829.829l1.658-1.658a.586.586 0 0 0 0-.829z" class="cls-1" transform="translate(-197.603 -114.654)"/>
            </g>
        </g>
        <g id="Group_1336" transform="translate(4.404 7.795)">
            <g id="Group_1335">
                <path id="Path_28713" d="M115.391 199.7a.586.586 0 0 0-.829 0l-1.658 1.658a.586.586 0 1 0 .829.829l1.658-1.658a.586.586 0 0 0 0-.829z" class="cls-1" transform="translate(-112.733 -199.524)"/>
            </g>
        </g>
    </g>
</svg>
