<svg xmlns="http://www.w3.org/2000/svg" width="16" height="16" viewBox="0 0 16 16">
    <defs>
        <style>
            .cls-2{fill:#beb6ce}
        </style>
    </defs>
    <g id="ico_recount" opacity="0.596">
        <g id="Group_1215">
            <g id="Group_1214">
                <path id="Path_28466" d="M414.125 376.85a.625.625 0 0 1 .875.128c.113.152.235.3.36.444a.625.625 0 1 1-.937.828c-.149-.169-.293-.346-.427-.526a.625.625 0 0 1 .129-.874z" class="cls-2" transform="translate(-412.451 -364.954)"/>
                <path id="Path_28467" d="M463.008 286.439a.625.625 0 0 1 .744.478c.04.186.089.371.145.553a.625.625 0 1 1-1.194.369c-.066-.215-.124-.436-.172-.656a.625.625 0 0 1 .477-.744z" class="cls-2" transform="translate(-462.378 -277.474)"/>
                <path id="Path_28468" d="M334.955 442.273c.166.093.338.179.511.257a.625.625 0 1 1-.514 1.139c-.205-.093-.409-.2-.606-.305a.625.625 0 1 1 .609-1.091z" class="cls-2" transform="translate(-330.272 -428.375)"/>
                <path id="Path_28469" d="M158.054 76.625v4.741l2.292 2.292a.625.625 0 0 1-.884.884l-2.475-2.475a.625.625 0 0 1-.183-.442v-5a.625.625 0 0 1 1.25 0z" class="cls-2" transform="translate(-149.429 -73.625)"/>
                <path id="Path_28470" d="M.625 1.344a.625.625 0 0 1 .625.625V3.7A8 8 0 1 1 8 16h-.031c-.225 0-.453-.009-.676-.028a.625.625 0 1 1 .1-1.246c.189.016.381.024.572.024H8A6.75 6.75 0 1 0 2.189 4.563h1.719a.625.625 0 0 1 0 1.25H2A1.988 1.988 0 0 1 .96 5.52a.624.624 0 0 1-.06-.036A2 2 0 0 1 0 3.813V1.969a.625.625 0 0 1 .625-.625z" class="cls-2"/>
            </g>
        </g>
    </g>
</svg>
