<svg xmlns="http://www.w3.org/2000/svg" width="18" height="16" viewBox="0 0 18 16">
    <defs>
        <style>
            .cls-1{fill:#beb6ce}
        </style>
    </defs>
    <g id="_001-repeat" transform="translate(0 -21.322)">
        <g id="Group_1206" transform="translate(0 21.322)">
            <g id="Group_1205">
                <path id="Path_28452" d="M155.876 23.5h-4.07l.94-.94a.727.727 0 1 0-1.029-1.029l-2.182 2.182c-.017.017-.033.035-.048.053l-.019.026-.023.031-.019.032-.017.029-.016.033-.015.032-.012.032c-.004.01-.009.023-.012.035l-.008.033-.009.036c-.003.012 0 .026-.006.038s0 .021 0 .032v.174c0 .011 0 .026.006.038s.006.024.009.036l.008.033.012.035c.004.012.007.022.012.032l.015.032.016.033.017.029.019.032.023.031.019.026c.015.019.031.036.048.053l2.182 2.182a.727.727 0 0 0 1.029-1.029l-.94-.94h4.062a4.36 4.36 0 0 1 4.364 4.364 3.946 3.946 0 0 1-1.163 2.8.727.727 0 0 0 1.029 1.028 5.4 5.4 0 0 0 1.589-3.825 5.814 5.814 0 0 0-5.811-5.819z" class="cls-1" transform="translate(-143.686 -21.322)"/>
                <path id="Path_28453" d="M12.218 147.1l.023-.031.019-.032.017-.029.016-.033.015-.031c.005-.01.008-.022.012-.033s.009-.023.012-.035l.008-.033.009-.036c.003-.012 0-.026.006-.039s0-.021 0-.032a.732.732 0 0 0 0-.144v-.032c0-.011 0-.026-.006-.039s-.006-.024-.009-.036l-.008-.033-.012-.035-.012-.033-.015-.031-.016-.033-.017-.029-.019-.032-.023-.031-.019-.026c-.015-.018-.031-.036-.047-.052l-2.182-2.182A.727.727 0 0 0 8.94 145l.94.94H5.818a4.36 4.36 0 0 1-4.364-4.364 3.946 3.946 0 0 1 1.163-2.8.727.727 0 0 0-1.029-1.028A5.4 5.4 0 0 0 0 141.578a5.814 5.814 0 0 0 5.81 5.822h4.07l-.94.94a.727.727 0 0 0 1.029 1.029l2.182-2.182c.017-.017.033-.034.048-.053z" class="cls-1" transform="translate(0 -133.578)"/>
            </g>
        </g>
    </g>
</svg>
