<svg xmlns="http://www.w3.org/2000/svg" width="16" height="20" viewBox="0 0 16 20">
    <defs>
        <style>
            .cls-1{fill:#ff4715}
        </style>
    </defs>
    <g id="_001-padlock" transform="translate(-42.667)">
        <g id="Group_1168" transform="translate(42.667)">
            <g id="Group_1167">
                <path id="Path_28364" d="M56.267 6.667v-.834a5.6 5.6 0 1 0-11.2 0v.833a2.455 2.455 0 0 0-2.4 2.5V17.5a2.455 2.455 0 0 0 2.4 2.5h11.2a2.455 2.455 0 0 0 2.4-2.5V9.167a2.455 2.455 0 0 0-2.4-2.5zm-9.6-.833a4 4 0 1 1 8 0v.833h-8zm10.4 11.666a.818.818 0 0 1-.8.833h-11.2a.818.818 0 0 1-.8-.833V9.167a.818.818 0 0 1 .8-.833h11.2a.818.818 0 0 1 .8.833z" class="cls-1" transform="translate(-42.667)"/>
            </g>
        </g>
        <g id="Group_1170" transform="translate(48.267 9.583)">
            <g id="Group_1169">
                <path id="Path_28365" d="M194.4 245.333a2.455 2.455 0 0 0-2.4 2.5 2.492 2.492 0 0 0 1.6 2.347v1.4a.8.8 0 1 0 1.6 0v-1.4a2.492 2.492 0 0 0 1.6-2.347 2.455 2.455 0 0 0-2.4-2.5zm0 3.333a.834.834 0 1 1 .8-.833.818.818 0 0 1-.8.833z" class="cls-1" transform="translate(-192 -245.333)"/>
            </g>
        </g>
    </g>
</svg>
