<svg xmlns="http://www.w3.org/2000/svg" id="_001-fullscreen" width="24" height="24" viewBox="0 0 24 24">
    <defs>
        <style>
            .cls-1{fill:#fff}
        </style>
    </defs>
    <g id="Group_1293">
        <g id="Group_1292">
            <path id="Path_28680" d="M23.143 0H.857A.857.857 0 0 0 0 .857v22.286A.857.857 0 0 0 .857 24h22.286a.857.857 0 0 0 .857-.857V.857A.857.857 0 0 0 23.143 0zm-.857 22.286H1.714V1.714h20.572z" class="cls-1"/>
        </g>
    </g>
    <g id="Group_1295" transform="translate(12.857 3.429)">
        <g id="Group_1294">
            <path id="Path_28681" d="M262.86 68.267h-3.429a.857.857 0 1 0 0 1.714h1.359l-4.537 4.537a.857.857 0 1 0 1.212 1.212L262 71.193v1.359a.857.857 0 1 0 1.714 0v-3.428a.857.857 0 0 0-.854-.857z" class="cls-1" transform="translate(-256.003 -68.267)"/>
        </g>
    </g>
    <g id="Group_1297" transform="translate(12.868 12.868)">
        <g id="Group_1296">
            <path id="Path_28682" d="M263.056 258.771a.857.857 0 0 0-.857.857v1.359l-4.537-4.537a.857.857 0 0 0-1.212 1.212l4.537 4.537h-1.359a.857.857 0 0 0 0 1.714h3.429a.857.857 0 0 0 .857-.857v-3.429a.857.857 0 0 0-.858-.856z" class="cls-1" transform="translate(-256.21 -256.21)"/>
        </g>
    </g>
    <g id="Group_1299" transform="translate(3.429 12.868)">
        <g id="Group_1298">
            <path id="Path_28683" d="M75.708 256.451a.857.857 0 0 0-1.191 0l-4.537 4.537v-1.359a.857.857 0 0 0-1.714 0v3.429a.86.86 0 0 0 .857.857h3.429a.857.857 0 1 0 0-1.714h-1.36l4.537-4.537a.857.857 0 0 0-.021-1.213z" class="cls-1" transform="translate(-68.266 -256.21)"/>
        </g>
    </g>
    <g id="Group_1301" transform="translate(3.429 3.429)">
        <g id="Group_1300">
            <path id="Path_28684" d="M75.729 74.517l-4.537-4.537h1.359a.857.857 0 1 0 0-1.714h-3.428a.857.857 0 0 0-.857.857v3.429a.857.857 0 1 0 1.714 0v-1.36l4.537 4.537a.857.857 0 0 0 1.212-1.212z" class="cls-1" transform="translate(-68.266 -68.266)"/>
        </g>
    </g>
</svg>
