<svg xmlns="http://www.w3.org/2000/svg" width="28" height="28" viewBox="0 0 28 28">
    <defs>
        <style>
            .cls-3{fill:#efb789}.cls-5{fill:#85e5f8}
        </style>
    </defs>
    <g id="XMLID_1490_" transform="translate(-.01)">
        <path id="XMLID_3666_" fill="#8aa8bd" d="M138.918 13.394h-2.926v-.531A2.862 2.862 0 0 1 138.854 10h6.6v2.08a1.314 1.314 0 0 1-1.314 1.314h-5.222z" transform="translate(-128.545 -9.454)"/>
        <path id="XMLID_3665_" fill="#fff" d="M135.992 72.042h8.75v2.432h-8.75z" transform="translate(-128.545 -68.102)"/>
        <path id="XMLID_3664_" d="M144.742 116.508v2.873a4.375 4.375 0 0 1-8.75 0v-2.873z" class="cls-3" transform="translate(-128.545 -110.136)"/>
        <path id="XMLID_3663_" d="M11.056 257.57a4.891 4.891 0 0 1-.195-4.366 4.5 4.5 0 0 1 3.647-7.131h3.419a1.508 1.508 0 0 0 1.508-1.508v-1.135h3.679v1.136a1.508 1.508 0 0 0 1.508 1.508h3.419a4.5 4.5 0 0 1 3.647 7.131 4.891 4.891 0 0 1-.195 4.366z" class="cls-3" transform="translate(-9.453 -230.117)"/>
        <path id="XMLID_3662_" fill="#80b6ff" d="M98.483 303.272v-4.654a7.69 7.69 0 0 0 .738-3.288v-2.906l2.188-.648v1.949a3.5 3.5 0 0 0 7 0v-1.949l2.188.648v2.906a7.691 7.691 0 0 0 .738 3.288v4.654z" transform="translate(-93.088 -275.82)"/>
        <g id="XMLID_1848_" transform="translate(14.215 21.766)">
            <path id="XMLID_3654_" d="M428.258 402.375v-3.062a1.313 1.313 0 0 0-1.313-1.313H425.3a1.312 1.312 0 0 0-1.313 1.313v3.063a1.312 1.312 0 0 0 1.313 1.312h1.641a1.313 1.313 0 0 0 1.317-1.313z" class="cls-5" transform="translate(-415.01 -398)"/>
            <path id="XMLID_2259_" fill="#e2e9ee" d="M0 0h2.516v4.74H0z" transform="rotate(90 3.698 5.284)"/>
            <path id="XMLID_2258_" d="M263.992 402.375v-3.062a1.312 1.312 0 0 0-1.313-1.313h-1.617a1.313 1.313 0 0 0-1.313 1.313v3.063a1.313 1.313 0 0 0 1.313 1.312h1.617a1.312 1.312 0 0 0 1.313-1.313z" class="cls-5" transform="translate(-259.749 -398)"/>
        </g>
        <g id="XMLID_330_" transform="translate(.01)">
            <path id="XMLID_375_" d="M26.15 21.219h-1.64a1.848 1.848 0 0 0-.985.283 5.05 5.05 0 0 0-4.937-6.092h-3.419a.962.962 0 0 1-.961-.961v-.9a4.925 4.925 0 0 0 2.536-4.3V4.087a1.858 1.858 0 0 0 .711-1.461V.547A.547.547 0 0 0 16.908 0h-6.6A3.413 3.413 0 0 0 6.9 3.409v5.835a4.925 4.925 0 0 0 2.536 4.3v.9a.962.962 0 0 1-.961.961h-3.42a5.045 5.045 0 0 0-4.264 7.746 5.439 5.439 0 0 0 .335 4.569.547.547 0 0 0 .955-.533 4.344 4.344 0 0 1-.173-3.877.547.547 0 0 0-.056-.543 3.951 3.951 0 0 1 3.2-6.263h.531v3.006a7.189 7.189 0 0 1-.683 3.054.547.547 0 0 0-.053.234v4.654a.547.547 0 0 0 1.094 0v-4.534a8.293 8.293 0 0 0 .738-3.408V16.5h1.095v1.4a4.047 4.047 0 0 0 8.095 0v-1.4h1.094v3.01a8.223 8.223 0 0 0 .179 1.709h-1.615a1.861 1.861 0 0 0-1.859 1.859v3.062A1.861 1.861 0 0 0 15.527 28h1.617a1.862 1.862 0 0 0 1.839-1.586H21.9a4.311 4.311 0 0 1-.336.773.547.547 0 1 0 .955.533 5.413 5.413 0 0 0 .338-.73A1.861 1.861 0 0 0 24.51 28h1.64a1.861 1.861 0 0 0 1.859-1.859v-3.063a1.861 1.861 0 0 0-1.859-1.859zM10.309 1.094h6.052v1.532a.768.768 0 0 1-.767.767h-1.311a.547.547 0 1 0 0 1.094h1.367v1.338H7.994V4.487h1.367a.547.547 0 1 0 0-1.094H7.994a2.318 2.318 0 0 1 2.315-2.3zm-2.315 8.15V6.918h7.656v2.326a3.828 3.828 0 0 1-7.656 0zm3.828 11.615a2.957 2.957 0 0 1-2.954-2.954v-1.44a2.058 2.058 0 0 0 1.661-2.016v-.455a4.927 4.927 0 0 0 2.585 0v.455a2.058 2.058 0 0 0 1.661 2.016v1.44a2.957 2.957 0 0 1-2.953 2.954zm6.766-4.359a3.951 3.951 0 0 1 3.2 6.263c-.009.012-.016.025-.024.038h-2.78a1.857 1.857 0 0 0-.579-1.092 7.119 7.119 0 0 1-.348-2.2V16.5h.531zm-.678 9.637a.766.766 0 0 1-.766.766h-1.616a.766.766 0 0 1-.766-.766v-3.059a.766.766 0 0 1 .766-.766h1.617a.766.766 0 0 1 .766.766v3.062zM19 23.9h3.65v1.42H19zm7.912 2.242a.766.766 0 0 1-.766.766H24.51a.766.766 0 0 1-.766-.766v-3.064a.766.766 0 0 1 .766-.766h1.64a.766.766 0 0 1 .766.766z" transform="translate(-.01)"/>
            <path id="XMLID_382_" d="M206.538 63.134a.547.547 0 1 0-.387-.16.551.551 0 0 0 .387.16z" transform="translate(-194.726 -58.647)"/>
        </g>
    </g>
</svg>
