<svg xmlns="http://www.w3.org/2000/svg" id="Group_1291" width="240" height="260" viewBox="0 0 240 260">
    <defs>
        <clipPath id="clip-path">
            <path id="Rectangle_126" d="M0 0H240V260H0z" class="cls-1"/>
        </clipPath>
        <clipPath id="clip-path-3">
            <path id="Rectangle_101" d="M0 0H11.234V25.303H0z" class="cls-1"/>
        </clipPath>
        <clipPath id="clip-path-4">
            <path id="Rectangle_102" d="M0 0H22.003V73.269H0z" class="cls-1"/>
        </clipPath>
        <clipPath id="clip-path-5">
            <path id="Rectangle_103" d="M0 0H78.737V68.018H0z" class="cls-1"/>
        </clipPath>
        <clipPath id="clip-path-6">
            <path id="Rectangle_104" d="M0 0H38.161V25.609H0z" class="cls-1"/>
        </clipPath>
        <clipPath id="clip-path-7">
            <path id="Rectangle_105" d="M0 0H11.592V8.213H0z" class="cls-1"/>
        </clipPath>
        <clipPath id="clip-path-8">
            <path id="Rectangle_106" d="M0 0H15.676V61.271H0z" class="cls-1"/>
        </clipPath>
        <clipPath id="clip-path-9">
            <path id="Rectangle_107" d="M0 0H6.373V18.168H0z" class="cls-1"/>
        </clipPath>
        <clipPath id="clip-path-10">
            <path id="Rectangle_108" d="M0 0H7.51V19.868H0z" class="cls-1"/>
        </clipPath>
        <clipPath id="clip-path-11">
            <path id="Rectangle_109" d="M0 0H9.098V18.273H0z" class="cls-1"/>
        </clipPath>
        <clipPath id="clip-path-12">
            <path id="Rectangle_110" d="M0 0H9.371V17.417H0z" class="cls-1"/>
        </clipPath>
        <clipPath id="clip-path-13">
            <path id="Rectangle_111" d="M0 0H9.69V11.038H0z" class="cls-1"/>
        </clipPath>
        <clipPath id="clip-path-14">
            <path id="Rectangle_112" d="M0 0H4.468V10.305H0z" class="cls-1"/>
        </clipPath>
        <clipPath id="clip-path-15">
            <path id="Rectangle_113" d="M0 0H23.255V4.808H0z" class="cls-1"/>
        </clipPath>
        <clipPath id="clip-path-16">
            <path id="Rectangle_114" d="M0 0H24.518V4.881H0z" class="cls-1"/>
        </clipPath>
        <clipPath id="clip-path-17">
            <path id="Rectangle_115" d="M0 0H24.865V5.034H0z" class="cls-1"/>
        </clipPath>
        <clipPath id="clip-path-18">
            <path id="Rectangle_116" d="M0 0H23.526V4.036H0z" class="cls-1"/>
        </clipPath>
        <clipPath id="clip-path-19">
            <path id="Rectangle_117" d="M0 0H17.589V47.66H0z" class="cls-1"/>
        </clipPath>
        <clipPath id="clip-path-20">
            <path id="Rectangle_118" d="M0 0H22.1V31.899H0z" class="cls-1"/>
        </clipPath>
        <clipPath id="clip-path-21">
            <path id="Rectangle_119" d="M0 0H53.763V21.6H0z" class="cls-1"/>
        </clipPath>
        <clipPath id="clip-path-22">
            <path id="Rectangle_120" d="M0 0H38.34V28.327H0z" class="cls-1"/>
        </clipPath>
        <clipPath id="clip-path-23">
            <path id="Rectangle_121" d="M0 0H17.822V26.07H0z" class="cls-1"/>
        </clipPath>
        <clipPath id="clip-path-24">
            <path id="Rectangle_122" d="M0 0H12.067V29.92H0z" class="cls-1"/>
        </clipPath>
        <clipPath id="clip-path-25">
            <path id="Rectangle_124" d="M0 0H240V259.999H0z" class="cls-1"/>
        </clipPath>
        <clipPath id="clip-path-26">
            <path id="Path_28679" d="M237.022 139.644a6.461 6.461 0 0 0-.4-1.223 9.332 9.332 0 0 0-1.16-1.894 23.9 23.9 0 0 0-3.216-3.259c-1.187-1.029-2.357-1.967-3.476-2.871l-3.226-2.6c-2.063-1.648-3.909-3.187-5.487-4.695-.123-.117-.241-.233-.36-.349.09-3.714 9.223-15.137 10.831-22.6 1.716-7.961-3-23.453-10.293-32.491s-19.084-10.113-29.591-14.847-13.08-16.783-13.08-16.783a38.38 38.38 0 0 0 .835 10.155c-1.749-.871-3.624-1.725-5.609-2.555a1.89 1.89 0 0 0-.4-.439 4.247 4.247 0 0 0-.454-.322 12.236 12.236 0 0 0-1.808-.871c-.6-.24-1.185-.45-1.766-.641-.292-.1-.573-.187-.873-.271-.076-.021-.151-.038-.228-.059a3.959 3.959 0 0 0-1.121-2.518c-1.189-.862-3.086-1.181-5.955-2.206a85.2 85.2 0 0 0-3.534-10.058c-.718-1.643-1.612-3.5-2.609-5.437l4.666-2.923-.128-4.873-7.4 2.467c-.932-1.67-1.89-3.328-2.828-4.9v-.007q-.324-.544-.645-1.074l-.026-.043-.286-.471-.079-.129-.234-.382-.088-.143-.22-.357-.1-.159-.206-.33-.1-.165-.2-.324-.1-.153-.2-.315-.1-.163-.187-.293-.107-.168-.18-.279-.108-.167-.177-.271-.1-.16-.174-.265-.1-.153-.175-.261-.094-.14-.173-.257-.091-.134-.177-.259-.078-.114-.207-.3-.041-.059c-.082-.117-.161-.23-.241-.341l-.063-.088-.167-.233-.092-.127-.131-.179-.1-.13-.117-.157-.1-.127-.109-.143-.093-.118-.1-.131-.088-.11-.1-.12-.084-.1-.091-.107-.08-.093-.086-.1-.077-.076-.08-.086-.068-.071-.074-.074-.063-.061-.069-.062-.058-.052-.068-.047-.05-.037c-.021-.015-.04-.026-.06-.038l-.041-.025a.569.569 0 0 0-.059-.026c-.009 0-.02-.009-.029-.012a.246.246 0 0 0-.069-.015.261.261 0 0 0-.071.012l-.028.011a.6.6 0 0 0-.059.025l-.04.021-.064.036-.048.031-.072.049-.015.01-4.909 2.413-14.196 17.885-.119.056.032.054-.085.107.114-.058 5.891 10.117-2.38 2.387a132.717 132.717 0 0 0-29.825 1.686l1.948-3.157-10.38-4.114-2.956 2.315 7.951 5.614a103.242 103.242 0 0 0-15.017 4.3q-6.048 2.254-11.839 4.929l.046-.3c-1.184.691-2.307 1.317-3.386 1.9-.278.137-.555.277-.831.416q-1.174.546-2.3 1.117l-2.286-.656-2 2.98c-5.146 2.973-8.705 5.667-8.925 5.751l.01.014a100.485 100.485 0 0 0-19.13 17.3c-6.54 2.161-14.609 4.87-14.545 5.062.091.274-2.906 3.724-3.815 4.762-.047.034-.087.066-.121.1l-.028.027a.608.608 0 0 0-.064.07l-.018.025a.156.156 0 0 0-.029.076.52.52 0 0 0 .022.125v.015c.014.05.036.11.062.177l.013.032c.028.068.062.145.1.229l.02.043c.041.087.088.181.14.283l.023.045c.056.108.116.222.184.346l.012.021q.107.2.232.415v.007c.082.144.171.3.266.457l.027.046c.092.156.19.319.293.488l.036.058q.156.257.327.532l.036.058q.177.284.369.587l.016.025c.408.642.866 1.345 1.369 2.1l.012.017q.249.373.513.761l.014.021c.544.8 1.132 1.65 1.758 2.535a103.914 103.914 0 0 0-5.5 13.623c-.223-.537-.437-.983-.614-1.341-.448-.88-.7-1.263-.7-1.265s.069.152.2.463c-.309-.573-.526-.893-.526-.893 1.93 9.79-6.381 21.2-6 27.542.429 7.208 4.825 11.834 6.219 17 1.9 7.028.215 12.265-.965 17S.441 178.913 2.8 184.83s11.9 12.264 13.723 15.277.214 13.233 1.93 17.967c1.673 4.616 6.754 9.252 15.01 11.619a77.645 77.645 0 0 0 17.175 2.351c1.425 5.379 2.555 7.4 2.66 7.332-.027.01-.079-.1-.157-.355.9 1.177 5.549 7.325 21.278 6.273 12.38-.828 19.323-3.344 21.865-4.46-.261.539-.493 1.047-.687 1.524a7.905 7.905 0 0 0-.7 2.834 3.3 3.3 0 0 0 .371 1.61 2.973 2.973 0 0 0 .271.429s-.055-.153-.133-.481a3.868 3.868 0 0 1-.1-.759c.005.019.009.038.015.056.486 1.538 7.184 12.91 9.435 13.663 2.021.676 16.2 1.543 29.344-14.684l2.436 1.464 3.673 2.176 1.367-.585 1.173-.513 2.414-1.077c4.819-2.178 8.99-4.186 12.591-5.979 15.294 1.193 32.779-6.974 48.532-17.274 15.323-10.019 25.946-23.023 28.091-27.326.571-1.147.671-3.148.509-5.469.016.13.024.2.026.2a30.643 30.643 0 0 0-.11-4.093c-.113-1.424-.318-3.248-.692-5.5-.32-1.906-.749-4.125-1.388-6.657 1.629-2.054 5.616-7.367 6.8-11.612 1.35-4.837-.421-17.5-2.507-23.132m-219.5-56.3l.3-.141.09-.042.368-.169.018-.008.416-.187.058-.026.086-.038q-.608.935-1.2 1.893-.326-.525-.651-1.031l.446-.215.082-.039m117.91-70.325l.02-.023q.218-.245.436-.486l.034-.038q.209-.23.417-.455l.054-.059.392-.421.071-.075q.185-.2.369-.388l.085-.088q.173-.18.343-.353l.1-.1.316-.316.11-.109c.1-.1.192-.188.287-.279l.12-.116.258-.243.012-.011a79.293 79.293 0 0 1 5.84 8.184l-1.242.414 2.989 7.513 1.9-1.188c.961 1.955 1.969 4.19 2.976 6.76-1.725-1.225-3.149-2.138-3.834-1.909-.461.154-.983 3.746 1.17 7.043-4.484-.946-9.164-1.724-13.976-2.289a14.555 14.555 0 0 0 1.28-2.36c.107-.861-5.468-10.221-5.36-11.942.052-.829 2.118-3.554 4.389-6.157.149-.171.3-.341.449-.51" class="cls-1"/>
        </clipPath>
        <radialGradient id="radial-gradient" cx=".547" cy=".331" r=".88" gradientTransform="matrix(1.079 0 0 -1 0 1.99)" gradientUnits="objectBoundingBox">
            <stop offset="0" stop-color="#ffbc8c"/>
            <stop offset=".184" stop-color="#d59377"/>
            <stop offset=".563" stop-color="#854550"/>
            <stop offset=".833" stop-color="#531437"/>
            <stop offset=".965" stop-color="#40022e"/>
            <stop offset="1" stop-color="#40022e"/>
        </radialGradient>
        <style>
            .cls-1{fill:none}.cls-2{clip-path:url(#clip-path)}.cls-4{fill:#ccf6ff}.cls-6{fill:#2d73cc}.cls-7{fill:#c44550}.cls-8{fill:#ffbe3b}.cls-12{fill:#f39d69}.cls-13{fill:#e38a54}.cls-14{fill:#d64c39}.cls-15{opacity:.62}.cls-15,.cls-18,.cls-26{mix-blend-mode:overlay;isolation:isolate}.cls-17{fill:#ffb8e3}.cls-18{opacity:.43}.cls-20{fill:#ffb3b3}.cls-21{fill:#d08425}.cls-22{fill:#e99934}.cls-23{fill:#f5ab4f}.cls-24{fill:#fff}.cls-25{fill:#fca440}.cls-26{opacity:.64}.cls-28{fill:#ffc6c2}.cls-31{fill:#7d3b25}.cls-32{fill:#944e37}.cls-38{fill:#592a1a}.cls-40{fill:#985e17}.cls-41{fill:#91540b}.cls-42{fill:#a36519}.cls-43{fill:#ffba4d}.cls-44{fill:#ffc973}.cls-45{fill:#ffd694}.cls-50{fill:#935d1a}.cls-51{fill:#ac6d1f}.cls-55{fill:#c27520}.cls-56{fill:#784509}.cls-57{fill:#f7a237}.cls-58{fill:#ffeec9}.cls-59{fill:#a6630f}.cls-64{fill:#e0844c}.cls-66{fill:#bd6129}
        </style>
    </defs>
    <g id="Group_1290" class="cls-2">
        <g id="Group_1289">
            <g id="Group_1288" class="cls-2">
                <path id="Path_28473" fill="#aee8f5" d="M13.66 185.776c9.649-42.281 37.954-64.228 71.726-76.815 38.521-14.357 85.235-3.55 106.142 8.714s36.024 16.783 39.884 24.852-8.684 38.73-4.825 48.413 19.3 30.662 13.831 39.053-2.895 42.926-28.626 54.545-87.165 27.757-88.773 32.6-9.971-10.974-14.8-10.651-40.845-.487-44.061-7.263-22.837-8.553-29.269-12.1-6.111-17.751-7.076-21.624-12.545-13.237-13.513-20.014 5.79-20.979 3.216-29.37-5.953-21.166-3.86-30.339" transform="translate(-8.823 -69.155)"/>
                <path id="Path_28474" d="M116.493 153.373s-4.9 152.572-4.5 151.371c.222-.667.938 2.647 3.18 1.593l25.553-168.671c-9.221 5.379-14.8 6.886-24.231 15.707" class="cls-4" transform="translate(-75.954 -93.234)"/>
                <path id="Path_28475" d="M14.349 346.333c-.643 2.8-3.645 17-3.645 17-.322-.968 100.46 65.3 100.46 65.3 2.005.135 5.468 0 5.468 0z" class="cls-4" transform="translate(-7.26 -234.553)"/>
                <path id="Path_28476" d="M140.039 149.629l99.417 138.618c1.158-.421.292-2.094.292-2.094l-79.124-147.82c-10.722 3.873-20.221 11.158-20.585 11.3" class="cls-4" transform="translate(-94.997 -93.686)"/>
                <path id="Path_28477" d="M369.132 109.333l-33.621 166.534c1.778-1.285.227.385 3.386-.639l48.447-162.119a98.025 98.025 0 0 0-18.213-3.776" class="cls-4" transform="translate(-227.597 -74.045)"/>
                <path id="Path_28478" d="M537.228 176.014L500.179 349.75c2.578-.839.6-.109 3.171-.96l46.638-165.25c-4.443-3.171-9.328-5.487-12.76-7.526" class="cls-4" transform="translate(-339.301 -119.205)"/>
                <path id="Path_28479" fill="#79c4d4" d="M49.9 461.986c.965 3.873.643 18.074 7.076 21.624s25.249 5 28.465 11.78 40.848 5.648 45.673 5.325 16.725 16.945 18.334 12.1 58.7-20.172 84.431-31.791 23.158-46.154 28.626-54.545c3.491-5.359-1.542-15.85-6.642-25.256a331.763 331.763 0 0 1-39.454 26.69l.491-23.5 10.458-1.8-.292-10.379-22.758 2.371.078 10.364 11.2-.228-1.863 24.691c-29.165 16.341-64.344 29.687-103.665 32.192a217.821 217.821 0 0 1-30.008-.121l-2.813-18.683 11.186-.608-.69-10.341-22.87-.667.478 10.373L75.9 442.6l1.785 18.728a193.756 193.756 0 0 1-32.117-5.453c2.177 2.514 3.976 4.688 4.332 6.116" transform="translate(-30.914 -265.645)"/>
                <path id="Path_28480" d="M320.245 460.536l15.937-.2-1.353 4.682-14.011 3.582z" class="cls-6" transform="translate(-217.241 -311.765)"/>
                <path id="Path_28481" d="M446.013 45.376l15.125-5.043.128 4.873L449 52.889z" class="cls-7" transform="translate(-302.557 -27.315)"/>
                <path id="Path_28482" d="M270.068 94.847l-10.06-7.107 2.956-2.315 10.38 4.114z" class="cls-6" transform="translate(-176.379 -57.854)"/>
                <path id="Path_28483" d="M248.736 459.848l-10.06-7.107 2.956-2.315 10.38 4.114z" class="cls-8" transform="translate(-161.908 -305.05)"/>
                <path id="Path_28484" d="M163.413 300.527l13.9 1.442 6.4 3.988-14.519-1.288z" class="cls-7" transform="translate(-110.853 -203.531)"/>
                <path id="Path_28485" fill="#22589c" d="M602.413 357.527l13.9 1.442 6.4 3.988-14.519-1.288z" transform="translate(-408.652 -242.134)"/>
                <path id="Path_28486" d="M579.843 421.944l13.864-3.613 7.382 2.53-14.043 3.071z" class="cls-7" transform="translate(-393.341 -283.314)"/>
                <path id="Path_28487" d="M52.777 475.347l11.26-7.153 6 5.008-11.407 6.08z" class="cls-7" transform="translate(-35.802 -317.083)"/>
                <path id="Path_28488" fill="#922630" d="M286.8 603.114l6.121-13.65 7.983-2.379-6.826 13.181z" transform="translate(-194.552 -397.602)"/>
                <path id="Path_28489" d="M144.389 160.481l9.525-14.2 7.167 2.059-10.109 12.084z" class="cls-8" transform="translate(-97.947 -99.068)"/>
                <path id="Path_28490" fill="#eb9e25" d="M104.061 570.874l9.673 10.973-2.629 6.412-8.519-11.271z" transform="translate(-69.59 -386.623)"/>
                <path id="Path_28491" d="M564.349 248.721l12.122 7.847-.794 6.805-11.1-8.44z" class="cls-8" transform="translate(-382.831 -168.446)"/>
                <path id="Path_28492" d="M200.605 504.2c-.7-10.059-8.524-37.816-9.167-40.721s-2.412-11.619-1.983-13.394l-17.959-2.5s7.719 12.587 8.523 16.46a89.911 89.911 0 0 1 .643 18.962c-.643 6.939-5.146 29.855-7.559 38.085a97.711 97.711 0 0 1-3.525 9.563c8.181 5.922 19.733 5.713 29.8 4.728 1.311-12.571 1.608-25.594 1.22-31.181" class="cls-12" transform="translate(-115.036 -303.124)"/>
                <path id="Path_28493" d="M175.421 646.291c-.847 3.8-1.659 7.132-2.316 9.373a97.718 97.718 0 0 1-3.525 9.563c8.181 5.922 19.732 5.713 29.8 4.728l.115-1.13c-11.759-2.94-21.193-10.256-24.078-22.534" class="cls-13" transform="translate(-115.036 -437.699)"/>
                <path id="Path_28494" d="M189.539 471.333s4.543 7.262 14.393 3.147c0 0 3.5 12.3 6.031 24.045 0 0-7.317 4.438-15.519-2.824a65.356 65.356 0 0 0-.563-11.861 41.546 41.546 0 0 0-4.342-12.507" class="cls-14" transform="translate(-128.575 -319.209)"/>
                <g id="Group_1219" class="cls-15" transform="translate(70.154 155.271)">
                    <g id="Group_1218">
                        <g id="Group_1217" clip-path="url(#clip-path-3)">
                            <path id="Path_28495" d="M223.315 481.083a15.287 15.287 0 0 1-5.2 1.245c2.763 7.989 6.1 15.808 7.112 24.058a11.083 11.083 0 0 0 4.122-1.258c-2.533-11.74-6.031-24.045-6.031-24.045" class="cls-17" transform="translate(-218.111 -481.083)"/>
                        </g>
                    </g>
                </g>
                <g id="Group_1222" class="cls-18" transform="translate(61.764 147.386)">
                    <g id="Group_1221">
                        <g id="Group_1220" clip-path="url(#clip-path-4)">
                            <path id="Path_28496" d="M192.032 456.7c.161-.408 10.132 1.859 10.668 2.358s2.519 7.438 2.841 8.662 4.8 21.8 5.79 26.7 2.919 13.159 2.68 19.015c-.322 7.891-1.608 16.487-1.608 16.487-.965-.216-10.668-7.009-12.222-11.227s-1.565-14.408-.643-22.675c1.072-9.615-.1-23.275-1.072-26.484-1.18-3.9-6.594-12.426-6.433-12.835" class="cls-20" transform="translate(-192.028 -456.653)"/>
                        </g>
                    </g>
                </g>
                <path id="Path_28497" d="M40.783 255.833c6.192 9.683 16.967 25.336 30.315 32.759s26.375 15.492 47.281 10.005l5.629 2.421s-17.047 9.037-45.03-2.259-42.939-40.828-42.939-40.828z" class="cls-21" transform="translate(-24.447 -173.262)"/>
                <path id="Path_28498" d="M69.881 235.356c-1.608.538-11.07 3.765-12.249 3.335s-9.407-9.252-10.266-9.36-24.659 8.176-24.659 9.36 9.863 16.353 19.834 26.466 26.8 21.3 40.313 23.669 32.486-1.937 41.278-4.411l-6-3.981S105.155 285.6 91 284.952s-28.624-9.252-37.951-16.891-23.909-25.928-23.48-27.326 15.546-7.316 17.047-6.778 9.113 9.79 10.507 10.113 16.511-2.582 16.511-2.582z" class="cls-22" transform="translate(-15.403 -155.313)"/>
                <path id="Path_28499" d="M85.179 233.957c1.5.538 9.113 9.79 10.507 10.113s16.511-2.582 16.511-2.582l-3.753-6.132c-1.608.538-11.07 3.766-12.249 3.335s-9.407-9.252-10.266-9.36a58.043 58.043 0 0 0-6.374 1.979q.2 1.975.329 3.959c2.616-.909 4.774-1.5 5.295-1.312" class="cls-22" transform="translate(-53.967 -155.313)"/>
                <path id="Path_28500" d="M29.569 244.889c.28-.914 6.827-3.755 11.752-5.466q-.128-1.984-.329-3.959c-7.313 2.5-18.285 6.577-18.285 7.381 0 1.078 8.192 13.772 17.191 23.668q.542-3.3.91-6.612c-6.251-7.121-11.5-14.165-11.239-15.013" class="cls-23" transform="translate(-15.403 -159.467)"/>
                <path id="Path_28501" d="M154.384 335.866s-12.972 5.164-27.125 4.519-28.626-9.252-37.954-16.891a115.671 115.671 0 0 1-12.24-12.314q-.368 3.313-.91 6.612c.876.963 1.759 1.9 2.643 2.8 9.971 10.113 26.8 21.3 40.313 23.668s32.486-1.937 41.278-4.411z" class="cls-22" transform="translate(-51.66 -210.746)"/>
                <path id="Path_28502" d="M242.538 511.833s.46 2.683 1.788 8.807l2.619 11.872c.531 2.445 1.111 5.132 1.664 8.084.274 1.476.542 3.018.757 4.629.106.8.2 1.627.256 2.463s.1 1.708.125 2.589c.112 3.528.057 6.795-.04 9.8s-.258 5.746-.434 8.24c-.355 4.987-.784 8.979-1.159 12.085s-.7 5.328-.915 6.775l-.319 2.119s.161-.661.464-2.093.743-3.637 1.238-6.736 1.041-7.088 1.486-12.088c.221-2.5.415-5.251.543-8.269s.194-6.3.081-9.863c-.03-.891-.071-1.764-.13-2.622s-.159-1.706-.27-2.524c-.225-1.637-.506-3.19-.8-4.673-.582-2.966-1.2-5.652-1.774-8.091-1.16-4.878-2.163-8.769-2.937-11.8z" class="cls-24" transform="translate(-164.528 -346.637)"/>
                <path id="Path_28503" d="M177.1 507.833c-.006 0 .1.581.212 1.836a50.426 50.426 0 0 1 .158 5.883c-.065 2.694-.318 6.146-.857 10.424s-1.363 9.382-2.481 15.394c-.561 3-1.09 5.784-1.594 8.324s-1.074 4.838-1.625 6.921c-1.107 4.164-2.187 7.454-3.078 10s-1.607 4.347-2.08 5.516-.715 1.7-.715 1.7.292-.51.85-1.644 1.378-2.894 2.388-5.409a103.66 103.66 0 0 0 3.4-9.954c.6-2.085 1.193-4.395 1.742-6.948.534-2.556 1.075-5.323 1.637-8.338 1.121-6.026 1.894-11.162 2.345-15.476a85.8 85.8 0 0 0 .538-10.514 41.508 41.508 0 0 0-.483-5.9c-.2-1.25-.364-1.816-.358-1.817" class="cls-24" transform="translate(-111.954 -343.928)"/>
                <path id="Path_28504" d="M488.726 111.666s2.573 12.049 13.08 16.783 22.3 5.81 29.591 14.847 12.008 24.529 10.293 32.491-12.008 20.441-10.721 23.238 14.152 10.328 16.51 14.631 4.721 19.365 3.221 24.744-7.5 12.48-7.5 12.48 4.5 16.353 2.358 20.656-12.768 17.307-28.09 27.326c-16.618 10.866-35.165 19.365-51.033 17s-2.358-21.732-2.358-21.732l61.326-54.222s15.01-11.189 15.01-12.695-13.294-9.467-16.94-17.213-2.359-18.289-.643-26.681 11.579-18.72 10.722-25.6-.858-13.986-15.225-15.707-19.721-3.542-23.372-8.176c-7.291-9.252-6.219-22.163-6.219-22.163" class="cls-25" transform="translate(-311.166 -75.625)"/>
                <g id="Group_1225" class="cls-26" transform="translate(155.044 171.328)">
                    <g id="Group_1224">
                        <g id="Group_1223" clip-path="url(#clip-path-5)">
                            <path id="Path_28505" d="M556.338 530.833a102.959 102.959 0 0 1 3.377 11.78c1.126 5.487 1.287 11.135.8 12.265-1.608 3.766-12.866 15.008-26.911 25.713-14.414 10.986-40.956 20.333-51.57 17.859 0 0 57.252-52.286 63.524-56.8a53.588 53.588 0 0 0 10.775-10.812" class="cls-28" transform="translate(-482.039 -530.833)"/>
                        </g>
                    </g>
                </g>
                <path id="Path_28506" d="M142.393 448.789c-14.688 29.8-35.172 28.688-37.632 27.865-2.251-.753-8.949-12.125-9.435-13.663-.7-2.205 2.09-5.756 2.09-5.756s-6.915 3.927-23 5-20.585-5.379-21.335-6.348S51.368 449 51.368 449s-9.977-.094-17.9-2.367c-8.256-2.367-13.338-7-15.01-11.619-1.716-4.734-.107-14.954-1.93-17.967S5.159 407.692 2.8 401.775s1.287-15.17 2.466-19.9 2.862-9.971.965-17c-1.394-5.164-5.79-9.79-6.219-17-.377-6.337 7.934-17.752 6-27.542 0 0 3.645 5.379 2.466 11.727s-2.895 6.993-.322 13.771c1.8 4.742 8.041 17.859 3.645 26.681s-6.326 14.094-2.573 18.935 12.008 8.607 13.08 14.416.176 13.075 2.359 16.46c2.358 3.658 8.577 9.683 19.191 10.221s14.474-.645 14.474-.645-1.554 6.294-2.841 10.274c0 0 3.377 2.851 12.49 2.743s36.667-8.392 38.061-6.347a121.891 121.891 0 0 1 7.827 16.675 30.722 30.722 0 0 0 7.076-10.005z" class="cls-25" transform="translate(0 -216.945)"/>
                <g id="Group_1228" class="cls-26" transform="translate(96.298 233.7)">
                    <g id="Group_1227">
                        <g id="Group_1226" clip-path="url(#clip-path-6)">
                            <path id="Path_28507" d="M323 724.083s-2.251 4.518-8.684 8.472-14.152 4.2-14.876 3.712 7.317 12.829 8.765 13.233 8.2.565 15.841-3.712 13.509-12.265 13.509-12.265z" class="cls-28" transform="translate(-299.396 -724.083)"/>
                        </g>
                    </g>
                </g>
                <path id="Path_28508" fill="#612e1c" d="M469.7 564s6.728 1.856 6.568 1.748c0 0 .938 4.223.616 4.976s-11.579 15.223-35.81 30.608-53.655 28.333-54.625 28.294c-1.34-.054-20.585-12.1-21.657-13.717s-2.037-4.411-1.715-4.949 7.022-4.25 7.022-4.25z" transform="translate(-246.252 -381.967)"/>
                <path id="Path_28509" d="M510.161 565l-86.736 59.494-4.717-.161s4.289 2.367 5.36 2.313S451 614.677 474.7 600.045s39.107-33.109 39.321-33.539-3.86-1.506-3.86-1.506" class="cls-31" transform="translate(-284.033 -382.645)"/>
                <path id="Path_28510" d="M703.5 565.122c.115 1.752.208 3.518.392 5.287 2.111-2.29 3.263-3.7 3.321-3.82.19-.382-2.99-1.271-3.713-1.467" class="cls-32" transform="translate(-477.223 -382.727)"/>
                <path id="Path_28511" fill="#e0905a" d="M477.61 104.952s.161-4.115-1.287-5.164-3.94-1.291-7.961-2.985-9.174-6.8-10.695-6.294c-.724.242-1.608 8.956 7.961 11.7z" transform="translate(-310.183 -61.273)"/>
                <g id="Group_1231" class="cls-18" transform="translate(147.804 30.227)">
                    <g id="Group_1230">
                        <g id="Group_1229" clip-path="url(#clip-path-7)">
                            <path id="Path_28512" d="M459.694 93.657c-.61.136.536 5.863 2.627 6.885s8.416 1.668 8.791 1.13-10.453-8.23-11.418-8.015" class="cls-20" transform="translate(-459.531 -93.653)"/>
                        </g>
                    </g>
                </g>
                <path id="Path_28513" d="M479.872 256.786a40.539 40.539 0 0 0 .214 11.3c.965 6.885 5.039 20.441 7.612 29.909s5.36 25.283 4.825 31.307c0 0-13.83 10.758-29.484-2.044 0 0 4.26-19.6 4.825-27.112.857-11.4 1.287-18.72.643-27.757a174.61 174.61 0 0 1 .107-18.72z" class="cls-12" transform="translate(-314.106 -171.795)"/>
                <path id="Path_28514" d="M499.773 330.574a16.7 16.7 0 0 0 2.027-1.274c.536-6.024-2.251-21.84-4.825-31.307s-6.647-23.023-7.612-29.909a40.539 40.539 0 0 1-.214-11.3l-11.257-3.12a174.6 174.6 0 0 0-.107 18.72c.643 9.037.214 16.353-.643 27.757-.078 1.042-.228 2.318-.428 3.741a87.325 87.325 0 0 0 23.062 26.69" class="cls-12" transform="translate(-323.381 -171.795)"/>
                <path id="Path_28515" d="M467.436 409.257c-1.238 8.832-4.4 23.371-4.4 23.371 12.077 9.878 23.067 5.73 27.459 3.32a87.321 87.321 0 0 1-23.062-26.69" class="cls-13" transform="translate(-314.106 -277.168)"/>
                <path id="Path_28516" d="M430.289 20.472a78.457 78.457 0 0 1 6.754 9.521 93.42 93.42 0 0 1 9.408 22.431l3.458-.484A59.779 59.779 0 0 0 446.612 40c-2.573-6.7-13.268-22.915-13.268-22.915z" class="cls-21" transform="translate(-291.89 -11.569)"/>
                <g id="Group_1234" class="cls-18" transform="translate(159.44 89.024)">
                    <g id="Group_1233">
                        <g id="Group_1232" clip-path="url(#clip-path-8)">
                            <path id="Path_28517" d="M497.9 275.828c-1.6.247-3.324 33.458-1.233 39.752s13.08 21.517 14.366 21.517-1.34-14.255-2.788-20.226-8.255-41.366-10.346-41.043" class="cls-20" transform="translate(-495.707 -275.826)"/>
                        </g>
                    </g>
                </g>
                <path id="Path_28518" d="M479.3 256.333s2.412 5.325 10.775 4.519c0 0 .322 9.441 1.608 13.959a6.934 6.934 0 0 1-4.905 4.115c-3.86.968-7.4-1.452-7.4-1.452s-1.447-13.152-.08-21.14" class="cls-14" transform="translate(-324.739 -173.601)"/>
                <g id="Group_1237" class="cls-15" transform="translate(160.572 87.042)">
                    <g id="Group_1236">
                        <g id="Group_1235" clip-path="url(#clip-path-9)">
                            <path id="Path_28519" d="M501.1 287.853a6.891 6.891 0 0 0 4.5-4c-1.287-4.519-1.608-13.959-1.608-13.959a14.875 14.875 0 0 1-4.563-.209 52.482 52.482 0 0 0 1.675 18.168" class="cls-17" transform="translate(-499.225 -269.685)"/>
                        </g>
                    </g>
                </g>
                <path id="Path_28520" fill="#401e13" d="M354.2 628.676l-16.162-7.343s4.825 10.57 7.559 17.267 3.86 11.619 4.664 12.587 18.439 11.458 18.439 11.458 3.591-17.267-14.5-33.97" transform="translate(-229.312 -420.796)"/>
                <path id="Path_28521" d="M471.1 481s4.074 3.766 9.113 13.018 7.29 16.514 7.076 16.945-14.474 15.008-36.238 29.424-51.141 27.219-51.141 27.219a63.843 63.843 0 0 0-6.138-18.155 77.367 77.367 0 0 0-9.73-14.443z" class="cls-38" transform="translate(-260.516 -325.756)"/>
                <path id="Path_28522" d="M338.039 518.391s29.109-15.169 46.316-25.82 36.185-23.238 36.185-23.238l19.353 3.766s-19.031 16.406-38.008 27.7c-18.195 10.831-47.925 26.466-49.05 26.3s-14.8-8.714-14.8-8.714" class="cls-31" transform="translate(-229.312 -317.854)"/>
                <path id="Path_28523" d="M360.152 596.345c-.8-.323-2.573-7.262-2.573-7.262l-19.54 10.409 15.037 9.037 16.6-8.857.5-4.211c-6.006 1.172-9.56 1.069-10.022.883" class="cls-32" transform="translate(-229.312 -398.955)"/>
                <path id="Path_28524" d="M566.384 477.119s2.613 5.164 2.292 6.092a40.875 40.875 0 0 1-11.137 13.394s11.939-8.041 18.977-13.435c7.317-5.608 12.276-10.072 12.276-10.072l-19.352-3.766-5.307 3.55z" class="cls-32" transform="translate(-378.211 -317.854)"/>
                <path id="Path_28525" d="M569.44 469.333l-5.307 3.55 2.252 4.236s2.613 5.164 2.292 6.092a40.875 40.875 0 0 1-11.137 13.394s11.939-8.041 18.977-13.435l.554-.426a58.56 58.56 0 0 0-4.021-12.71z" class="cls-32" transform="translate(-378.211 -317.854)"/>
                <path id="Path_28526" fill="#ba6345" d="M605.758 471.509a58.564 58.564 0 0 1 4.021 12.71c7.012-5.406 11.723-9.647 11.723-9.647z" transform="translate(-410.921 -319.328)"/>
                <path id="Path_28527" d="M401.533 508.051l-4.744 4.357s2.814 3.792 3.377 3.792a90.95 90.95 0 0 0 35.515-13.34c17.288-11.135 21.9-19.7 21.657-20.831s-1.769-5.446-1.769-5.446l-5.629 2.824z" class="cls-40" transform="translate(-269.165 -322.765)"/>
                <path id="Path_28528" d="M396.789 579.326s2.814 3.792 3.377 3.792A51.284 51.284 0 0 0 406.36 582a83.326 83.326 0 0 1-5.286-6.613z" class="cls-40" transform="translate(-269.165 -389.682)"/>
                <path id="Path_28529" d="M410.57 532.135l-.46.422a83.319 83.319 0 0 0 5.286 6.613 94.062 94.062 0 0 0 29.321-12.226q2.127-1.37 4-2.685a94 94 0 0 0-4.365-12.115z" class="cls-41" transform="translate(-278.202 -346.848)"/>
                <path id="Path_28530" d="M538.6 482.029c-.241-1.13-1.769-5.446-1.769-5.446l-5.629 2.824-14.623 8.653a94.01 94.01 0 0 1 4.365 12.115c14.009-9.8 17.877-17.109 17.656-18.146" class="cls-42" transform="translate(-350.422 -322.765)"/>
                <path id="Path_28531" d="M396.789 512.409a132.068 132.068 0 0 1 27.527-22.566 128.283 128.283 0 0 1 31.253-13.26s-4.985 11.431-22.247 22.189-36.533 13.636-36.533 13.636" class="cls-43" transform="translate(-269.165 -322.765)"/>
                <path id="Path_28532" d="M473.733 277.666s-.121 1.851-.056 6.112l.124 8.262c.04 3.4.07 7.472-.043 12.281a191.477 191.477 0 0 1-1.5 20.454c-.562 4.214-.9 6.036-.884 6.038-.014 0 .553-1.77 1.351-5.964a127.522 127.522 0 0 0 1.977-20.505c.114-4.832.024-8.918-.1-12.324s-.307-6.135-.449-8.26c-.3-4.248-.42-6.092-.416-6.093" class="cls-24" transform="translate(-319.76 -188.049)"/>
                <path id="Path_28533" d="M372.705 38.3s10.078-7.424 10.295-8.392-5.682-10.113-5.468-10.974S392.326 0 393.719 0 405.3 16.675 409.48 26.25s9.542 30.231 6.862 43.249-6.862 25.6-17.69 37.224l1.393-10.974a34.3 34.3 0 0 0 8.041-12.48c3-7.961 5.04-17.106 4.718-24.744s-2.681-21.194-6.969-30.339S394.9 8.068 393.612 8.068s-10.078 9.9-10.185 11.619 5.468 11.081 5.36 11.942-7.719 12.48-7.719 12.48z" class="cls-22" transform="translate(-252.828 .001)"/>
                <path id="Path_28534" d="M430.267 10.581C426.776 4.721 423.546 0 422.8 0c-.617 0-3.825 3.55-7.224 7.577.417 1.986.861 3.972 1.318 5.957 2.446-2.8 5.132-5.466 5.8-5.466.857 0 4.09 4.866 7.421 10.817.043-2.761.181-5.538.15-8.3" class="cls-44" transform="translate(-281.912)"/>
                <path id="Path_28535" d="M467.627 44.915c.043 2.746-.125 5.516-.322 8.267.831 1.585 1.634 3.186 2.379 4.746a74.677 74.677 0 0 0 .813-7.748c-.905-1.73-1.879-3.512-2.87-5.264" class="cls-44" transform="translate(-317 -30.419)"/>
                <path id="Path_28536" d="M427.446 490.144c-9.315 5.472-17.369 14.927-20.907 23.884 0 0 15.921-2.1 33.29-13.556s19.62-18.639 19.62-18.639-18.816.565-32 8.311" class="cls-21" transform="translate(-275.779 -326.32)"/>
                <path id="Path_28537" d="M131.04 247.573l1.287-2.9 11.257-3.335.322 3.47z" class="cls-45" transform="translate(-88.892 -163.442)"/>
                <path id="Path_28538" d="M376.994 101.817l6.594-8.983-3.538.807-7.35 7.369z" class="cls-44" transform="translate(-252.828 -62.871)"/>
                <path id="Path_28539" d="M406.707 408.79c3.779 4.68 7.022 11.027 6.942 17.482a47.154 47.154 0 0 1-2.573 13.314s6.835 3.47 9.086 3.308a25.659 25.659 0 0 0 10.561-3.12c3.538-2.179 6.781-5.03 7.505-6.563s.83-9.925.83-9.925-9.971-1.38-14.313-5.487a46.4 46.4 0 0 1-10.051-13.717z" class="cls-21" transform="translate(-275.893 -273.664)"/>
                <path id="Path_28540" d="M419.514 434.321c-.463.164-.932.311-1.409.437a24.952 24.952 0 0 1 3.276 11.993 47.156 47.156 0 0 1-2.573 13.314l3.461 1.145c2.556-8.633 1.019-18.647-2.755-26.889" class="cls-22" transform="translate(-283.625 -294.143)"/>
                <path id="Path_28541" fill="#471f12" d="M503.208 586.667s.322 4.088-.108 4.734-12.758 11.081-27.124 20.226-37.1 19.9-37.525 19.9-1.822-10.113-10.078-22.162l1.3-5.063z" transform="translate(-290.59 -397.319)"/>
                <path id="Path_28542" d="M446.328 451.462c-9.527-4.409-15.847-13.136-20.2-22.607a18.434 18.434 0 0 1-3.643 1.764c3.773 8.242 5.311 18.256 2.755 26.888l6.537 2.163c-.244.163 9.693-5.459 14.55-8.209" class="cls-21" transform="translate(-286.597 -290.441)"/>
                <path id="Path_28543" d="M443.132 430.269a48.4 48.4 0 0 1-6.621-7.775 18.851 18.851 0 0 1-2.7 2.053c4.352 9.471 10.672 18.2 20.2 22.607l2.6-1.474.831-9.925s-9.971-1.38-14.313-5.487" class="cls-43" transform="translate(-294.28 -286.133)"/>
                <path id="Path_28544" d="M414.694 404.083l-7.987 4.707a36.112 36.112 0 0 1 3.666 5.489 18.536 18.536 0 0 0 7.752-4.254 39.1 39.1 0 0 1-3.431-5.942" class="cls-40" transform="translate(-275.893 -273.664)"/>
                <path id="Path_28545" d="M389.789 395.144s2.577 3.365 5.281 3.174c3.431-.242 8.657-1.452 9.917-5.191 1.027-3.048-1.447-6.294-1.447-6.294z" class="cls-21" transform="translate(-264.417 -261.982)"/>
                <path id="Path_28546" d="M367.373 371.351s1.435 3.8 4.181 5.057c2.466 1.13 6.808.968 13-3.066 6.279-4.092 6.153-7.149 5.87-9.2a10.273 10.273 0 0 0-3.216-5.81z" class="cls-21" transform="translate(-249.211 -242.68)"/>
                <path id="Path_28547" d="M272.61 387.666a75.536 75.536 0 0 1-22.173 4.521c.1 1.49.28 2.953.513 4.4a141.03 141.03 0 0 0 27.664-4.945z" class="cls-22" transform="translate(-169.886 -262.546)"/>
                <path id="Path_28548" d="M165.039 158.129c4.985 9.037 13.616 20.495 20.692 29.424s21.978 20.226 33.129 21.194 18.029-1.686 23.051-4.787c6.969-4.3 13.456-10.436 16.243-19.042 2.244-6.929 4.556-21.786-4.771-40.828S235.8 116.333 235.8 116.333z" class="cls-21" transform="translate(-111.956 -78.786)"/>
                <path id="Path_28549" fill="#b8741f" d="M215.065 262.41a69.67 69.67 0 0 0 21.419 7.457 32.219 32.219 0 0 0 13.64-4.714 50.915 50.915 0 0 0 4.315-2.975 59.5 59.5 0 0 1-17.5-4.287c-16.725-7.1-24.766-23.238-34.737-38.408-2.719-4.365-4.982-8.5-7.558-12.8l-17.5 10.334c9.712 17.358 19.615 35.315 37.919 45.388" transform="translate(-120.168 -139.979)"/>
                <path id="Path_28550" fill="#6d4414" d="M194.045 132.126c21.068-13.932 44.172-11.727 44.172-11.727s-2.091 14.093-26.375 29.585-42.135 10.328-42.135 10.328 6.051-16.094 24.338-28.187" transform="translate(-115.122 -81.454)"/>
                <path id="Path_28551" fill="#815217" d="M179.039 182.507s14.8 4.357 32.084-8.392c0 0-8.121-3.577-10.962-15.949 0 0-14.877 9.494-21.122 24.341" transform="translate(-121.453 -107.117)"/>
                <path id="Path_28552" d="M219.925 141.686a76.215 76.215 0 0 0-23.445 21.958c1.412.374 2.837.735 4.272.975 2.343-4.373 8.208-13.116 20.46-20.458a62.66 62.66 0 0 1 24.961-8.144 29.053 29.053 0 0 0 1.643-4.012 81.488 81.488 0 0 0-27.89 9.681" class="cls-50" transform="translate(-133.284 -89.4)"/>
                <path id="Path_28553" d="M196.48 207.618c1.412.374 2.837.736 4.272.975a48.427 48.427 0 0 1 8.432-11.136c-1.252-.136-2.511-.318-3.755-.521a80.408 80.408 0 0 0-8.949 10.681" class="cls-51" transform="translate(-133.284 -133.375)"/>
                <path id="Path_28554" d="M224.3 190.1c1.243.2 2.5.384 3.755.521q1.272-1.275 2.75-2.578c-1.015-.364-2.03-.741-3.044-1.2-1.226 1.085-2.381 2.176-3.46 3.258" class="cls-50" transform="translate(-152.158 -126.54)"/>
                <path id="Path_28555" d="M235.061 180.7c1.015.459 2.03.836 3.044 1.2q1.617-1.422 3.5-2.847a20.407 20.407 0 0 0-3.018-1.279q-1.852 1.443-3.525 2.926" class="cls-51" transform="translate(-159.456 -120.399)"/>
                <path id="Path_28556" d="M253.532 141.686a67.085 67.085 0 0 0-7.511 5.092 20.38 20.38 0 0 1 3.018 1.279 64.861 64.861 0 0 1 5.78-3.9 62.659 62.659 0 0 1 24.961-8.144 29.051 29.051 0 0 0 1.643-4.012 81.488 81.488 0 0 0-27.89 9.681" class="cls-50" transform="translate(-166.89 -89.4)"/>
                <path id="Path_28557" d="M309.651 135.381c-.218 1.092-.39 2.192-.5 3.3a66.806 66.806 0 0 1 14.337-3.009 37.731 37.731 0 0 0 1.571-4.042 85.517 85.517 0 0 0-15.4 3.753" class="cls-50" transform="translate(-209.713 -89.145)"/>
                <path id="Path_28558" fill="#8a4e05" d="M432.373 641.319s7.184 11.081 9.757 19.9l2.573 1.937 10.612-12.1c-7.643-3.241-15.285-6.288-22.927-9.742z" transform="translate(-293.304 -434.327)"/>
                <path id="Path_28559" d="M494.694 523.441s-15.117 11.3-28.626 19.9c-13.3 8.474-33.045 17.782-33.651 18.068 7.643 3.453 15.285 6.5 22.927 9.742l41.923-47.82z" class="cls-22" transform="translate(-293.334 -354.426)"/>
                <path id="Path_28560" d="M466.068 577.446c-13.3 8.474-33.045 17.782-33.651 18.067 7.643 3.453 15.285 6.5 22.927 9.742l26.317-30.019c-3.3-.352-6.571-.908-9.834-1.549-1.92 1.28-3.856 2.546-5.759 3.759" class="cls-22" transform="translate(-293.334 -388.528)"/>
                <path id="Path_28561" fill="#fab052" d="M577.811 523.441s-11.157 8.337-22.867 16.144c3.263.642 6.536 1.2 9.834 1.55l15.607-17.8z" transform="translate(-376.451 -354.426)"/>
                <path id="Path_28562" fill="#ab6211" d="M440.373 562.709a232.21 232.21 0 0 0 31.843-17c14.9-9.79 30.449-22.378 30.449-22.378a66.865 66.865 0 0 1 5.306 8.392c2.145 4.2 4.825 11.3 4.825 11.3a162.922 162.922 0 0 1-26.106 20.656c-16.3 10.543-36.56 19.58-36.56 19.58a57.2 57.2 0 0 0-3.592-10.543 80.786 80.786 0 0 0-6.165-10.005" transform="translate(-298.731 -354.426)"/>
                <path id="Path_28563" d="M585.246 531.725a66.861 66.861 0 0 0-5.306-8.392s-12.391 10.032-25.652 19.15a124.662 124.662 0 0 0 20.247 13.806 145.84 145.84 0 0 0 15.536-13.268s-2.68-7.1-4.825-11.3" class="cls-55" transform="translate(-376.006 -354.426)"/>
                <path id="Path_28564" d="M556.959 604.374a158.77 158.77 0 0 1-20.584-13.785c-.336.223-.673.45-1.008.671q-.945.621-1.9 1.227s13.218 9.841 20.287 14.077c1.124-.769 2.155-1.437 3.205-2.19" class="cls-55" transform="translate(-361.882 -399.975)"/>
                <path id="Path_28565" d="M482.552 640.108a12.471 12.471 0 0 0-3.42.038s1.771-1.939 1.8-2.461-2.01-2.982-2.994-3.206c-1.469-.336-11.792 5.369-11.792 5.369s2.466 3.355 3.933 5.928a70.746 70.746 0 0 1 3.333 7.494s7.93-3.952 9.5-4.884a5.2 5.2 0 0 0 2.388-3.095c.066-.559-2.017-4.884-2.745-5.182m-10.3 2.349l-2.657-3.244s6.049-3.5 6.522-3.318 2.337 2.983 2.164 3.467-6.028 3.095-6.028 3.095m10.232 4.809c-.166.336-6.151 3.318-6.151 3.318a16.968 16.968 0 0 0-2.915-6.226s5.307-2.8 5.785-2.684 3.447 5.257 3.281 5.592" class="cls-22" transform="translate(-316.212 -429.69)"/>
                <path id="Path_28566" d="M516.774 610.556a50.128 50.128 0 0 1 4.514 5.76 54.238 54.238 0 0 1 3.288 6.934s6.465-3.635 9.976-5.816c0 0-1.56-2.852-1.95-2.908s-.781 3.244-.781 3.244l-4.621 2.63a34.8 34.8 0 0 0-2.563-5.145l2.9-1.622s.669 1.007.892.895 1.115-.727 1.115-.727-1.951-3.467-2.23-3.467a6.19 6.19 0 0 0-1.393.783l.947 1.231-3.065 1.566a32.6 32.6 0 0 0-3.343-4.362l5.015-2.684s2.675.727 3.065.391-1.783-2.684-1.783-2.684z" class="cls-22" transform="translate(-350.558 -409.445)"/>
                <path id="Path_28567" d="M571.721 580.341c.161-.468-.658-3.777-1.159-3.715s-8.632 5.25-8.731 6.257 3.347 6.485 4.294 6.417 4.877-3.9 5.379-3.793 3.339 4.21 3.232 4.6-4.029 3.311-4.029 3.311-1.651-2.833-2.149-2.6.062 5.2.506 5.083a76.029 76.029 0 0 0 7.409-4.974 6.646 6.646 0 0 0 1.4-3.82c-.12-.67-3.562-4.208-4.4-4.309s-6.179 3.784-6.57 3.733-2.848-3.564-2.743-4.069 5.156-3.809 5.156-3.809 2.237 2.154 2.4 1.686" class="cls-22" transform="translate(-381.121 -390.518)"/>
                <path id="Path_28568" d="M600.622 551.385c-.058-.817 9.012-8.518 9.535-8.576s1.8 3.675 1.512 3.967-2.675-1.575-2.675-1.575l-5.872 5.018s.931 3.383.523 3.85-2.965-1.867-3.023-2.683" class="cls-22" transform="translate(-407.437 -367.615)"/>
                <path id="Path_28569" d="M615.428 554.379a77.2 77.2 0 0 1 6.628 12.135l-2.035 2.042a58.441 58.441 0 0 0-6.744-12.252z" class="cls-22" transform="translate(-416.022 -375.452)"/>
                <path id="Path_28570" d="M630.243 593.024c.408-.116 5.175-3.792 5.117-4.317s-.29-.525-.581-.525a46.325 46.325 0 0 0-4.884 3.909c-.058.175.349.934.349.934" class="cls-22" transform="translate(-427.29 -398.345)"/>
                <path id="Path_28571" d="M481.052 637.275a12.461 12.461 0 0 0-3.42.037s1.771-1.939 1.8-2.461-2.01-2.982-2.994-3.207c-1.469-.336-11.792 5.369-11.792 5.369s2.466 3.355 3.933 5.928a70.77 70.77 0 0 1 3.333 7.494s7.93-3.952 9.5-4.884a5.194 5.194 0 0 0 2.388-3.095c.066-.559-2.017-4.884-2.745-5.182m-10.3 2.349l-2.657-3.244s6.049-3.5 6.522-3.318 2.337 2.983 2.164 3.467-6.029 3.094-6.029 3.094m10.232 4.809c-.166.335-6.151 3.318-6.151 3.318a16.967 16.967 0 0 0-2.915-6.226s5.307-2.8 5.785-2.684 3.447 5.257 3.281 5.592" class="cls-56" transform="translate(-315.194 -427.77)"/>
                <path id="Path_28572" d="M515.274 607.722a50.116 50.116 0 0 1 4.514 5.76 54.22 54.22 0 0 1 3.288 6.934s6.465-3.635 9.976-5.816c0 0-1.56-2.852-1.95-2.908s-.781 3.244-.781 3.244l-4.626 2.628a34.792 34.792 0 0 0-2.563-5.145l2.9-1.622s.669 1.007.892.9 1.115-.727 1.115-.727-1.951-3.467-2.23-3.467a6.19 6.19 0 0 0-1.393.783l.947 1.23-3.065 1.566a32.6 32.6 0 0 0-3.343-4.362l5.015-2.685s2.675.727 3.065.391-1.783-2.684-1.783-2.684z" class="cls-56" transform="translate(-349.54 -407.525)"/>
                <path id="Path_28573" d="M570.221 577.507c.161-.468-.658-3.777-1.159-3.715s-8.632 5.25-8.731 6.257 3.347 6.485 4.294 6.418 4.877-3.9 5.379-3.793 3.339 4.21 3.232 4.6-4.029 3.311-4.029 3.311-1.651-2.832-2.149-2.6.062 5.2.506 5.083a76.016 76.016 0 0 0 7.409-4.974 6.646 6.646 0 0 0 1.4-3.82c-.12-.67-3.562-4.208-4.4-4.309s-6.179 3.785-6.57 3.733-2.848-3.563-2.743-4.068 5.156-3.809 5.156-3.809 2.237 2.154 2.4 1.686" class="cls-56" transform="translate(-380.103 -388.599)"/>
                <path id="Path_28574" d="M599.122 548.552c-.058-.816 9.012-8.518 9.535-8.576s1.8 3.675 1.512 3.967-2.675-1.575-2.675-1.575l-5.873 5.018s.931 3.383.523 3.85-2.965-1.867-3.023-2.684" class="cls-56" transform="translate(-406.42 -365.697)"/>
                <path id="Path_28575" d="M613.928 551.545a77.222 77.222 0 0 1 6.628 12.136l-2.035 2.042a58.446 58.446 0 0 0-6.744-12.252z" class="cls-56" transform="translate(-415.004 -373.532)"/>
                <path id="Path_28576" d="M628.743 590.19c.408-.116 5.175-3.792 5.117-4.317s-.29-.525-.581-.525a46.32 46.32 0 0 0-4.884 3.909c-.058.175.349.933.349.933" class="cls-56" transform="translate(-426.273 -396.425)"/>
                <path id="Path_28577" d="M156.565 365.322c1.006-.337 1.179-4.2 1.179-4.2a7.968 7.968 0 0 0 3.109-6.993s2.895.322 3.431-.753 1.931-6.831 1.716-8.23-4.61-8.445-5.039-9.2-2.787-.86-4.289-.107c0 0-1.287-6.025-2.144-6.778a10.463 10.463 0 0 0-5.039-1.722c-1.179.108-2.573 3.335-2.573 3.335s0-4.626-.75-5.595-5.039-2.474-5.575-2.474-1.608 4.088-1.608 4.088-.857-5.7-1.287-5.917a26.289 26.289 0 0 0-5.36-1.076c-.751.107-1.608 2.151-1.608 2.151s-3.324-6.67-5.468-5.487.965 5.595.536 7.639-4.717 12.695-2.144 15.922 7.183 8.069 9.649 11.189 10.078 12.157 12.651 13.018 8.684 1.829 10.614 1.183" class="cls-12" transform="translate(-83.325 -214.166)"/>
                <path id="Path_28578" d="M476.283 133.263s1.5-3.766.965-5.164-7.88-3.766-13.67-3.766-12.812 1.8-13.429 2.582c-.523.662-1.93 4.034 1.153 7.639 0 0-1.072 2.582 1.072 7.316 0 0-1.394 1.076-1.18 1.937s1.5 4.411 1.5 4.411-1.716 1.076-1.18 2.259 7.961 8.876 7.961 8.876-1.635 4.034-.134 7.154a11.368 11.368 0 0 0 5.361 3.873c3.753 1.4 5.468 1.076 5.468 1.076l.429-2.259s10.936-12.8 12.008-15.277-1.072-4.734-1.072-4.734a34 34 0 0 0 1.072-4.088c.107-1.076-2.895-3.228-2.895-3.228a32.258 32.258 0 0 0 .857-4.734c0-1.291-4.289-3.873-4.289-3.873" class="cls-12" transform="translate(-304.836 -84.204)"/>
                <path id="Path_28579" d="M298.039 149.415s12.4 19.055 24.66 24.9c13.08 6.24 23.372 4.734 25.516 1.507s.965-19.715-5.307-32.706c-5.943-12.308-16.886-26.788-16.886-26.788s-2.895 18.881-27.983 33.082" class="cls-22" transform="translate(-202.177 -78.786)"/>
                <path id="Path_28580" d="M273.01 224.833a69.918 69.918 0 0 0 17.1 20.011s-13.831 0-25.57-16.353z" class="cls-22" transform="translate(-179.454 -152.268)"/>
                <path id="Path_28581" d="M198.039 261.833h4.985S214.6 283.78 230.2 296.368c0 0-12.383-2.1-32.164-34.535" class="cls-22" transform="translate(-134.341 -177.326)"/>
                <path id="Path_28582" d="M190.426 128.357a75.723 75.723 0 0 0-26.053 29.693s21.166 5.7 45.781-10.005 25.517-32.168 25.517-32.168-23.89-1.642-45.245 12.48m16.752 17.343c-21.179 13.512-37.123 8.906-37.123 8.906s6.029-13.66 21.978-24.206c18.374-12.151 38.812-11.189 38.812-11.189s-2.488 12.977-23.668 26.489" class="cls-22" transform="translate(-111.504 -78.438)"/>
                <path id="Path_28583" d="M346.126 119.213s-.868 4.518-5.927 11q1.031 1.668 2.18 3.27c8.147-9.895 8.571-17.6 8.571-17.6a74.529 74.529 0 0 0-16.638 1.287q.428 1.427.933 2.822a61.557 61.557 0 0 1 10.88-.774" class="cls-44" transform="translate(-226.783 -78.439)"/>
                <path id="Path_28584" d="M324.687 122.81q-.505-1.4-.933-2.822c-1.6.29-3.275.641-5.007 1.064q.5 1.332 1.021 2.664c1.738-.379 3.388-.676 4.919-.906" class="cls-44" transform="translate(-216.225 -81.262)"/>
                <path id="Path_28585" d="M309.131 125.948q-.517-1.332-1.021-2.664c-1.635.4-3.323.867-5.044 1.406q.391 1.307.826 2.6c1.812-.535 3.568-.978 5.239-1.342" class="cls-44" transform="translate(-205.587 -83.494)"/>
                <path id="Path_28586" d="M334.474 177q-1.025-1.629-1.953-3.327c-1.188 1.228-2.521 2.5-4.011 3.8q.956 1.607 1.987 3.166 2.172-1.837 3.976-3.635" class="cls-44" transform="translate(-222.848 -117.623)"/>
                <path id="Path_28587" d="M272 130.24q-.434-1.294-.826-2.6a74.54 74.54 0 0 0-15.121 6.6q.462 1.228.959 2.439A67.29 67.29 0 0 1 272 130.24" class="cls-44" transform="translate(-173.697 -86.443)"/>
                <path id="Path_28588" d="M240.872 152.246c.925-.612 1.855-1.186 2.787-1.733q-.5-1.211-.959-2.439-1.725 1-3.436 2.127-1.5.99-2.9 2.022.673 1.122 1.358 2.235 1.505-1.123 3.147-2.213" class="cls-44" transform="translate(-160.342 -100.283)"/>
                <path id="Path_28589" d="M265.377 224.308c1.518-.626 3.061-1.325 4.628-2.107q-1.213-1.311-2.376-2.667c-1.658.833-3.273 1.558-4.838 2.187q1.267 1.32 2.586 2.588" class="cls-57" transform="translate(-178.266 -148.679)"/>
                <path id="Path_28590" d="M227.408 163.166q-.687-1.112-1.358-2.235c-1.738 1.277-3.367 2.593-4.892 3.927q.723 1.12 1.47 2.227c1.463-1.316 3.054-2.631 4.781-3.92" class="cls-57" transform="translate(-150.024 -108.99)"/>
                <path id="Path_28591" d="M196.028 190.272c-15.382 6.182-25.973 3.127-25.973 3.127s3.988-9.029 14.051-18.074q-.745-1.108-1.47-2.227a74.6 74.6 0 0 0-18.264 23.744s14.9 4 34.242-3.983q-1.319-1.267-2.586-2.588" class="cls-57" transform="translate(-111.504 -117.23)"/>
                <path id="Path_28592" d="M284.1 215.364q-1.087-1.4-2.117-2.845c-1.41.833-2.793 1.583-4.148 2.264q1.164 1.356 2.376 2.667c1.282-.64 2.579-1.332 3.889-2.086" class="cls-44" transform="translate(-188.47 -143.928)"/>
                <path id="Path_28593" d="M295.868 195.195a83.16 83.16 0 0 0 9-6.59q-1.028-1.559-1.987-3.166a83.463 83.463 0 0 1-9.988 7.412q-1.092.7-2.164 1.328 1.033 1.441 2.117 2.845 1.5-.864 3.022-1.829" class="cls-44" transform="translate(-197.218 -125.588)"/>
                <path id="Path_28594" d="M346.9 163.672q-1.146-1.6-2.179-3.27a53.873 53.873 0 0 1-3.743 4.285q.93 1.7 1.953 3.327a58.458 58.458 0 0 0 3.969-4.342" class="cls-44" transform="translate(-231.305 -108.632)"/>
                <path id="Path_28595" d="M322.5 116a13.026 13.026 0 0 1-.2 1.3 27.037 27.037 0 0 1-1.119 4 36.7 36.7 0 0 1-3.181 6.605 48.917 48.917 0 0 1-6.706 8.6 70.807 70.807 0 0 1-8.233 7.218c-2.427 1.831-4.462 3.193-6.057 4.241s-2.764 1.77-3.522 2.247l-1.109.7s.388-.152 1.206-.52 2.066-.951 3.761-1.859a65.829 65.829 0 0 0 6.373-3.9 57.282 57.282 0 0 0 8.529-7.2 42.6 42.6 0 0 0 6.721-8.958 30.769 30.769 0 0 0 2.852-6.973 20.643 20.643 0 0 0 .692-4.173A8.611 8.611 0 0 0 322.5 116" class="cls-58" transform="translate(-198.334 -78.561)"/>
                <path id="Path_28596" d="M195.577 144.331a18.254 18.254 0 0 0-4.886 2.1 63.485 63.485 0 0 0-13.964 11.213 57.593 57.593 0 0 0-6.727 8.4 51.533 51.533 0 0 0-3.546 6.295 28.341 28.341 0 0 0-1.914 4.97c.011.006.652-1.479 2.5-4.661.93-1.585 2.173-3.59 3.88-5.97a72.757 72.757 0 0 1 6.758-8.112 90.886 90.886 0 0 1 13.362-11.572 27.669 27.669 0 0 1 4.539-2.66" class="cls-24" transform="translate(-111.616 -97.748)"/>
                <path id="Path_28597" d="M400.926 372.166a18.751 18.751 0 0 1-5.736 5.164 67.046 67.046 0 0 1-9.649 4.519A19.783 19.783 0 0 0 397.6 380.5a6.184 6.184 0 0 0 3.323-8.338" class="cls-43" transform="translate(-261.535 -252.048)"/>
                <path id="Path_28598" d="M407.373 403.71s5.629-1.587 8.5-5.46a3.161 3.161 0 0 1-.563 3.6c-2.337 2.2-7.934 1.856-7.934 1.856" class="cls-43" transform="translate(-276.345 -269.714)"/>
                <path id="Path_28599" d="M420.289 479.882s19.165-.834 27.983-16.3c0 0 .027 9.494-.295 10.14s-1.93 3.228-7.827 6.778-9.971 3.443-11.043 3.12-8.818-3.739-8.818-3.739" class="cls-40" transform="translate(-285.107 -313.96)"/>
                <path id="Path_28600" d="M420.289 512.078s7.746 3.416 8.818 3.739a8.356 8.356 0 0 0 3.492-.067c-2.189-1.381-4.24-3.031-6.288-4.628a35.449 35.449 0 0 1-6.021.956" class="cls-42" transform="translate(-285.107 -346.156)"/>
                <path id="Path_28601" d="M439.01 496.8c2.049 1.6 4.1 3.247 6.289 4.628a22.874 22.874 0 0 0 7.551-3.054c.775-.467 1.475-.916 2.109-1.348a19 19 0 0 0-1.361-7.053 37.974 37.974 0 0 1-14.588 6.827" class="cls-41" transform="translate(-297.806 -331.832)"/>
                <path id="Path_28602" d="M491.739 463.583a29.187 29.187 0 0 1-7.373 8.517 19 19 0 0 1 1.361 7.053c4.187-2.848 5.438-4.87 5.718-5.43.322-.646.295-10.14.295-10.14" class="cls-42" transform="translate(-328.574 -313.96)"/>
                <path id="Path_28603" d="M124.435 316.665a1.236 1.236 0 0 0-.2.143 1.382 1.382 0 0 0-.4.656 6.733 6.733 0 0 0 .223 3.207c.157.713.381 1.52.526 2.417a3.233 3.233 0 0 1-.009 1.345c-.122.487-.288 1.017-.456 1.571a71.913 71.913 0 0 0-2.161 8.173 22.074 22.074 0 0 0-.31 2.407 8.8 8.8 0 0 0 .1 2.307 4.235 4.235 0 0 0 .16.563 3.331 3.331 0 0 0 .252.524c.177.306.366.589.557.857.384.536.778 1.015 1.162 1.46 1.549 1.767 2.884 3.063 3.9 4.108 2.036 2.07 2.9 3 2.9 2.994a39.041 39.041 0 0 0-2.552-3.312c-.925-1.124-2.183-2.513-3.632-4.3-.358-.449-.724-.926-1.071-1.44-.172-.257-.34-.524-.492-.8a2.4 2.4 0 0 1-.179-.393 3.307 3.307 0 0 1-.114-.438 8.232 8.232 0 0 1-.058-2.061 23.039 23.039 0 0 1 .309-2.305c.6-3.2 1.406-5.868 2-8.12.149-.566.292-1.1.4-1.637a3.089 3.089 0 0 0 .058-.433 3.229 3.229 0 0 0-.007-.423 5.79 5.79 0 0 0-.116-.76c-.212-.949-.493-1.73-.7-2.424a7.223 7.223 0 0 1-.536-3.048 1.359 1.359 0 0 1 .286-.663 1.4 1.4 0 0 1 .17-.171" class="cls-24" transform="translate(-82.502 -214.461)"/>
                <path id="Path_28604" d="M369.027 394.556a2.4 2.4 0 0 0 .064.722 4.567 4.567 0 0 0 1.1 2.092 6.047 6.047 0 0 0 1.486 1.194 7.508 7.508 0 0 0 1.024.493c.186.073.378.143.578.2a4.479 4.479 0 0 0 .691.156 10.447 10.447 0 0 0 2.9-.062 20.236 20.236 0 0 0 3.229-.75 23.383 23.383 0 0 0 5.485-2.539 17.936 17.936 0 0 0 3.174-2.533 10.133 10.133 0 0 0 1.825-2.367c-.011-.016-.733.551-2.418 1.629a36.6 36.6 0 0 1-3.362 1.876 37.8 37.8 0 0 1-5.27 2.125 27.614 27.614 0 0 1-2.959.769 11.415 11.415 0 0 1-2.44.26 3.222 3.222 0 0 1-.478-.049c-.175-.031-.344-.068-.507-.107a7.88 7.88 0 0 1-.91-.275 6.282 6.282 0 0 1-1.412-.729 5.416 5.416 0 0 1-1.457-1.5 4.229 4.229 0 0 1-.337-.61" class="cls-59" transform="translate(-250.329 -264.917)"/>
                <path id="Path_28605" d="M392.2 412.415a2.382 2.382 0 0 0 .094.462 5.057 5.057 0 0 0 .634 1.365 5.216 5.216 0 0 0 2.083 1.858 4.755 4.755 0 0 0 .9.33 6.118 6.118 0 0 0 1.015.158 9.261 9.261 0 0 0 2.206-.11 10.237 10.237 0 0 0 3.739-1.391 7.308 7.308 0 0 0 2-1.8 4.754 4.754 0 0 0 .715-1.328 2.657 2.657 0 0 0 .116-.457l-.359.289a12.178 12.178 0 0 1-1.122.809 12.966 12.966 0 0 1-2.088 1.07 15.7 15.7 0 0 1-3.313.94 11.891 11.891 0 0 1-1.827.168 6.352 6.352 0 0 1-.755-.033 4.265 4.265 0 0 1-.652-.129 6.325 6.325 0 0 1-1.975-1.016c-.5-.363-.844-.674-1.076-.876z" class="cls-59" transform="translate(-266.056 -278.688)"/>
                <path id="Path_28606" d="M172.038 256.333s.3.587.978 1.829 1.743 3.14 3.322 5.73 3.682 5.872 6.54 9.8a116.46 116.46 0 0 0 11.329 13.419 71.018 71.018 0 0 0 13.709 11 42.65 42.65 0 0 0 10.829 4.723 31.268 31.268 0 0 0 6.545 1.069c1.414.071 2.071.022 2.071.03 0-.008-.657-.042-2.051-.237a36.491 36.491 0 0 1-6.376-1.5 46.661 46.661 0 0 1-10.434-5.041 77.881 77.881 0 0 1-13.356-10.987 138.774 138.774 0 0 1-11.373-13.154c-2.937-3.827-5.161-7-6.878-9.492s-2.913-4.3-3.7-5.476z" class="cls-24" transform="translate(-116.703 -173.601)"/>
                <path id="Path_28607" d="M507.039 485.936s6.54 3 6.969 3.645-3.752 7.854-3.752 7.854 10.56-6.347 13.79-14.726c0 0-9.569.4-17.007 3.228" class="cls-43" transform="translate(-343.954 -326.913)"/>
                <path id="Path_28608" d="M423.046 526.333s-3.538 6.7-3.377 7.343 5.87 4.6 5.87 4.6a39.2 39.2 0 0 1-13.75 3.147s2.01-7.181 11.257-15.089" class="cls-22" transform="translate(-279.341 -356.458)"/>
                <g id="Group_1240" class="cls-18" transform="translate(46.407 107.309)">
                    <g id="Group_1239">
                        <g id="Group_1238" clip-path="url(#clip-path-10)">
                            <path id="Path_28609" d="M146.885 332.675c.5-.648 4.744.484 4.905 1.049s-5.844 19.177-7.05 18.612.134-17.079 2.145-19.661" class="cls-20" transform="translate(-144.283 -332.48)"/>
                        </g>
                    </g>
                </g>
                <g id="Group_1243" class="cls-18" transform="translate(53.163 109.784)">
                    <g id="Group_1242">
                        <g id="Group_1241" clip-path="url(#clip-path-11)">
                            <path id="Path_28610" d="M165.743 358.391c-2.145-.861 3.913-17.778 4.717-18.182s3.591 1.372 3.913 1.937-6.486 17.106-8.63 16.245" class="cls-20" transform="translate(-165.286 -340.15)"/>
                        </g>
                    </g>
                </g>
                <g id="Group_1246" class="cls-18" transform="translate(60.227 114.195)">
                    <g id="Group_1245">
                        <g id="Group_1244" clip-path="url(#clip-path-12)">
                            <path id="Path_28611" d="M193.185 353.875c.583-.316 3.27.7 3.431 1.184s-5.834 17.054-9.086 16.138c-1.528-.43 3.565-16.192 5.656-17.321" class="cls-20" transform="translate(-187.248 -353.815)"/>
                        </g>
                    </g>
                </g>
                <g id="Group_1249" class="cls-18" transform="translate(67.457 122.206)">
                    <g id="Group_1248">
                        <g id="Group_1247" clip-path="url(#clip-path-13)">
                            <path id="Path_28612" d="M209.748 389.672c-.4.05 5.468-10.785 6.192-10.7s3.136-.726 3.458-.081-3.136 7.961-3.779 8.688-5.227 2.017-5.87 2.1" class="cls-20" transform="translate(-209.728 -378.635)"/>
                        </g>
                    </g>
                </g>
                <path id="Path_28613" d="M243.427 413c.04.605-.992 5.877-1.434 6.361a3.308 3.308 0 0 1-3.5.31 19.616 19.616 0 0 0-1.206-6.4z" class="cls-64" transform="translate(-160.967 -279.703)"/>
                <g id="Group_1252" class="cls-18" transform="translate(42.022 103.197)">
                    <g id="Group_1251">
                        <g id="Group_1250" clip-path="url(#clip-path-14)">
                            <path id="Path_28614" d="M130.828 319.823c.622-.46 2.466.968 4.288 4.2 0 0-1.554 1.883-1.662 6.025 0 0-3.645-9.468-2.627-10.221" class="cls-20" transform="translate(-130.649 -319.739)"/>
                        </g>
                    </g>
                </g>
                <path id="Path_28615" d="M244.657 393.551a29.715 29.715 0 0 1-5.816-.135 8.744 8.744 0 0 0-1.528 6.966s2.037.377 7.5-.161z" class="cls-21" transform="translate(-160.857 -266.44)"/>
                <path id="Path_28616" d="M142.779 399.85c.28-.842 2.814-2.017 3.458-2.017s.965 2.743 2.091 2.986 4.744-1.937 5.307-1.856 1.769 3.55 2.493 3.712 4.181-.726 4.905-.646.724 2.824 1.689 2.9 5.548-1.775 6.192-1.372 2.251 12.345-.482 12.507-10.936-.161-13.027-1.856c-3.671-2.976-12.866-13.636-12.624-14.362" class="cls-64" transform="translate(-96.852 -269.431)"/>
                <path id="Path_28617" d="M115.513 343a69.931 69.931 0 0 0 6.218 4.2l-.911 8.876a92.154 92.154 0 0 1-9.113-6.24z" class="cls-21" transform="translate(-75.777 -232.296)"/>
                <path id="Path_28618" d="M206.257 385.952l-.807-.531c1.4-2.143 6.039-9.18 7.031-9.733l.469.846c-.578.361-3.858 5.072-6.693 9.417" class="cls-66" transform="translate(-139.369 -254.434)"/>
                <path id="Path_28619" d="M181.549 372.64l-.884-.388c.03-.069 3.023-6.938 5.035-11.825l.892.37c-2.016 4.9-5.013 11.775-5.043 11.843" class="cls-66" transform="translate(-122.556 -244.098)"/>
                <path id="Path_28620" d="M159.525 361.024l-.926-.273c.022-.073 2.174-7.4 4.195-12.625l.9.35c-2.006 5.192-4.147 12.476-4.168 12.549" class="cls-66" transform="translate(-107.587 -235.767)"/>
                <path id="Path_28621" d="M139.268 353.542c-.035-.3-.836-7.53 1.942-18.253l.934.244c-2.733 10.549-1.926 17.824-1.918 17.9z" class="cls-66" transform="translate(-94.383 -227.074)"/>
                <path id="Path_28622" fill="#b5684e" d="M478.039 519.354c-.006-.013 2.219-.877 7.153-3.3 2.463-1.218 5.6-2.84 9.418-5.017s8.325-4.915 13.484-8.407 9.372-6.663 12.819-9.395 6.127-5.031 8.185-6.855c4.106-3.66 5.756-5.389 5.764-5.38-.007-.009-1.818 1.547-6.069 5.018-2.13 1.73-4.877 3.93-8.368 6.584s-7.724 5.76-12.86 9.241-9.6 6.253-13.357 8.5-6.832 3.967-9.235 5.287c-4.814 2.628-6.942 3.708-6.935 3.721" transform="translate(-324.282 -325.756)"/>
                <path id="Path_28623" fill="#a35337" d="M555.041 610.165c-.006-.011 2.078-.963 6.684-3.533 2.3-1.294 5.224-3 8.776-5.281s7.731-5.14 12.455-8.813a151.362 151.362 0 0 0 11.573-9.954c3.057-2.918 5.38-5.392 7.145-7.357s2.965-3.432 3.739-4.39 1.116-1.42 1.117-1.419l-1.229 1.322c-.841.9-2.129 2.282-3.972 4.163s-4.241 4.258-7.343 7.1-6.913 6.134-11.609 9.791-8.826 6.544-12.313 8.893-6.346 4.148-8.579 5.541c-4.478 2.769-6.451 3.931-6.444 3.941" transform="translate(-376.517 -385.636)"/>
                <path id="Path_28624" fill="#ffcb8a" d="M519.789 549.558c0-.006 1.426-.657 4.573-2.434a163.039 163.039 0 0 0 14.652-9.478c6.643-4.784 10.982-8.432 13.708-10.8s3.815-3.511 3.816-3.509l-4.114 3.142c-2.87 2.184-7.341 5.633-13.959 10.4s-11.339 7.859-14.348 9.843z" transform="translate(-352.603 -354.426)"/>
                <path id="Path_28625" fill="#ffd88a" d="M428.041 479.641s1.068-.165 3.49-.713c1.21-.28 2.762-.656 4.664-1.264a35.229 35.229 0 0 0 6.643-2.862 26.951 26.951 0 0 0 5.787-4.377 26 26 0 0 0 3.108-3.746 24.7 24.7 0 0 0 1.415-2.334c.272-.515.383-.763.383-.762l-.508.683c-.348.464-.879 1.178-1.667 2.127a34.724 34.724 0 0 1-3.281 3.453 31.257 31.257 0 0 1-5.7 4.131 43.992 43.992 0 0 1-6.438 2.93c-1.846.683-3.356 1.17-4.53 1.564-2.354.774-3.364 1.166-3.363 1.169" transform="translate(-290.365 -313.961)"/>
                <g id="Group_1255" class="cls-18" transform="translate(146.795 42.316)">
                    <g id="Group_1254">
                        <g id="Group_1253" clip-path="url(#clip-path-15)">
                            <path id="Path_28626" d="M479.6 133.633c-1.56-2.308-21.055-2.978-21.757-2.233s-2.183 3.945-1.013 4.392 24.026-.3 22.77-2.159" class="cls-20" transform="translate(-456.394 -131.109)"/>
                        </g>
                    </g>
                </g>
                <g id="Group_1258" class="cls-18" transform="translate(147.988 49.228)">
                    <g id="Group_1257">
                        <g id="Group_1256" clip-path="url(#clip-path-16)">
                            <path id="Path_28627" d="M484.61 156.473c.3-1.01-5.849-3.793-12.867-3.933s-11.073.632-11.541 1.4.78 3.371 2.027 3.371 21.99.492 22.38-.843" class="cls-20" transform="translate(-460.101 -152.524)"/>
                        </g>
                    </g>
                </g>
                <path id="Path_28628" d="M481.873 220.87s9.542.215 14.1-.538c0 0-6.326 9.629-8.578 9.145s-5.521-8.607-5.521-8.607" class="cls-64" transform="translate(-326.883 -149.219)"/>
                <g id="Group_1261" class="cls-18" transform="translate(148.938 57.453)">
                    <g id="Group_1260">
                        <g id="Group_1259" clip-path="url(#clip-path-17)">
                            <path id="Path_28629" d="M487.861 180.962c-1.273-2.55-23.394-3.576-24.408-2.575s.156 3.934.78 4.291 25.038 1.106 23.628-1.717" class="cls-20" transform="translate(-463.055 -178.008)"/>
                        </g>
                    </g>
                </g>
                <path id="Path_28630" d="M470.089 222.72s0 11.054-7.719 19.769l-.08 4.519s2.627-2.609 5.95-10.247a135.584 135.584 0 0 0 5.227-14.094z" class="cls-21" transform="translate(-313.598 -150.8)"/>
                <g id="Group_1264" class="cls-18" transform="translate(150.27 64.681)">
                    <g id="Group_1263">
                        <g id="Group_1262" clip-path="url(#clip-path-18)">
                            <path id="Path_28631" d="M467.274 200.667c.688-.8 22.745.354 23.432 1.628s-20.837 2.619-21.982 1.982-1.755-3.256-1.45-3.61" class="cls-20" transform="translate(-467.196 -200.404)"/>
                        </g>
                    </g>
                </g>
                <path id="Path_28632" d="M480.373 235.442a91.086 91.086 0 0 0 4.181-13.287l4.5-.323a114.382 114.382 0 0 1-5.79 17.751z" class="cls-21" transform="translate(-325.865 -150.235)"/>
                <path id="Path_28633" d="M458.194 173.832a.126.126 0 0 0 .02-.041l-.889-.376c.228-.543 2.269-3.185 20.046-1.855l-.072.966c-17.2-1.286-19.088 1.28-19.106 1.306" class="cls-66" transform="translate(-310.23 -115.938)"/>
                <path id="Path_28634" d="M454.972 150.817l-.723-.641c.268-.3 3.059-2.95 18.371-2.153l-.05.967c-14.874-.773-17.576 1.8-17.6 1.828" class="cls-66" transform="translate(-308.144 -100.147)"/>
                <path id="Path_28635" d="M459.532 195.344l-.313-.916c.291-.1 7.279-2.437 19.326-.261l-.171.953c-11.777-2.127-18.773.2-18.842.224" class="cls-66" transform="translate(-311.515 -130.874)"/>
                <g id="Group_1267" class="cls-26" transform="translate(212.401 75.416)">
                    <g id="Group_1266">
                        <g id="Group_1265" clip-path="url(#clip-path-19)">
                            <path id="Path_28636" d="M677.95 253.973c-.269 10.678-11.9 23.911-10.828 27.353 0 0-7.988-7.154-6.594-14.524 1.047-5.533 5.128-11.045 7.13-14.847 2.251-4.276 4.824-11.942 4.288-18.289 0 0 6.172 13.638 6 20.307" class="cls-28" transform="translate(-660.364 -233.666)"/>
                        </g>
                    </g>
                </g>
                <g id="Group_1270" class="cls-26" transform="translate(217.335 142.603)">
                    <g id="Group_1269">
                        <g id="Group_1268" clip-path="url(#clip-path-20)">
                            <path id="Path_28637" d="M690.286 473.732s-1.287-5.595-2.359-6.132-12.222-4.841-12.222-4.841 7.754-4.876 11.365-8.5c4.825-4.841 7.988-8.983 8.523-12.426 0 0 1.125 4.572 1.661 8.661s.751 9.36.322 10.758a50.124 50.124 0 0 1-7.29 12.48" class="cls-28" transform="translate(-675.704 -441.833)"/>
                        </g>
                    </g>
                </g>
                <path id="Path_28638" d="M380.356 18.934L396.546 0l-5.307 2.609-14.367 18.1z" class="cls-45" transform="translate(-255.654)"/>
                <path id="Path_28639" d="M380.47 58.666l6.058 11.028-3.538.807-5.95-10.221z" class="cls-21" transform="translate(-255.767 -39.732)"/>
                <path id="Path_28640" d="M388.538 119.334l1.372 2.1c.937 1.43 2.383 3.62 4.337 6.71s4.418 7.082 7.168 12.224c1.368 2.574 2.8 5.439 4.177 8.655a72.553 72.553 0 0 1 3.709 10.757c.5 1.985.863 3.925 1.144 5.8s.462 3.686.559 5.425a48.515 48.515 0 0 1-.36 9.529 35.4 35.4 0 0 1-4.488 13.2 32.716 32.716 0 0 1-4.824 6.279c-1.2 1.213-1.811 1.723-1.8 1.729s.657-.449 1.947-1.579a29.84 29.84 0 0 0 5.243-6.078 31.852 31.852 0 0 0 2.915-5.643 36.993 36.993 0 0 0 2.114-7.743 53.791 53.791 0 0 0-1.164-21.25 69.369 69.369 0 0 0-3.83-10.94c-1.43-3.246-2.925-6.119-4.359-8.685-2.883-5.127-5.509-9.041-7.6-12.054s-3.681-5.1-4.718-6.463-1.542-1.975-1.541-1.975" class="cls-24" transform="translate(-263.568 -80.819)"/>
                <path id="Path_28641" d="M403.013.582s-1.126 1.117-3.6 3.8c-1.236 1.341-2.81 3.074-4.744 5.257s-4.236 4.809-6.889 7.986l-.665.81-.323.406-.16.21-.083.116-.049.074c-.011.018-.016.025-.035.062l-.011.024-.005.012-.016.043a.541.541 0 0 0-.021.089v.045a.477.477 0 0 0 .025.174.484.484 0 0 0 .234.274l-.2-.191c1.26 2.256 2.4 4.267 3.418 6.052l1.443 2.508.656 1.131.312.536.15.257.051.077-2.015 3.006-1.439 2.192c-.742 1.148-1.068 1.682-1.068 1.682s.4-.48 1.247-1.553l1.609-2.07 1.066-1.4.6-.792.317-.421.448-.6-2.646-4.963q-1.463-2.714-3.331-6.1l-.1-.175-.312.4c.007-.009 0 0 .025 0a.154.154 0 0 1 .077.029l.043.017.084.04.186.107c.012.006 0 0 .007 0l.021-.031.064-.088.147-.191.315-.392.659-.8 6.766-8.07c1.867-2.24 3.351-4.05 4.5-5.469 2.295-2.837 3.243-4.11 3.243-4.11" class="cls-58" transform="translate(-262.122 -.394)"/>
                <path id="Path_28642" d="M22.707 231.469s4.181-4.734 4.074-5.057 22.729-7.746 22.729-7.746l-2.144 3.443z" class="cls-45" transform="translate(-15.403 -148.091)"/>
                <path id="Path_28643" d="M101.517 218.666l9.328 10.651-1.287 2.9-10.185-10.108z" class="cls-23" transform="translate(-67.41 -148.091)"/>
                <path id="Path_28644" d="M22.707 237.538s6.909-2.116 24.5-8.795l.039-.015 5.477 5.39 4.711 4.563 2.91-.681 2.3-.552 3.422-.849c1.778-.453 2.58-.68 2.58-.68s-.824.12-2.632.432l-3.471.621-4.879.923-1.951-2-2.372-2.407-2.669-2.684-3.191-3.182-.606.23c-17.594 6.678-24.169 9.681-24.169 9.681" class="cls-58" transform="translate(-15.403 -154.16)"/>
                <path id="Path_28645" fill="#964c33" d="M384.788 649.334s.744 1.016 2.349 3.413c.8 1.2 1.809 2.75 3 4.718s2.562 4.36 4.016 7.272a80.775 80.775 0 0 1 5.154 12.879c.82 2.763 1.094 4 1.108 3.993a32.177 32.177 0 0 0-.651-4.112A55.748 55.748 0 0 0 395 664.312a70.777 70.777 0 0 0-4.187-7.275c-1.277-1.94-2.392-3.433-3.292-4.57a33.563 33.563 0 0 0-2.73-3.133" transform="translate(-261.024 -439.76)"/>
                <path id="Path_28646" d="M440.7 419.334a26.736 26.736 0 0 0 1.546 2.69c.582.912 1.357 2.065 2.43 3.431.538.681 1.151 1.415 1.874 2.179a17.552 17.552 0 0 0 2.588 2.3 15.935 15.935 0 0 0 1.552.927c.5.27 1 .509 1.478.725a26.382 26.382 0 0 0 2.686 1.03 27.454 27.454 0 0 0 4.094.982 16.855 16.855 0 0 0 3.088.264c0-.007-.925-.171-2.989-.727-1.029-.284-2.343-.672-3.93-1.273-.793-.3-1.653-.66-2.57-1.1-.458-.22-.931-.46-1.414-.727a16.827 16.827 0 0 1-1.456-.88A19.12 19.12 0 0 1 447.2 427c-.718-.722-1.346-1.418-1.909-2.058-1.123-1.286-1.986-2.359-2.659-3.2z" class="cls-24" transform="translate(-298.956 -283.993)"/>
                <path id="Path_28647" d="M417.371 433.667c-.011 0 .351.874 1.082 2.882a38.351 38.351 0 0 1 1.189 3.95 29.215 29.215 0 0 1 .808 6.037 31.885 31.885 0 0 1-.438 6.084c-.28 1.673-.6 3-.873 4.037-.553 2.066-.843 2.961-.83 2.965a22.086 22.086 0 0 0 1.28-2.819 28.107 28.107 0 0 0 1.206-4.032 25.92 25.92 0 0 0 .6-6.261 24.256 24.256 0 0 0-.982-6.218 25.5 25.5 0 0 0-1.524-3.926 22.533 22.533 0 0 0-1.517-2.7" class="cls-24" transform="translate(-283.127 -293.7)"/>
                <path id="Path_28648" d="M507.041 481.452s.824-.136 2.7-.482 4.8-.913 9.053-1.479c1.064-.138 2.047-.248 2.953-.335l1.3-.116.608-.047.294-.021.09-.006a.346.346 0 0 0 .132-.022l.161-.055c1.444-.5 2.593-.921 3.487-1.263 1.785-.683 2.541-1.044 2.541-1.044s-.825.134-2.681.592c-.929.229-2.114.538-3.584.951l-.069.02-.044.012h-.067l-.3.005-.619.019c-.422.016-.864.038-1.326.07-.922.063-1.922.159-3 .3a53.229 53.229 0 0 0-9.045 1.959 23 23 0 0 0-2.585.942" class="cls-24" transform="translate(-343.955 -322.765)"/>
                <path id="Path_28649" d="M414.058 526.332a15.3 15.3 0 0 0-2.341 1.691 29.952 29.952 0 0 0-2.824 2.716 35.743 35.743 0 0 0-5.65 8.28c-.275.559-.517 1.091-.732 1.593-.107.252-.209.5-.3.733l-.137.35-.065.17-.029.077-.005.022-.824.858-.736.778c-.445.477-.8.868-1.079 1.179-.555.622-.793.919-.793.919s.308-.222.958-.744c.324-.26.734-.6 1.233-1.015l.816-.694.458-.4.242-.211.3-.269.338-.724.341-.7c.239-.48.5-.989.789-1.525.578-1.073 1.264-2.258 2.1-3.541a51.851 51.851 0 0 1 3.381-4.615c1.006-1.226 1.864-2.17 2.546-2.9 1.37-1.446 2.022-2.032 2.018-2.037" class="cls-24" transform="translate(-270.352 -356.457)"/>
                <path id="Path_28650" d="M407.289 529.917s.593-.007 1.863-.125 3.216-.351 5.9-.857a85.976 85.976 0 0 0 10.291-2.629 84.685 84.685 0 0 0 14.579-6.215 70.065 70.065 0 0 0 13-9.119 66.15 66.15 0 0 0 7.395-7.675 49.511 49.511 0 0 0 3.517-4.844c.682-1.084.943-1.619.944-1.618s-.363.471-1.182 1.443-2.1 2.443-3.984 4.388a90.836 90.836 0 0 1-7.72 7.087 83.292 83.292 0 0 1-12.872 8.674 106.168 106.168 0 0 1-14.194 6.367c-4.055 1.484-7.382 2.484-9.99 3.219s-4.5 1.193-5.737 1.488z" class="cls-38" transform="translate(-276.288 -336.479)"/>
                <path id="Path_28651" d="M514.73 263.333s-.11.589-.2 1.875a48.472 48.472 0 0 0-.018 6.026 73.175 73.175 0 0 0 1.4 10.629c.864 4.341 2.346 9.423 4.188 15.373s3.306 11 4.3 15.269 1.618 7.74 2.028 10.456.621 4.677.761 5.954l.194 1.873s0-.6-.047-1.884-.148-3.261-.44-6a100.573 100.573 0 0 0-1.719-10.572q-.7-3.237-1.739-7.074c-.7-2.559-1.523-5.319-2.439-8.3-1.842-5.952-3.369-10.983-4.311-15.262a85.883 85.883 0 0 1-1.708-10.5c-.263-2.731-.307-4.7-.305-5.985s.057-1.88.056-1.88" class="cls-24" transform="translate(-348.965 -178.342)"/>
                <path id="Path_28652" d="M480.787 474.221l-.38 5.609-.6-5.546-5.083-.541 4.988-.414.507-5.037.443 4.973 3.953.287z" class="cls-24" transform="translate(-322.032 -317.15)"/>
                <path id="Path_28653" d="M398.017 389.3l-.215 3.177-.341-3.141-2.879-.306 2.825-.234.287-2.853.251 2.817 2.239.162z" class="cls-24" transform="translate(-267.668 -261.376)"/>
                <path id="Path_28654" d="M641.029 475.083l-.338 4.982-.535-4.926-4.514-.48 4.429-.367.451-4.473.393 4.417 3.511.254z" class="cls-24" transform="translate(-431.193 -318.183)"/>
                <path id="Path_28655" d="M454.017 394.963l-.216 3.177-.34-3.14-2.879-.306 2.825-.234.287-2.853.251 2.817 2.239.162z" class="cls-24" transform="translate(-305.656 -265.214)"/>
                <path id="Path_28656" d="M563.358 487.852l-.215 3.177-.341-3.141-2.879-.306 2.825-.234.287-2.853.251 2.817 2.239.162z" class="cls-24" transform="translate(-379.828 -328.122)"/>
                <path id="Path_28657" d="M234.123 159.625l.216-3.177.341 3.141 2.879.306-2.825.234-.287 2.853-.251-2.817-2.24-.165z" class="cls-24" transform="translate(-157.349 -105.954)"/>
                <path id="Path_28658" d="M95.524 223.109l.215-3.177.341 3.141 2.879.306-2.825.234-.287 2.853-.247-2.816-2.239-.162z" class="cls-24" transform="translate(-63.33 -148.948)"/>
                <g id="Group_1273" class="cls-26" transform="translate(51.516 222.923)">
                    <g id="Group_1272">
                        <g id="Group_1271" clip-path="url(#clip-path-21)">
                            <path id="Path_28659" d="M213.919 691.142c.31-1.04-7.317-.242-17.127 2.1s-16.565 4.2-24.123 3.228-12.115-4.519-12.437-4.276.59 5.272 1.179 8.015c.477 2.221.831 5.863 2.037 6.993s7.023 5.807 19.111 5c14.554-.968 23.882-5 23.882-5s5.146-8.23 7.478-16.057" class="cls-28" transform="translate(-160.165 -690.694)"/>
                        </g>
                    </g>
                </g>
                <g id="Group_1276" class="cls-26" transform="translate(18.684 202.393)">
                    <g id="Group_1275">
                        <g id="Group_1274" clip-path="url(#clip-path-22)">
                            <path id="Path_28660" d="M61.611 627.083a68.9 68.9 0 0 0-2.493 7.02 22.371 22.371 0 0 0-.965 7.746c.161.726 3.776 8.725 16.243 11.861 9.73 2.448 13.643 1.533 13.643 1.533s-1.662-8.553-1.018-9.844 3.055-2.421 8.845-3.228l.563-1.13a38.263 38.263 0 0 1-12.222.807 33.791 33.791 0 0 1-16.484-5.89c-3.86-2.985-6.111-8.876-6.111-8.876" class="cls-28" transform="translate(-58.09 -627.083)"/>
                        </g>
                    </g>
                </g>
                <g id="Group_1279" class="cls-26" transform="translate(3.178 172.613)">
                    <g id="Group_1278">
                        <g id="Group_1277" clip-path="url(#clip-path-23)">
                            <path id="Path_28661" d="M27.7 550.717c.065-1.074-3.168-5.434-6.031-7.262-3.538-2.259-7.559-7.343-7.88-8.472s-1.447 3.792-2.171 5.325-2.01 5.325-1.689 5.89 2.992 5.292 5.95 7.907c3.377 2.985 6.835 6.616 7.559 6.778s4.1-7.5 4.262-10.167" class="cls-28" transform="translate(-9.881 -534.816)"/>
                        </g>
                    </g>
                </g>
                <g id="Group_1282" class="cls-26" transform="translate(.415 124.986)">
                    <g id="Group_1281">
                        <g id="Group_1280" clip-path="url(#clip-path-24)">
                            <path id="Path_28662" d="M8.526 417.133c.355.408 3.7-2.447 4.691-5.971.635-2.254-.993-9.022-2.895-13.125-2.144-4.626-3.806-10.355-4.288-10.759s-4.744 3.954-4.744 5.164 2.088 7.96 4.262 12.023c4.664 8.714 2.412 12.023 2.975 12.668" class="cls-28" transform="translate(-1.289 -387.251)"/>
                        </g>
                    </g>
                </g>
                <path id="Path_28663" d="M678.373 508.334l.936.259c.637.181 1.613.462 2.949.918a48.561 48.561 0 0 1 5.068 2.036c.5.241 1.028.505 1.554.808.262.151.525.313.776.489a1.947 1.947 0 0 1 .584.548 6.713 6.713 0 0 1 .39.888c.121.324.236.663.349 1.012.224.7.439 1.435.651 2.206.841 3.088 1.421 5.743 1.883 7.961s.777 4.011 1.006 5.412c.451 2.8.568 4.037.578 4.036a30.657 30.657 0 0 0-.11-4.094c-.113-1.424-.318-3.247-.692-5.5a82.051 82.051 0 0 0-1.756-8.067c-.215-.782-.437-1.531-.675-2.247-.119-.358-.242-.708-.376-1.051a7.219 7.219 0 0 0-.472-1.02 1.71 1.71 0 0 0-.205-.281 2.662 2.662 0 0 0-.221-.209 5.1 5.1 0 0 0-.436-.325c-.289-.193-.576-.358-.858-.511-.565-.3-1.115-.557-1.643-.785a35.472 35.472 0 0 0-5.261-1.762 29.823 29.823 0 0 0-3.053-.608c-.658-.093-.967-.113-.967-.114" class="cls-24" transform="translate(-460.18 -344.268)"/>
                <path id="Path_28664" d="M660.877 331.666a11.754 11.754 0 0 0-.332 1.86 12.453 12.453 0 0 0 0 2.477 13.99 13.99 0 0 0 .833 3.5 19.378 19.378 0 0 0 2.255 4.218 32.826 32.826 0 0 0 3.908 4.575c1.573 1.565 3.42 3.153 5.473 4.826l3.207 2.62c1.114.909 2.279 1.847 3.445 2.858a23.672 23.672 0 0 1 3.1 3.119 5.82 5.82 0 0 1 .74 6.925 16.581 16.581 0 0 1-1.85 2.821 58.534 58.534 0 0 1-3.969 4.385c-1.244 1.257-2.382 2.336-3.388 3.269-2.017 1.863-3.51 3.151-4.483 3.989l-1.434 1.219s.495-.335 1.526-1.1 2.6-1.968 4.7-3.75c1.05-.893 2.233-1.933 3.527-3.161a53.435 53.435 0 0 0 4.137-4.345 16.9 16.9 0 0 0 1.995-2.933 7.387 7.387 0 0 0 .932-3.885 6.193 6.193 0 0 0-.54-2.112 9.331 9.331 0 0 0-1.16-1.895 23.9 23.9 0 0 0-3.216-3.258c-1.187-1.03-2.357-1.967-3.476-2.871l-3.226-2.6c-2.063-1.648-3.909-3.187-5.487-4.694a34.139 34.139 0 0 1-3.937-4.378 19.7 19.7 0 0 1-2.341-4.017 13.512 13.512 0 0 1-1.127-5.794 14.091 14.091 0 0 1 .185-1.87" class="cls-24" transform="translate(-448.045 -224.62)"/>
                <path id="Path_28665" d="M666.488 369.625s-1.184-1.179-4.093-3.677c-.723-.628-1.549-1.342-2.461-2.17s-1.906-1.772-2.919-2.894a22 22 0 0 1-2.913-4.005 19.163 19.163 0 0 1-2.027-5.495 33.116 33.116 0 0 1-.591-5.9c-.037-1.827.033-3.5.14-5.023.22-3.043.574-5.476.864-7.369s.541-3.248.695-4.131l.225-1.3s-.127.4-.369 1.262-.6 2.2-1.015 4.077a64.978 64.978 0 0 0-1.194 7.389 48.4 48.4 0 0 0-.249 5.1 31.565 31.565 0 0 0 .571 6.08 19.237 19.237 0 0 0 2.166 5.749 21.46 21.46 0 0 0 3.115 4.1 36.421 36.421 0 0 0 3.08 2.839c.958.795 1.824 1.465 2.586 2.049z" class="cls-24" transform="translate(-441.327 -221.912)"/>
                <path id="Path_28666" d="M594.805 191.455s.356-.548 1.049-1.775c.342-.615.769-1.4 1.235-2.394a23.658 23.658 0 0 0 1.387-3.666 15.45 15.45 0 0 0 .566-5.21 22.513 22.513 0 0 0-1.536-6.43 12.177 12.177 0 0 0-1.933-3.395 10.132 10.132 0 0 0-3.42-2.611 21.079 21.079 0 0 0-4.369-1.481c-1.549-.366-3.174-.645-4.866-.886s-3.324-.411-4.873-.609-3.033-.417-4.439-.683a29.967 29.967 0 0 1-7.45-2.293 18.118 18.118 0 0 1-5.179-3.676 20.341 20.341 0 0 1-3.051-4.062 28.335 28.335 0 0 1-1.69-3.47c-.411-1.006-.7-1.847-.923-2.514-.437-1.335-.6-1.97-.606-1.968s.112.645.465 2.01c.179.682.422 1.543.786 2.579a26.456 26.456 0 0 0 1.556 3.594 20.042 20.042 0 0 0 3 4.279 18.321 18.321 0 0 0 5.294 3.946 29.741 29.741 0 0 0 7.629 2.466c1.429.284 2.929.516 4.491.722s3.186.374 4.859.617 3.275.51 4.785.86a20.619 20.619 0 0 1 4.19 1.385 9.354 9.354 0 0 1 3.158 2.351 11.531 11.531 0 0 1 1.848 3.138 22.589 22.589 0 0 1 1.631 6.181 15.374 15.374 0 0 1-.38 5.04 24.922 24.922 0 0 1-1.2 3.664c-.411 1.007-.79 1.813-1.092 2.447-.613 1.264-.922 1.841-.918 1.843" class="cls-24" transform="translate(-376.29 -97.749)"/>
                <path id="Path_28667" d="M155.961 697.872c-.145.053-.97-3.38-2.877-12.347-.232-1.121-.438-2.157-.609-3.11-.085-.476-.162-.931-.223-1.364a8.031 8.031 0 0 1-.1-1.194c0-.039 0-.076.008-.1a.481.481 0 0 1 .019-.074.707.707 0 0 1 .089-.172 1.748 1.748 0 0 1 .317-.335 4.912 4.912 0 0 1 .807-.529 14.152 14.152 0 0 1 1.549-.7c.936-.361 1.629-.582 2.077-.731l.661-.215s-.221.01-.693.07a17.988 17.988 0 0 0-2.189.424 11.607 11.607 0 0 0-1.686.566 5.23 5.23 0 0 0-.971.537 2.441 2.441 0 0 0-.483.454 1.491 1.491 0 0 0-.2.336 1.221 1.221 0 0 0-.069.211 1.728 1.728 0 0 0-.03.2 7.88 7.88 0 0 0 .047 1.356c.046.454.109.923.183 1.41.149.975.342 2.024.576 3.154 1.92 9.029 3.67 12.245 3.8 12.154" class="cls-24" transform="translate(-102.663 -458.497)"/>
                <path id="Path_28668" d="M302.278 714.833a75.51 75.51 0 0 0-4.67 7.839 40.391 40.391 0 0 0-1.866 3.8 7.905 7.905 0 0 0-.7 2.834 3.3 3.3 0 0 0 .371 1.609 2.97 2.97 0 0 0 .271.429s-.055-.153-.132-.481a3.722 3.722 0 0 1-.039-1.517c.213-1.374 1.359-3.335 2.925-6.226a46.794 46.794 0 0 0 3.84-8.291" class="cls-24" transform="translate(-200.145 -484.119)"/>
                <path id="Path_28669" d="M161.371 686.566l1.609.948c.551.321 1.249.73 2.127 1.195a26.843 26.843 0 0 0 3.233 1.459 23.549 23.549 0 0 0 4.577 1.181 31.975 31.975 0 0 0 5.953.328 82.55 82.55 0 0 0 15.62-2.476c3.011-.709 5.769-1.454 8.3-2.078 2.548-.6 4.876-1.169 7-1.588 1.062-.208 2.075-.383 3.034-.479a10.267 10.267 0 0 1 1.383-.056 3.589 3.589 0 0 1 .622.075.948.948 0 0 1 .438.2 3.436 3.436 0 0 1 .346.472c.113.175.22.352.324.529.208.354.4.7.589 1.046.372.683.711 1.33 1.025 1.936 1.251 2.427 2.12 4.185 2.7 5.325l.842 1.671s-.216-.554-.708-1.733-1.257-2.985-2.406-5.472c-.289-.621-.6-1.285-.952-1.988-.176-.351-.36-.713-.56-1.083-.1-.185-.206-.372-.319-.562a3.873 3.873 0 0 0-.41-.588 1.538 1.538 0 0 0-.744-.4 4.115 4.115 0 0 0-.742-.114 10.581 10.581 0 0 0-1.485.018c-1 .075-2.037.229-3.118.418-2.163.381-4.5.916-7.062 1.491-2.565.605-5.313 1.332-8.312 2.039a91.456 91.456 0 0 1-15.437 2.6 33.286 33.286 0 0 1-5.829-.17 24.448 24.448 0 0 1-4.513-.988 29.307 29.307 0 0 1-3.255-1.28c-.9-.411-1.617-.774-2.188-1.056-1.141-.569-1.679-.818-1.679-.818" class="cls-24" transform="translate(-109.467 -463.436)"/>
                <path id="Path_28670" d="M23.039 526.333a8.446 8.446 0 0 0 .311 1.724 11.638 11.638 0 0 0 .82 2.146 10.943 10.943 0 0 0 1.931 2.729c.227.234.473.465.74.692s.557.443.841.663c.575.444 1.181.922 1.814 1.441a45.9 45.9 0 0 1 4.044 3.687 22.961 22.961 0 0 1 2.031 2.409 11.229 11.229 0 0 1 1.594 2.974 20.508 20.508 0 0 1 .72 3.678c.161 1.313.274 2.693.391 4.133s.229 2.832.406 4.175a19.255 19.255 0 0 0 .352 1.98 7.634 7.634 0 0 0 .3.968c.119.3.242.588.369.874a18.54 18.54 0 0 0 3.833 5.68 17.611 17.611 0 0 0 4.56 3.268 21.617 21.617 0 0 0 4.137 1.557 28.516 28.516 0 0 0 5.514.882c1.19.071 1.743.06 1.743.064s-.552-.052-1.728-.211a32.847 32.847 0 0 1-5.4-1.189 22.475 22.475 0 0 1-3.971-1.676 17.553 17.553 0 0 1-4.291-3.255 18.246 18.246 0 0 1-3.574-5.484c-.119-.276-.236-.559-.346-.844a6.75 6.75 0 0 1-.254-.85 18.74 18.74 0 0 1-.322-1.885c-.165-1.307-.271-2.69-.39-4.131s-.235-2.833-.406-4.173a20.732 20.732 0 0 0-.79-3.85 11.877 11.877 0 0 0-1.761-3.194 22.911 22.911 0 0 0-2.152-2.459 42.293 42.293 0 0 0-4.205-3.636c-.657-.5-1.286-.961-1.882-1.385-.3-.215-.588-.409-.848-.613s-.508-.415-.735-.628a11.042 11.042 0 0 1-2-2.533 12.337 12.337 0 0 1-.942-2.048 9.705 9.705 0 0 1-.452-1.68" class="cls-24" transform="translate(-15.629 -356.458)"/>
                <path id="Path_28671" d="M25.6 372.661s.205-.41.546-1.337a17.848 17.848 0 0 0 1.01-4.518 19.027 19.027 0 0 0-.031-3.664 26.271 26.271 0 0 0-.9-4.529 53.869 53.869 0 0 0-1.843-5.287c-.75-1.887-1.616-3.9-2.371-6.138a19.839 19.839 0 0 1-1.233-6.305 9.525 9.525 0 0 1 .113-1.414 10.645 10.645 0 0 1 .316-1.335c.246-.9.463-1.765.636-2.6a22.251 22.251 0 0 0 .513-4.6 17.075 17.075 0 0 0-.39-3.647 18.309 18.309 0 0 0-1.563-4.357c-.448-.88-.7-1.263-.7-1.265s.2.414.562 1.326a20.817 20.817 0 0 1 1.234 4.384 17.811 17.811 0 0 1 .209 3.547 23.172 23.172 0 0 1-.645 4.438c-.19.81-.422 1.654-.683 2.538a11.207 11.207 0 0 0-.362 1.424 10.243 10.243 0 0 0-.146 1.546 19.966 19.966 0 0 0 1.242 6.622c.773 2.286 1.66 4.311 2.429 6.178s1.417 3.582 1.917 5.174a23.34 23.34 0 0 1 1.225 7.934 20.134 20.134 0 0 1-.679 4.5c-.255.948-.411 1.38-.406 1.381" class="cls-24" transform="translate(-13.368 -217.847)"/>
                <path id="Path_28672" d="M366.162 220.448c-3.517-12.163-10.364-23.457-18.619-33.106a56.764 56.764 0 0 1-6.837 5.484s6.862 4.734 17.154 21.732c1.165 1.924 2.172 3.783 3.052 5.573a38.842 38.842 0 0 0 5.249.317" class="cls-44" transform="translate(-231.121 -126.877)"/>
                <path id="Path_28673" d="M395.046 181.063c-3.216-18.289-17.154-38.73-17.154-38.73-1.357 4.425-4.29 8.477-7.341 11.762a89.826 89.826 0 0 1 19.317 35.7 40.537 40.537 0 0 0 5.731-.965 37.988 37.988 0 0 0-.554-7.765" class="cls-44" transform="translate(-251.366 -96.395)"/>
                <path id="Path_28674" d="M352.616 153.438l.453-6.688.718 6.613 6.06.645-5.947.493-.6 6.005-.529-5.93-4.713-.341z" class="cls-24" transform="translate(-236.106 -99.386)"/>
                <path id="Path_28675" d="M362.038 711.333a12.847 12.847 0 0 0 .369 1.678 12.5 12.5 0 0 0 .789 2.1 7.5 7.5 0 0 0 .792 1.287 4.029 4.029 0 0 0 .6.633c.227.193.467.376.719.564 2.021 1.476 4.7 3.2 8.065 5.3q2.523 1.574 5.572 3.42l3.191 1.918 3.673 2.176 1.367-.585 1.173-.513 2.414-1.077c5.974-2.7 10.953-5.139 15.082-7.23s7.4-3.846 9.939-5.239c5.07-2.792 7.205-4.119 7.208-4.114l-7.427 3.694c-2.589 1.286-5.912 2.932-10.073 4.943s-9.157 4.389-15.117 7.082l-2.407 1.077-2.094.919-6.492-3.792-5.627-3.312c-3.4-2.021-6.144-3.646-8.2-5.015-.255-.173-.5-.343-.722-.515a3.678 3.678 0 0 1-.575-.553 7.425 7.425 0 0 1-.822-1.193 13.276 13.276 0 0 1-.9-2.018 15.756 15.756 0 0 1-.492-1.639" class="cls-24" transform="translate(-245.591 -481.748)"/>
                <path id="Path_28676" d="M347.779 629.621s-.448-1.592-1.69-5.186c-.623-1.8-1.445-4.094-2.535-6.934s-2.439-6.225-4.218-10.156q-.553-1.216-1.1-2.344l-.547-1.105-.274-.536-.055-.106-.006-.007 3.715-2 3.462-1.886c2.1-1.152 3.775-2.094 5.082-2.839 2.615-1.49 3.742-2.188 3.742-2.188s-1.216.53-3.927 1.833c-1.356.652-3.086 1.5-5.224 2.566l-3.52 1.775-4.565 2.346.478.928.266.532.533 1.1q.536 1.121 1.084 2.329c1.768 3.906 3.164 7.263 4.338 10.061l2.833 6.8c1.462 3.507 2.13 5.018 2.131 5.017" class="cls-24" transform="translate(-228.008 -402.511)"/>
                <path id="Path_28677" d="M453.039 126.377s.555-.148 1.76-.4 3.059-.6 5.664-.88c1.3-.135 2.792-.247 4.476-.271a37.671 37.671 0 0 1 5.617.321 28.22 28.22 0 0 1 3.195.621q.412.106.829.229c.266.078.553.176.832.272.563.195 1.135.407 1.7.645a11.547 11.547 0 0 1 1.66.825 3.292 3.292 0 0 1 .354.255.952.952 0 0 1 .22.241 1.672 1.672 0 0 1 .069.752 10.527 10.527 0 0 1-.4 1.963q-.145.5-.317 1.013l-.178.51c-.032.093-.193.525-.326.859l.626.43.317.226.635.467c.423.317.844.646 1.255.992a10.01 10.01 0 0 1 1.331 1.3 1.977 1.977 0 0 1 .21.317.5.5 0 0 1 .043.12 1.363 1.363 0 0 1 .024.17 4.3 4.3 0 0 1-.04.84 15.393 15.393 0 0 1-.351 1.746q-.109.43-.23.851l-.123.418-.1.308-.135.412.466.36.244.2.436.37c.285.249.559.5.816.761a7.5 7.5 0 0 1 .695.795 1.575 1.575 0 0 1 .36.761 3.579 3.579 0 0 1-.1.936c-.068.325-.158.65-.256.968s-.206.632-.32.94l-.174.456-.1.24-.178.418.188.25.133.192.17.264c.109.178.211.359.305.54a7.113 7.113 0 0 1 .463 1.1 4.91 4.91 0 0 1 .226 1.1c.008.088.01.188.013.263a.787.787 0 0 1-.034.2 3.224 3.224 0 0 1-.188.483 16.308 16.308 0 0 1-1.082 1.846c-.381.578-.761 1.123-1.13 1.639-1.483 2.061-2.754 3.684-3.743 4.958l-2.9 3.673s1.008-1.041 3.132-3.478c1.057-1.223 2.4-2.788 3.966-4.812.39-.507.792-1.044 1.2-1.622a16.463 16.463 0 0 0 1.184-1.9 3.973 3.973 0 0 0 .244-.587 1.469 1.469 0 0 0 .07-.38c0-.122 0-.219-.007-.329a5.589 5.589 0 0 0-.229-1.278 7.78 7.78 0 0 0-.487-1.235q-.148-.3-.323-.6c-.058-.1-.118-.2-.181-.294l-.066-.1.031-.027.091-.216.189-.47c.123-.317.241-.642.351-.977s.211-.68.292-1.042a4.338 4.338 0 0 0 .127-1.185 1.689 1.689 0 0 0-.062-.36 2.1 2.1 0 0 0-.126-.322 3.646 3.646 0 0 0-.325-.536 8.119 8.119 0 0 0-.771-.9c-.274-.282-.56-.552-.857-.816q-.222-.2-.453-.391l-.214-.176-.006-.006v-.006l.035-.112.13-.43q.127-.433.243-.878a16.137 16.137 0 0 0 .381-1.856 5.2 5.2 0 0 0 .047-1.039 2.184 2.184 0 0 0-.043-.3 1.479 1.479 0 0 0-.116-.329 2.82 2.82 0 0 0-.314-.486 10.728 10.728 0 0 0-1.465-1.437c-.43-.361-.864-.7-1.3-1.025l-.651-.477-.326-.231-.021-.015c-.057.155.147-.4.248-.712.116-.352.225-.7.325-1.056a11.19 11.19 0 0 0 .422-2.155 3.819 3.819 0 0 0 0-.585 1.729 1.729 0 0 0-.181-.664 1.788 1.788 0 0 0-.441-.506 4.21 4.21 0 0 0-.453-.322 12.233 12.233 0 0 0-1.806-.876c-.6-.24-1.185-.45-1.766-.641-.292-.1-.573-.187-.873-.271s-.577-.154-.861-.223a27.872 27.872 0 0 0-3.3-.575 35.9 35.9 0 0 0-5.731-.174 45.026 45.026 0 0 0-4.513.442 47.038 47.038 0 0 0-5.641 1.187c-1.188.331-1.728.533-1.728.532" class="cls-24" transform="translate(-307.323 -84.096)"/>
                <path id="Path_28678" d="M147.374 328.877a6.232 6.232 0 0 1 .281-.707 4.106 4.106 0 0 1 .5-.828 1.522 1.522 0 0 1 .456-.4.758.758 0 0 1 .3-.089 2.135 2.135 0 0 1 .364.028c1.055.165 2.4.513 4.048.943l.633.169.1.029a.315.315 0 0 1 .06.022l.016.066.032.118.407 1.416.446 1.537.406 1.357.229.761.117.39.06.2c.02.068.034.094.056.157l.369-1.413c.123-.459.265-.894.414-1.288a4.868 4.868 0 0 1 .624-1.205.573.573 0 0 1 .145-.136.628.628 0 0 1 .177-.006 3.592 3.592 0 0 1 .689.139 11.717 11.717 0 0 1 1.489.557 14.683 14.683 0 0 1 1.5.767 7.425 7.425 0 0 1 .7.468 2.88 2.88 0 0 1 .3.256 1.018 1.018 0 0 1 .1.117.748.748 0 0 1 .064.125 5.456 5.456 0 0 1 .248.823c.07.3.132.607.189.921s.109.635.159.96l.072.492.106.792c.088.689.16 1.424.237 2.112l.7-1.207c.229-.389.451-.731.685-1.067a9.472 9.472 0 0 1 .707-.909 3.425 3.425 0 0 1 .37-.361.711.711 0 0 1 .273-.161 2.684 2.684 0 0 1 .476.012c.175.016.352.041.528.07a12.308 12.308 0 0 1 2.028.518 6.88 6.88 0 0 1 .9.383 2.263 2.263 0 0 1 .669.487 2.71 2.71 0 0 1 .218.351c.073.134.143.274.21.414.135.28.262.564.384.844.243.562.468 1.113.681 1.647l.605 1.551.279.736.353.96c.191-.03.38-.063.562-.083l.337-.036c.208-.019.412-.032.612-.039a7.126 7.126 0 0 1 1.143.046 3.135 3.135 0 0 1 .972.269 1.454 1.454 0 0 1 .365.253 3.725 3.725 0 0 1 .312.343 15 15 0 0 1 .985 1.415c.278.442.515.842.722 1.2.822 1.419 1.174 2.083 1.177 2.081s-.268-.7-.98-2.187c-.179-.371-.389-.79-.638-1.255a14.12 14.12 0 0 0-.921-1.517 4.025 4.025 0 0 0-.33-.4 1.909 1.909 0 0 0-.46-.359 3.575 3.575 0 0 0-1.119-.376 7.5 7.5 0 0 0-1.234-.108q-.32 0-.651.014l-.412.026c-.013-.035-.022-.075-.032-.11l-.119-.359-.255-.749c-.175-.509-.361-1.035-.56-1.581s-.411-1.108-.647-1.688c-.117-.29-.241-.585-.378-.885-.069-.15-.14-.3-.219-.455a3.289 3.289 0 0 0-.3-.487 3.018 3.018 0 0 0-.924-.725 7.64 7.64 0 0 0-1.006-.45 12.812 12.812 0 0 0-2.177-.586c-.192-.034-.388-.063-.591-.084a3.4 3.4 0 0 0-.668-.016 1.492 1.492 0 0 0-.753.356 4.317 4.317 0 0 0-.479.458 10.321 10.321 0 0 0-.782.992l-.1-.716c-.051-.332-.106-.661-.166-.987s-.125-.648-.2-.97a6.207 6.207 0 0 0-.306-.98 1.6 1.6 0 0 0-.155-.284 1.843 1.843 0 0 0-.2-.236 3.6 3.6 0 0 0-.4-.341 8.092 8.092 0 0 0-.8-.521 15.161 15.161 0 0 0-1.6-.8 12.308 12.308 0 0 0-1.616-.574 4.316 4.316 0 0 0-.873-.154 1.209 1.209 0 0 0-.589.1 1.312 1.312 0 0 0-.429.371 5.443 5.443 0 0 0-.726 1.452c-.03.1-.043.163-.068.274 0 .028-.008.015-.012 0l-.014-.033-.03-.072-.033-.082-.017-.045-.046-.137-.5-1.52-.465-1.4-.158-.482a1.329 1.329 0 0 0-.26-.073l-.226-.052-.643-.139a37.029 37.029 0 0 0-4.143-.7 2.231 2.231 0 0 0-.42 0 .986.986 0 0 0-.385.145 1.7 1.7 0 0 0-.482.49 3.969 3.969 0 0 0-.435.9 5.175 5.175 0 0 0-.206.738" class="cls-24" transform="translate(-99.972 -221.185)"/>
                <g id="Group_1287" style="mix-blend-mode:overlay;isolation:isolate" opacity="0.6">
                    <g id="Group_1286">
                        <g id="Group_1285" clip-path="url(#clip-path-25)">
                            <g id="Group_1284">
                                <g id="Group_1283" clip-path="url(#clip-path-26)">
                                    <path id="Rectangle_123" fill="url(#radial-gradient)" d="M0 0H241.243V261.252H0z" transform="translate(-.365)"/>
                                </g>
                            </g>
                        </g>
                    </g>
                </g>
            </g>
        </g>
    </g>
</svg>
