<svg xmlns="http://www.w3.org/2000/svg" width="20" height="20" viewBox="0 0 20 20">
    <defs>
        <style>
            .cls-2{fill:#6f6d79}
        </style>
    </defs>
    <g id="_002-dumbbell" transform="translate(0 -16)">
        <path id="Path_28403" d="M13.555 18.5a6.1 6.1 0 0 0-1.155.11A4.639 4.639 0 0 0 8.281 16a4.857 4.857 0 0 0-4.687 5 4.95 4.95 0 0 0 3.53 4.847 7.076 7.076 0 0 0 1.46 3.9H5.9v-2.5H2.383V28.5H0v6.25h2.383V36H5.9v-2.5h5.859V36h3.516v-1.25h2.344v-4.038A7.042 7.042 0 0 0 20 25.375a6.678 6.678 0 0 0-6.445-6.875zm-12.383 15v-3.75h1.211v3.75zm3.555 1.25H3.555V28.5h1.172zm1.173-2.5V31h5.859v1.25zm8.2 2.5h-1.17V28.5h1.17zm2.344-1.25h-1.171v-3.75h1.172zm1.172-4.534V28.5h-2.343v-1.25h-3.515v2.5H10.24a5.727 5.727 0 0 1-1.959-4.375v-.586l-.507-.077A3.692 3.692 0 0 1 4.766 21a3.643 3.643 0 0 1 3.516-3.75 3.513 3.513 0 0 1 3.25 2.316l.2.5a6.2 6.2 0 0 1 1.829-.319 5.464 5.464 0 0 1 5.273 5.625 5.807 5.807 0 0 1-1.217 3.594z" class="cls-2"/>
        <path id="Path_28401" d="M154.344 76a2.51 2.51 0 0 0-.129 5l.406.024.163-.4a5.623 5.623 0 0 1 1.6-2.19l.321-.266-.122-.414A2.357 2.357 0 0 0 154.344 76zm-.427 3.665a1.252 1.252 0 0 1-.745-1.165 1.214 1.214 0 0 1 1.172-1.25 1.147 1.147 0 0 1 .954.523 6.884 6.884 0 0 0-1.381 1.892z" class="cls-2" transform="translate(-146.063 -57.5)"/>
    </g>
</svg>
