<svg xmlns="http://www.w3.org/2000/svg" width="76.562" height="80" viewBox="0 0 76.562 80">
    <defs>
        <style>
            .cls-2{fill:#3c58a0}.cls-3{fill:#2a428c}.cls-4{fill:#bbea49}.cls-5{fill:#9fd332}.cls-6{fill:#f9ba8f}.cls-8{fill:#fcad6d}.cls-9{fill:#dae2fe}.cls-11{fill:#4f71b6}.cls-13{fill:#73c3f9}
        </style>
    </defs>
    <g id="_001-fitness" transform="translate(-11.001)">
        <path id="Path_28828" fill="#4fabf7" d="M49.282 22a38.283 38.283 0 0 0-20.361 70.7l19.809 5.857c.184 0 .368.007.552.007a38.281 38.281 0 0 0 0-76.562z" transform="translate(0 -18.564)"/>
        <path id="Path_28829" d="M177.217 6.106a14.428 14.428 0 0 1-3.974-2.832c-3.47-3.674-12.075-5.269-16.161.7a2.579 2.579 0 0 1-1.05.875c-2.038.944-7 4.374-2.071 12.988a28.2 28.2 0 0 1 2.406 5.218 6.1 6.1 0 0 0 1.777-3.375 6.935 6.935 0 0 0-.544-2.715c-.293-.8-.487-1.335-.1-1.863a1.53 1.53 0 0 1 2.129-.164 1.283 1.283 0 0 1 .594 1.141l-.023.8a1.052 1.052 0 0 0 2.1.115c.3-3.813.876-6.46 1.535-7.083.521-.492 1.734-.338 3.268-.144a18.389 18.389 0 0 0 6.381-.009l-.045.193.36-.5a19.094 19.094 0 0 0 3.5-1.762.912.912 0 0 0-.082-1.583z" class="cls-2" transform="translate(-118.838)"/>
        <path id="Path_28830" d="M156.032 26.284c-2.038.944-7 4.374-2.071 12.987a28.2 28.2 0 0 1 2.406 5.218 6.1 6.1 0 0 0 1.777-3.375 6.935 6.935 0 0 0-.544-2.714c-.293-.8-.487-1.335-.1-1.863a1.53 1.53 0 0 1 2.129-.164 1.283 1.283 0 0 1 .594 1.141l-.023.8a1.052 1.052 0 0 0 2.1.115c.284-3.584.808-6.138 1.417-6.948a6.607 6.607 0 0 1-6.637-6.07 2.581 2.581 0 0 1-1.048.873z" class="cls-3" transform="translate(-118.838 -21.44)"/>
        <path id="Path_28831" d="M123.447 178.551c-.191-.477-.438-1.021-.695-1.6v.025c-1.784-2.123-5.076-3.149-9.6-4.557a8.057 8.057 0 0 1-3.931-2.307 3.322 3.322 0 0 1-.717-1.4c-3.234 3.132-11.217 12.318-8.01 24.123a92.376 92.376 0 0 1 2.85 23.364 38.063 38.063 0 0 0 13.981 5.542l4.558.541q1.131.066 2.279.068h.092c.433-3.022 1.991-13.7 3.542-21.742 1.834-9.46-4.349-22.057-4.349-22.057z" class="cls-2" transform="translate(-74.888 -142.352)"/>
        <path id="Path_28832" d="M120.145 188.412c-6.463-3.132-4.164-10.447-3.548-12.093a.616.616 0 0 0-.078-.578 1.632 1.632 0 0 1-.109-1.72.634.634 0 0 0-.018-.569c-.994-.336-2.072-.672-3.233-1.034a8.057 8.057 0 0 1-3.931-2.307 3.323 3.323 0 0 1-.717-1.4c-3.234 3.132-11.217 12.318-8.01 24.122a92.377 92.377 0 0 1 2.85 23.364 38.063 38.063 0 0 0 13.981 5.542l4.558.541q1.131.066 2.279.068h.092c.433-3.023 1.991-13.7 3.542-21.742a20.288 20.288 0 0 0 .335-4.106c-3.173-2.249-2.158-5.26-7.993-8.088z" class="cls-3" transform="translate(-74.888 -142.352)"/>
        <path id="Path_28833" d="M169.639 311.462a6.672 6.672 0 0 0-1.976-1.35 9.263 9.263 0 0 1-3.952-3.357 32.049 32.049 0 0 0 2.388 11.852c2.87 6.566 6.532 13.355 5.182 19.606a38.355 38.355 0 0 0 4.572.543 18.134 18.134 0 0 0-.6-11.881c-2.243-5.695-4.688-10.675-5.614-15.413z" class="cls-4" transform="translate(-128.849 -258.825)"/>
        <path id="Path_28834" d="M168.169 323.244c.976-3.62 4.614-2.382 4.615-2.382a51.154 51.154 0 0 1-3.145-9.4 6.672 6.672 0 0 0-1.976-1.35 9.263 9.263 0 0 1-3.952-3.357 32.049 32.049 0 0 0 2.388 11.852c.671 1.537 1.386 3.086 2.07 4.637z" class="cls-5" transform="translate(-128.848 -258.825)"/>
        <path id="Path_28835" d="M191.868 66.521c-1.617-2.7-.433-6.583-.433-6.583-4.684 1.165-8.842-.912-10.119.294-1 .947-1.454 5.346-1.6 7.192a.851.851 0 0 1-.782.8.826.826 0 0 1-.87-.849l.023-.808a1.5 1.5 0 0 0-.7-1.333 1.746 1.746 0 0 0-2.428.224c-.852 1.162.668 2.335.6 4.705-.042 1.457-1.607 3.212-2.807 4.348a.581.581 0 0 1 .241.237 5.006 5.006 0 0 0 2.633 3.07c2.032.977 5.275 2.873 6.649 3.431a2.7 2.7 0 0 1 .853.592 5.647 5.647 0 0 1-.193-1.732c.3-4.187 5.039 0 6.568-1.075 2.325-1.628.52-7 1.743-7.293 2.49-.598 2.239-2.519.622-5.22z" class="cls-6" transform="translate(-136.472 -50.49)"/>
        <path id="Path_28836" fill="#ffaa7b" d="M178.061 94.419l.023-.808a1.5 1.5 0 0 0-.7-1.333 1.746 1.746 0 0 0-2.428.224c-.852 1.162.667 2.335.6 4.705-.042 1.457-1.607 3.212-2.807 4.348a.581.581 0 0 1 .241.238 5.006 5.006 0 0 0 2.633 3.07c2.032.977 5.275 2.873 6.649 3.431a2.7 2.7 0 0 1 .853.592 5.648 5.648 0 0 1-.193-1.732c.151-2.094 1.411-2.095 2.825-1.705a10.724 10.724 0 0 1-6.823-10.18.827.827 0 0 1-.873-.85z" transform="translate(-136.471 -77.539)"/>
        <path id="Path_28837" d="M168.818 161.228a3.391 3.391 0 0 0-1.839-2.241c-1.368-.555-4.591-2.442-6.64-3.427a4.871 4.871 0 0 1-2.549-2.98.762.762 0 0 0-1.2-.211l-1.8 1.69a.765.765 0 0 0-.192.824s.469 2.4 4.335 3.6c4.8 1.5 8.254 2.522 10.031 4.757a.125.125 0 0 0 .219-.1z" class="cls-4" transform="translate(-121.12 -128.386)"/>
        <g id="Group_1362" transform="translate(46.933 41.576)">
            <path id="Path_28838" d="M269.456 267.168c-.061 0-.121.009-.182.012-.181.009-.362.014-.545.014a11.354 11.354 0 0 1-4.9-1.108 5.35 5.35 0 0 1-.827 1.173c-1.547 1.547-5.568 4.1-6.854 8.012a.258.258 0 0 1-.475.039 16.43 16.43 0 0 0-2.844-3.835c-1.183 3.271-4.406 9.821-11.86 12.731a19.02 19.02 0 0 0 7.542 3.159s5.419 4.088 9.835 2.813a1.958 1.958 0 0 1 .916-.046 2.831 2.831 0 0 0 2.205-.377 2.684 2.684 0 0 0 1.035-1.863 1.852 1.852 0 0 1 .259-.758 53.806 53.806 0 0 0 7.007-19.987c-.1.01-.2.016-.306.022z" class="cls-6" transform="translate(-240.964 -266.085)"/>
            <path id="Path_28839" d="M252.919 333.61l-2.124-5.845a19.963 19.963 0 0 1-9.832 8.482 19.02 19.02 0 0 0 7.542 3.159c-.979-4.714 4.414-5.796 4.414-5.796z" class="cls-8" transform="translate(-240.964 -318.128)"/>
        </g>
        <path id="Path_28840" d="M302.858 266.086a5.35 5.35 0 0 1-.827 1.173c-1.547 1.547-5.568 4.1-6.855 8.012a.258.258 0 0 1-.475.039 16.431 16.431 0 0 0-2.844-3.835 23.5 23.5 0 0 1-4.632 7.745c.663.353 1.467 1.387 2.467 1.689 7.5 2.266 7.616 1.741 9.061.3s6.879-9.375 6.879-14.21a11.329 11.329 0 0 1-2.774-.913z" class="cls-8" transform="translate(-233.064 -224.51)"/>
        <path id="Path_28841" d="M242.379 292.131c-1.136 3.209-4.38 9.977-12.136 12.728a19.462 19.462 0 0 0 1.8 1.409c7.605-2.863 10.755-9.613 11.835-12.723-.443-.458-.94-.933-1.499-1.414z" class="cls-9" transform="translate(-184.985 -246.485)"/>
        <path id="Path_28842" fill="#aab9f2" d="M237.559 343.073a18.569 18.569 0 0 1-7.316 4.768 19.457 19.457 0 0 0 1.8 1.409 18.627 18.627 0 0 0 7.286-4.98 7.774 7.774 0 0 1-1.77-1.197z" transform="translate(-184.985 -289.468)"/>
        <path id="Path_28843" d="M171.366 223.964a2.363 2.363 0 0 1-1.131-1.288l-.487-1.352a9.223 9.223 0 1 0-12.427 11.552 6.6 6.6 0 0 1 2.929 2.54 20.648 20.648 0 0 0 3.982 4.667c7.758-2.774 10.986-9.572 12.106-12.757a25.632 25.632 0 0 0-4.972-3.362z" class="cls-11" transform="translate(-118.838 -181.588)"/>
        <path id="Path_28844" d="M164.1 227.728c-6.463-3.132-4.164-10.447-3.548-12.093a.615.615 0 0 0 .028-.326 9.228 9.228 0 0 0-3.256 17.645 6.6 6.6 0 0 1 2.929 2.54 20.648 20.648 0 0 0 3.982 4.667 18.571 18.571 0 0 0 7.3-4.783c-2.518-2.195-1.977-5.002-7.435-7.65z" class="cls-2" transform="translate(-118.838 -181.668)"/>
        <circle id="Ellipse_609" cx="10.008" cy="10.008" r="10.008" fill="#6289cc" transform="rotate(-84.147 54.277 -15.042)"/>
        <path id="Path_28845" d="M370.363 167.915a2.023 2.023 0 0 1-.277-1.058.521.521 0 0 0-.477-.514c-3.323-.287-3.015-3.34-2.867-4.179a.521.521 0 0 0-.094-.4l-3.372-4.593a.52.52 0 0 0-.367-.207 3.091 3.091 0 0 1-2.994-3.9.525.525 0 0 0-.433-.593 1.725 1.725 0 0 1-1.079-.589 10.006 10.006 0 0 0 11.96 16.035z" class="cls-11" transform="translate(-289.918 -128.149)"/>
        <g id="Group_1363" transform="translate(63.276 20.153)">
            <path id="Path_28846" d="M356.983 151.821a11.422 11.422 0 1 1 11.422-11.421 11.435 11.435 0 0 1-11.422 11.421zm0-20.017a8.595 8.595 0 1 0 8.595 8.595 8.6 8.6 0 0 0-8.595-8.599z" class="cls-11" transform="translate(-345.561 -128.977)"/>
        </g>
        <path id="Path_28847" d="M364.042 160.887h-.01a1.724 1.724 0 0 1-1.578-1.834.513.513 0 0 0-.169-.376 8.59 8.59 0 1 1-10.142-13.855.535.535 0 0 0-.292-.158 1.812 1.812 0 0 1-1.5-2.034 11.415 11.415 0 1 0 13.693 18.259z" class="cls-2" transform="translate(-282.286 -120.342)"/>
        <circle id="Ellipse_610" cx="3.111" cy="3.111" r="3.111" class="cls-9" transform="rotate(-67.794 60.074 -35.939)"/>
        <path id="Path_28848" d="M11 107.83a38.168 38.168 0 0 0 12.043 27.87c1.218-3.36-.2-8.646-2.317-16.1-4.072-14.346 3.858-25.407 7.393-32.52 2.115-4.255-.677-7.115-3.263-8.727A38.2 38.2 0 0 0 11 107.83z" class="cls-13" transform="translate(0 -66.111)"/>
        <path id="Path_28849" d="M158.934 158.484c1.364.425 2.619.813 3.757 1.2a1.564 1.564 0 0 1 .674-2.546c-1.065-.575-2.152-1.158-3.025-1.578a4.871 4.871 0 0 1-2.549-2.98.762.762 0 0 0-1.2-.211l-1.8 1.69a.765.765 0 0 0-.192.824s.468 2.395 4.335 3.601z" class="cls-5" transform="translate(-121.12 -128.386)"/>
        <path id="Path_28850" d="M321.385 35.753c.132 1.519 0 3.221-.979 4.2-3.746 3.746-1.514 10.365 2.3 10.365 3.188 0 7.855-5.157 15.431-2.919a38.346 38.346 0 0 0-16.752-11.646z" class="cls-13" transform="translate(-259.436 -30.167)"/>
    </g>
</svg>
