<svg xmlns="http://www.w3.org/2000/svg" width="16" height="16" viewBox="0 0 16 16">
    <defs>
        <style>
            .cls-1{fill:#ff4715}
        </style>
    </defs>
    <g id="_001-calendar" transform="translate(-5.411)">
        <g id="Group_1129" transform="translate(5.411)">
            <path id="Path_28331" d="M119.074 258.6a.367.367 0 0 0-.371-.363h-1.3a.367.367 0 0 0-.371.363v1.267a.367.367 0 0 0 .371.363h1.3a.367.367 0 0 0 .371-.363V258.6z" class="cls-1" transform="translate(-113.293 -249.778)"/>
            <path id="Path_28332" d="M215.708 258.6a.367.367 0 0 0-.371-.363h-1.3a.367.367 0 0 0-.371.363v1.267a.367.367 0 0 0 .371.363h1.3a.367.367 0 0 0 .371-.363z" class="cls-1" transform="translate(-206.689 -249.778)"/>
            <path id="Path_28333" d="M312.337 258.6a.367.367 0 0 0-.371-.363h-1.3a.367.367 0 0 0-.371.363v1.267a.367.367 0 0 0 .371.363h1.3a.367.367 0 0 0 .371-.363z" class="cls-1" transform="translate(-300.078 -249.778)"/>
            <path id="Path_28334" d="M119.074 355.238a.367.367 0 0 0-.371-.363h-1.3a.367.367 0 0 0-.371.363v1.262a.367.367 0 0 0 .371.363h1.3a.367.367 0 0 0 .371-.363v-1.267z" class="cls-1" transform="translate(-113.293 -343.243)"/>
            <path id="Path_28335" d="M215.708 355.238a.367.367 0 0 0-.371-.363h-1.3a.367.367 0 0 0-.371.363v1.262a.367.367 0 0 0 .371.363h1.3a.367.367 0 0 0 .371-.363z" class="cls-1" transform="translate(-206.689 -343.243)"/>
            <path id="Path_28336" d="M312.337 355.238a.367.367 0 0 0-.371-.363h-1.3a.367.367 0 0 0-.371.363v1.262a.367.367 0 0 0 .371.363h1.3a.367.367 0 0 0 .371-.363v-1.267z" class="cls-1" transform="translate(-300.078 -343.243)"/>
            <path id="Path_28337" d="M19.987 54.149v1.935a1.6 1.6 0 0 1-1.62 1.58h-1.023a1.608 1.608 0 0 1-1.63-1.58v-1.942h-4.606v1.942a1.607 1.607 0 0 1-1.63 1.58H8.455a1.6 1.6 0 0 1-1.62-1.58v-1.935a1.456 1.456 0 0 0-1.424 1.433v11.343a1.458 1.458 0 0 0 1.467 1.443h13.066a1.459 1.459 0 0 0 1.467-1.443V55.582a1.456 1.456 0 0 0-1.424-1.433zm-.475 12.069a.627.627 0 0 1-.634.62H7.916a.627.627 0 0 1-.634-.62v-5.859a.627.627 0 0 1 .634-.62h10.962a.627.627 0 0 1 .634.62v5.859z" class="cls-1" transform="translate(-5.411 -52.367)"/>
            <path id="Path_28338" d="M80.106 4.259h1.011a.549.549 0 0 0 .556-.543V.543A.549.549 0 0 0 81.117 0h-1.011a.549.549 0 0 0-.556.543v3.173a.549.549 0 0 0 .556.543z" class="cls-1" transform="translate(-77.065)"/>
            <path id="Path_28339" d="M345.014 4.259h1.011a.549.549 0 0 0 .555-.543V.543a.549.549 0 0 0-.555-.543h-1.011a.55.55 0 0 0-.556.543v3.173a.549.549 0 0 0 .556.543z" class="cls-1" transform="translate(-333.093)"/>
        </g>
    </g>
</svg>
