<svg xmlns="http://www.w3.org/2000/svg" width="24" height="24" viewBox="0 0 24 24">
    <g>
        <path fill="#262331" d="M16.266 19a7.316 7.316 0 0 0-1.385.132A5.567 5.567 0 0 0 9.937 16a5.828 5.828 0 0 0-5.625 6 5.94 5.94 0 0 0 4.236 5.816A8.491 8.491 0 0 0 10.3 32.5H7.078v-3H2.859V31H0v7.5h2.859V40h4.219v-3h7.031v3h4.219v-1.5h2.813v-4.846A8.45 8.45 0 0 0 24 27.25 8.014 8.014 0 0 0 16.266 19zM1.406 37v-4.5h1.453V37zm4.266 1.5H4.266V31h1.406zm1.406-3V34h7.031v1.5zm9.844 3h-1.406V31h1.406zm2.812-1.5h-1.406v-4.5h1.406zm1.406-5.441V31h-2.812v-1.5h-4.219v3h-1.821a6.873 6.873 0 0 1-2.351-5.25v-.7l-.609-.092A4.431 4.431 0 0 1 5.719 22a4.371 4.371 0 0 1 4.219-4.5 4.215 4.215 0 0 1 3.9 2.779l.234.6a7.436 7.436 0 0 1 2.194-.383 6.557 6.557 0 0 1 6.328 6.75 6.968 6.968 0 0 1-1.453 4.313z" transform="translate(0 -16)"/>
        <path fill="#ff4715" d="M154.813 76a3.011 3.011 0 0 0-.155 6l.487.028.2-.477a6.748 6.748 0 0 1 1.918-2.628l.385-.32-.146-.5A2.828 2.828 0 0 0 154.813 76zm-.513 4.4a1.5 1.5 0 0 1-.894-1.4 1.457 1.457 0 0 1 1.406-1.5 1.376 1.376 0 0 1 1.145.627A8.26 8.26 0 0 0 154.3 80.4z" transform="translate(0 -16) translate(-144.875 -57)"/>
    </g>
</svg>
