<svg xmlns="http://www.w3.org/2000/svg" width="20" height="20" viewBox="0 0 20 20">
    <path d="M8.542 19.75H.625a.625.625 0 1 1 0-1.25h7.917a.625.625 0 1 1 0 1.25z" transform="translate(0 -3.083)"/>
    <path d="M10.417 20H2.292A2.294 2.294 0 0 1 0 17.708V2.292A2.294 2.294 0 0 1 2.292 0h8.958a2.294 2.294 0 0 1 2.292 2.292.625.625 0 1 1-1.25 0A1.043 1.043 0 0 0 11.25 1.25H2.292A1.043 1.043 0 0 0 1.25 2.292v15.416a1.043 1.043 0 0 0 1.042 1.042h8.125a.625.625 0 1 1 0 1.25z"/>
    <path d="M19.278 18H13.6a1.85 1.85 0 0 1-1.847-1.847v-6.3A1.85 1.85 0 0 1 13.6 8h5.68a1.85 1.85 0 0 1 1.847 1.847v6.3A1.85 1.85 0 0 1 19.278 18zM13.6 9.25a.6.6 0 0 0-.6.6v6.305a.6.6 0 0 0 .6.6h5.68a.6.6 0 0 0 .6-.6v-6.3a.6.6 0 0 0-.6-.6z" transform="translate(-1.958 -1.333)"/>
    <path d="M19.308 8.583a.625.625 0 0 1-.621-.562l-.259-2.583a.207.207 0 0 0-.207-.187h-2.658a.208.208 0 0 0-.207.188L15.1 8.021a.625.625 0 1 1-1.247-.121l.259-2.583A1.452 1.452 0 0 1 15.563 4h2.657a1.453 1.453 0 0 1 1.451 1.313L19.93 7.9a.625.625 0 0 1-.559.684.528.528 0 0 1-.063-.001z" transform="translate(-2.308 -.667)"/>
    <path d="M18.221 23.083h-2.658a1.453 1.453 0 0 1-1.451-1.313l-.259-2.582a.625.625 0 0 1 1.243-.125l.259 2.583a.208.208 0 0 0 .207.188h2.657a.208.208 0 0 0 .208-.187l.259-2.583a.625.625 0 0 1 1.243.125l-.259 2.583a1.453 1.453 0 0 1-1.449 1.311z" transform="translate(-2.308 -3.083)"/>
    <path d="M23.125 10a.625.625 0 0 0-.625.625v1.667a.625.625 0 0 0 1.25 0v-1.667a.625.625 0 0 0-.625-.625z" transform="translate(-3.75 -1.667)"/>
    <path d="M23.125 14.5a.625.625 0 0 0-.625.625v1.667a.625.625 0 0 0 1.25 0v-1.667a.625.625 0 0 0-.625-.625z" transform="translate(-3.75 -2.417)"/>
</svg>
