<svg xmlns="http://www.w3.org/2000/svg" width="22" height="20" viewBox="0 0 22 20">
    <g>
        <g>
            <g>
                <path fill="#ff4715" d="M157.515 24.05h-5.088l1.175-1.175a.909.909 0 0 0-1.286-1.286l-2.727 2.727c-.021.021-.041.043-.06.067l-.024.032-.029.039c-.009.013-.016.026-.024.04l-.022.037-.02.041-.018.039-.015.041-.015.043-.011.041-.011.045-.007.048c-.002.016 0 .027-.006.04v.178c0 .014 0 .027.006.04s0 .032.007.048.007.03.011.045.006.027.011.041l.015.043.015.041.018.04.02.041.022.037c.008.012.015.027.024.04l.029.039.024.032.06.067 2.727 2.727a.909.909 0 1 0 1.286-1.286l-1.175-1.175h5.073a5.45 5.45 0 0 1 5.454 5.455 4.933 4.933 0 0 1-1.454 3.5.909.909 0 1 0 1.286 1.285 6.751 6.751 0 0 0 1.986-4.781 7.268 7.268 0 0 0-7.257-7.276z" transform="translate(0 -21.322) translate(0 21.322) translate(-142.777 -21.322)"/>
                <path fill="#262331" d="M15.272 149.495l.029-.039c.009-.013.016-.026.024-.04l.022-.037.02-.041.018-.039.015-.041.015-.043.011-.041.011-.045.007-.048c.002-.016 0-.026.006-.04a.915.915 0 0 0 0-.179c0-.013 0-.027-.006-.04s0-.032-.007-.048-.007-.03-.011-.045-.006-.028-.011-.041l-.015-.043-.015-.041-.018-.039-.02-.041-.022-.037c-.008-.013-.015-.027-.024-.04l-.029-.039-.024-.033c-.008-.011-.038-.045-.059-.066l-2.727-2.727a.909.909 0 0 0-1.286 1.286l1.175 1.175H7.273a5.45 5.45 0 0 1-5.455-5.455 4.933 4.933 0 0 1 1.454-3.5.909.909 0 0 0-1.286-1.285A6.75 6.75 0 0 0 0 142.587a7.268 7.268 0 0 0 7.262 7.273h5.088l-1.175 1.175a.909.909 0 0 0 1.286 1.286l2.727-2.727c.021-.021.041-.043.06-.066s.016-.022.024-.033z" transform="translate(0 -21.322) translate(0 21.322) translate(0 -132.587)"/>
            </g>
        </g>
    </g>
</svg>
