<svg xmlns="http://www.w3.org/2000/svg" width="13" height="20" viewBox="0 0 13 20">
    <g id="_001-smartphone" transform="translate(-91)">
        <path id="Path_29890" d="M102.078 0h-9.156A1.913 1.913 0 0 0 91 1.906v16.188A1.916 1.916 0 0 0 92.922 20h9.156A1.916 1.916 0 0 0 104 18.094V1.906A1.913 1.913 0 0 0 102.078 0zm-9.9 1.906a.737.737 0 0 1 .74-.734h9.156a.737.737 0 0 1 .74.734v.438H92.182zm9.9 16.922h-9.156a.738.738 0 0 1-.74-.734V3.516h10.636v14.578a.738.738 0 0 1-.74.734z" class="cls-1"/>
        <path id="Path_29891" d="M151.59 133.516h2.364a.588.588 0 0 0 .591-.586v-2.344a.588.588 0 0 0-.591-.586h-2.364a.588.588 0 0 0-.591.586v2.344a.588.588 0 0 0 .591.586zm.591-2.344h1.182v1.172h-1.182z" class="cls-1" transform="translate(-57.635 -124.922)"/>
        <path id="Path_29892" d="M154.544 252.93v-2.344a.588.588 0 0 0-.591-.586h-2.363a.588.588 0 0 0-.591.586v2.344a.588.588 0 0 0 .591.586h2.364a.588.588 0 0 0 .59-.586zm-1.182-.586h-1.182v-1.172h1.182z" class="cls-1" transform="translate(-57.635 -240.234)"/>
        <path id="Path_29893" d="M273.954 250h-2.364a.588.588 0 0 0-.591.586v2.344a.588.588 0 0 0 .591.586h2.364a.588.588 0 0 0 .591-.586v-2.344a.588.588 0 0 0-.591-.586zm-.591 2.344h-1.182v-1.172h1.182z" class="cls-1" transform="translate(-172.908 -240.234)"/>
        <path id="Path_29894" d="M273.954 130h-2.364a.588.588 0 0 0-.591.586v2.344a.588.588 0 0 0 .591.586h2.364a.588.588 0 0 0 .591-.586v-2.344a.588.588 0 0 0-.591-.586zm-.591 2.344h-1.182v-1.172h1.182z" class="cls-1" transform="translate(-172.908 -124.922)"/>
        <path id="Path_29895" d="M221.684 422h-1.7a.586.586 0 1 0 0 1.172h1.7a.586.586 0 1 0 0-1.172z" class="cls-1" transform="translate(-123.333 -405.516)"/>
    </g>
</svg>
