<svg xmlns="http://www.w3.org/2000/svg" width="20" height="20" viewBox="0 0 20 20">
    <g>
        <g>
            <g>
                <path d="M18.3 11.976a.781.781 0 0 0-1.449.586l.92 2.276-2.733-1.2a.781.781 0 0 0-.622 0 7.533 7.533 0 0 1-2.974.6A6.769 6.769 0 0 1 4.453 7.9c0-3.492 3.137-6.333 6.992-6.333S18.438 4.4 18.438 7.9a6.371 6.371 0 0 1-.07.9.781.781 0 1 0 1.545.231A7.884 7.884 0 0 0 20 7.9a7.551 7.551 0 0 0-2.53-5.611A8.879 8.879 0 0 0 11.446 0a8.879 8.879 0 0 0-6.024 2.289 7.593 7.593 0 0 0-2.5 4.935A6.316 6.316 0 0 0 0 12.481 6.061 6.061 0 0 0 1.2 16.1L.057 18.926A.781.781 0 0 0 1.1 19.934l3.29-1.45a7.435 7.435 0 0 0 2.606.464h.058a7.394 7.394 0 0 0 3.676-1 6.725 6.725 0 0 0 2.363-2.3 8.99 8.99 0 0 0 1.623-.451l4.184 1.846a.781.781 0 0 0 1.039-1.008zM6.993 17.383h-.032a5.859 5.859 0 0 1-2.283-.467.781.781 0 0 0-.622 0l-1.83.806.59-1.46a.781.781 0 0 0-.13-.8 4.56 4.56 0 0 1-1.125-2.987 4.648 4.648 0 0 1 1.446-3.322 7.886 7.886 0 0 0 2.311 4.223A8.733 8.733 0 0 0 11 15.781a5.742 5.742 0 0 1-4.007 1.602z"/>
                <circle cx=".781" cy=".781" r=".781" transform="translate(10.625 7.148)"/>
                <circle cx=".781" cy=".781" r=".781" transform="translate(13.75 7.148)"/>
                <circle cx=".781" cy=".781" r=".781" transform="translate(7.5 7.148)"/>
            </g>
        </g>
    </g>
</svg>
