<svg xmlns="http://www.w3.org/2000/svg" width="20" height="20" viewBox="0 0 20 20">
    <g>
        <path fill="#6f6d79" d="M19.414 28.482h-5.351v-4.376a3.2 3.2 0 0 0 1.172-2.5 3.035 3.035 0 0 0-2.93-3.125 3.035 3.035 0 0 0-2.93 3.125 3.316 3.316 0 0 0 .09.769 1.654 1.654 0 0 0-.676-.144H7.173L6 20.978a2.509 2.509 0 0 0-.138-5 2.428 2.428 0 0 0-2.344 2.5 2.611 2.611 0 0 0 .327 1.271h-.023a1.779 1.779 0 0 0-1.293 1.018L.185 25.769A1.986 1.986 0 0 0 .3 27.647l1.867 2.987-.9 2.879a1.9 1.9 0 0 0 1.111 2.372A1.734 1.734 0 0 0 4.6 34.7l1.172-3.75a1.968 1.968 0 0 0-.205-1.633l-1.781-2.844.8-1.7.619.661a1.693 1.693 0 0 0 1.243.549h2.341a1.821 1.821 0 0 0 1.758-1.875v3.463a2.218 2.218 0 0 0-1.172-.336 2.428 2.428 0 0 0-2.344 2.5A2.611 2.611 0 0 0 7.358 31a1.844 1.844 0 0 0-1.5 1.854 1.821 1.821 0 0 0 1.758 1.875h11.8a.606.606 0 0 0 .584-.622v-5a.606.606 0 0 0-.586-.625zM5.859 17.233a1.253 1.253 0 0 1 0 2.5 1.253 1.253 0 0 1 0-2.5zm2.93 7.5H6.445a.572.572 0 0 1-.414-.183l-1.769-1.887-1.828 3.9 2.155 3.448a.656.656 0 0 1 .068.544L3.486 34.3a.578.578 0 0 1-.741.4.636.636 0 0 1-.371-.791l1.081-3.459-2.185-3.5a.662.662 0 0 1-.036-.626l2.344-5a.567.567 0 0 1 .939-.163l2.172 2.317h2.1a.626.626 0 0 1 0 1.25zm3.516-5a1.879 1.879 0 0 1 0 3.75 1.879 1.879 0 0 1 0-3.75zm-2.93 8.75A1.253 1.253 0 1 1 8.2 29.732a1.214 1.214 0 0 1 1.175-1.25zm9.453 5H7.617a.626.626 0 0 1 0-1.25h11.211zm0-2.5h-7.11V24.67a2.762 2.762 0 0 0 1.172 0v4.438a.606.606 0 0 0 .586.625h5.352z" transform="translate(0 -15.983)"/>
    </g>
</svg>
