<svg xmlns="http://www.w3.org/2000/svg" id="_002-diploma" width="32" height="32" viewBox="0 0 32 32">
    <defs>
        <style>
            .cls-1{fill:#beb6ce}
        </style>
    </defs>
    <g id="Group_1186" transform="translate(5.625 5.625)">
        <g id="Group_1185">
            <path id="Path_28410" d="M94.688 90h-3.75a.938.938 0 0 0 0 1.875h3.75a.938.938 0 0 0 0-1.875z" class="cls-1" transform="translate(-90 -90)"/>
        </g>
    </g>
    <g id="Group_1188" transform="translate(5.625 11.25)">
        <g id="Group_1187">
            <path id="Path_28411" d="M94.688 180h-3.75a.938.938 0 0 0 0 1.875h3.75a.938.938 0 0 0 0-1.875z" class="cls-1" transform="translate(-90 -180)"/>
        </g>
    </g>
    <g id="Group_1190" transform="translate(5.625 17)">
        <g id="Group_1189">
            <path id="Path_28412" d="M96.688 272h-5.75a.938.938 0 0 0 0 1.875h5.75a.938.938 0 0 0 0-1.875z" class="cls-1" transform="translate(-90 -272)"/>
        </g>
    </g>
    <g id="Group_1192" transform="translate(5.625 22.625)">
        <g id="Group_1191">
            <path id="Path_28413" d="M107.938 362h-17a.938.938 0 0 0 0 1.875h17a.938.938 0 0 0 0-1.875z" class="cls-1" transform="translate(-90 -362)"/>
        </g>
    </g>
    <g id="Group_1194">
        <g id="Group_1193">
            <path id="Path_28414" d="M27.313 0H4.688a2.816 2.816 0 0 0-2.813 2.813v23.562H.938a.938.938 0 0 0-.938.938v.938A3.754 3.754 0 0 0 3.75 32H24.5a3.754 3.754 0 0 0 3.75-3.75V7.5h2.813A.938.938 0 0 0 32 6.563V4.688A4.693 4.693 0 0 0 27.313 0zM3.75 30.125a1.877 1.877 0 0 1-1.875-1.875H20.75a3.728 3.728 0 0 0 .5 1.875zM26.375 6.563V28.25a1.875 1.875 0 0 1-3.75 0v-.937a.938.938 0 0 0-.937-.937H3.75V2.813a.939.939 0 0 1 .938-.937h21.687zm3.75-.937H28.25v-3.59a2.817 2.817 0 0 1 1.875 2.652z" class="cls-1"/>
        </g>
    </g>
    <g id="Group_1196" transform="translate(13.25 3.75)">
        <g id="Group_1195">
            <path id="Path_28415" fill="#ff7d38" d="M217.625 60a5.622 5.622 0 0 0-3.75 9.814v6.249a.937.937 0 0 0 1.458.78l2.292-1.528 2.292 1.528a.937.937 0 0 0 1.458-.78v-6.249a5.622 5.622 0 0 0-3.75-9.814zm1.875 14.311l-1.355-.9a.938.938 0 0 0-1.04 0l-1.355.9v-3.383a5.624 5.624 0 0 0 3.75 0zm-1.875-4.936a3.75 3.75 0 1 1 3.75-3.75 3.754 3.754 0 0 1-3.75 3.75z" transform="translate(-212 -60)"/>
        </g>
    </g>
</svg>
