<svg xmlns="http://www.w3.org/2000/svg" width="24" height="22" viewBox="0 0 24 22">
    <g>
        <path fill="#beb6ce" d="M26.306 37.645a1.327 1.327 0 0 0-1.374.122L3.557 57.179a1.284 1.284 0 0 0-.457 1.445 1.311 1.311 0 0 0 1.245.885H25.72a1.3 1.3 0 0 0 1.312-1.294V38.8a1.293 1.293 0 0 0-.726-1.155zM24.76 57.179H6.9l17.86-16.32z" transform="translate(-38 -11) translate(34.968 -26.509)"/>
        <path fill="#ff7d38" d="M47.649 31.012l8.9-7.865-.018 7.924z" transform="translate(-38 -11) translate(-1.32 -1.869)"/>
    </g>
</svg>
