<svg xmlns="http://www.w3.org/2000/svg" width="24" height="24" viewBox="0 0 24 24">
    <g>
        <g>
            <path fill="#beb6ce" d="M12 0a12 12 0 1 0 12 12A12.014 12.014 0 0 0 12 0zm0 22.248A10.248 10.248 0 1 1 22.248 12 10.26 10.26 0 0 1 12 22.248z"/>
        </g>
    </g>
    <g>
        <g>
            <path fill="#ff4715" d="M230.4 131.328h-3.8v-5.255a.876.876 0 1 0-1.752 0v6.127a.876.876 0 0 0 .876.876h4.676a.876.876 0 1 0 0-1.752z" transform="translate(10.54 5.869) translate(-224.857 -125.197)"/>
        </g>
    </g>
</svg>
