<svg xmlns="http://www.w3.org/2000/svg" width="32" height="32" viewBox="0 0 32 32">
    <defs>
        <style>
            .cls-2{fill:#beb6ce}
        </style>
    </defs>
    <g id="_001-trophy">
        <path id="Path_28416" fill="#ff7d38" d="M187.521 63.841l-2.2-.32-.986-2a.938.938 0 0 0-1.681 0l-.986 2-2.2.32a.938.938 0 0 0-.52 1.6l1.6 1.555-.377 2.2a.938.938 0 0 0 1.36.988l1.972-1.037 1.972 1.037a.938.938 0 0 0 1.36-.988l-.377-2.2 1.6-1.555a.937.937 0 0 0-.52-1.6zM184.784 66a.937.937 0 0 0-.27.83l.139.809-.727-.382a.937.937 0 0 0-.872 0l-.727.382.139-.809a.938.938 0 0 0-.27-.83l-.588-.573.813-.118a.937.937 0 0 0 .706-.513l.363-.736.363.736a.938.938 0 0 0 .706.513l.813.118z" transform="translate(-167.49 -57.187)"/>
        <path id="Path_28417" d="M215.688 422h-3.75a.938.938 0 0 0 0 1.875h3.75a.938.938 0 0 0 0-1.875z" class="cls-2" transform="translate(-197.813 -395.625)"/>
        <path id="Path_28418" d="M29.188 0a2.816 2.816 0 0 0-2.812 2.813 1.053 1.053 0 0 1-1 1h-.937V.938A.938.938 0 0 0 23.5 0h-15a.938.938 0 0 0-.937.938v2.875h-.989a1.053 1.053 0 0 1-1-1A2.816 2.816 0 0 0 2.762 0 2.758 2.758 0 0 0 0 2.813V4.75a10.323 10.323 0 0 0 8.936 10.219 8.447 8.447 0 0 0 4.252 3.331v4.322h-2.813a.938.938 0 0 0-.938.938v2.813H8.5a.938.938 0 0 0-.937.938v3.75A.938.938 0 0 0 8.5 32h15a.938.938 0 0 0 .938-.937v-3.75a.938.938 0 0 0-.937-.937h-.937v-2.813a.938.938 0 0 0-.937-.937h-2.814V18.3a8.447 8.447 0 0 0 4.257-3.341A10.366 10.366 0 0 0 32 4.75V2.813A2.816 2.816 0 0 0 29.188 0zM1.875 4.75V2.813a.893.893 0 0 1 .887-.937.939.939 0 0 1 .938.938 2.913 2.913 0 0 0 2.874 2.874h.988v4.688a8.355 8.355 0 0 0 .375 2.474 8.4 8.4 0 0 1-6.062-8.1zm19.75 23.5h.938v1.875H9.438V28.25h.938a.938.938 0 0 0 .938-.937V24.5h9.375v2.813a.938.938 0 0 0 .936.937zM17.64 16.7a.937.937 0 0 0-.7.908v5.015h-1.877V17.61a.938.938 0 0 0-.7-.908 6.549 6.549 0 0 1-4.923-6.327v-8.5h13.123v8.5A6.549 6.549 0 0 1 17.64 16.7zM30.125 4.75a8.53 8.53 0 0 1-6.056 8.077 8.356 8.356 0 0 0 .368-2.452V5.688h.938a2.913 2.913 0 0 0 2.875-2.875.937.937 0 1 1 1.875 0z" class="cls-2"/>
    </g>
</svg>
