<svg xmlns="http://www.w3.org/2000/svg" width="28" height="28" viewBox="0 0 28 28">
    <defs>
        <style>
            .cls-2{fill:#ffc477}.cls-3{fill:#ffa733}.cls-4{fill:#57a4ff}.cls-5{fill:#2488ff}
        </style>
    </defs>
    <g id="Ecommerce-transfer_money-buy-smartphone-hands" transform="translate(-2 -2)">
        <rect id="Rectangle_2631" width="13.067" height="21.467" fill="#46f8ff" rx="2" transform="translate(5.267 2.467)"/>
        <path id="Path_29875" d="M33.8 18.333V10.4a1.4 1.4 0 1 1 2.8 0v9.333a1.4 1.4 0 1 1 2.8 0v.467a1.4 1.4 0 0 1 .411-.989 1.324 1.324 0 0 1 .523-.327 1.294 1.294 0 0 1 .466-.084 1.4 1.4 0 0 1 1.4 1.4v.467a1.4 1.4 0 0 1 2.8 0v1.848a2.821 2.821 0 0 1-.163.943l-2.17 6.076h-9.334l-.667-1.867-1.5-4.209a2.821 2.821 0 0 1-.166-.943v-4.186a1.4 1.4 0 0 1 1.4-1.4 1.416 1.416 0 0 1 .994.411 1.4 1.4 0 0 1 .411.989z" class="cls-2" transform="translate(-15.467 -3.733)"/>
        <path id="Path_29876" d="M56.733 32.4v1.848a2.821 2.821 0 0 1-.163.943l-2.17 6.076H53l2.17-6.076a2.821 2.821 0 0 0 .163-.943V32.4a1.4 1.4 0 0 0-.411-.989 1.54 1.54 0 0 0-.289-.224 1.4 1.4 0 0 1 2.1 1.213z" class="cls-3" transform="translate(-27.2 -15.467)"/>
        <path id="Path_29877" d="M51 53h2.333v3.733H51z" class="cls-4" transform="translate(-26.133 -27.2)"/>
        <path id="Path_29878" d="M46 53h2.333v3.733H46z" class="cls-5" transform="translate(-23.467 -27.2)"/>
        <path id="Path_29879" d="M41 53h2.333v3.733H41z" class="cls-4" transform="translate(-20.8 -27.2)"/>
        <path id="Path_29880" d="M36 53h2.333v3.733H36z" class="cls-5" transform="translate(-18.133 -27.2)"/>
        <path id="Path_29881" d="M16.16 36.733l-1.96 2.8H3.933L3 29.733v-1.866A1.867 1.867 0 0 1 4.867 26h3.266a1.867 1.867 0 1 1 0 3.733H5.8V35.8a.936.936 0 0 0 .933.933z" class="cls-2" transform="translate(-.533 -12.8)"/>
        <circle id="Ellipse_1281" cx="4.2" cy="4.2" r="4.2" fill="#ffcd00" transform="translate(7.6 4.333)"/>
        <path id="Path_29882" fill="#ddb200" d="M26.133 11.2a4.2 4.2 0 0 1-4.2 4.2 4.366 4.366 0 0 1-.933-.1 4.2 4.2 0 0 0 0-8.2 4.366 4.366 0 0 1 .933-.1 4.2 4.2 0 0 1 4.2 4.2z" transform="translate(-10.133 -2.667)"/>
        <path id="Path_29883" d="M5 55h10.267v2.8H5z" class="cls-5" transform="translate(-1.6 -28.267)"/>
        <path id="Path_29884" d="M40.6 10.4v9.333h-1.4V10.4a1.4 1.4 0 0 0-.7-1.213 1.4 1.4 0 0 1 2.1 1.213z" class="cls-3" transform="translate(-19.467 -3.732)"/>
        <path id="Path_29885" d="M51.337 10.026l.66.66 1.866-1.866a.467.467 0 0 0 0-.66L52 6.293l-.66.66 1.07 1.07H47v.933h5.407z" transform="translate(-24 -2.29)"/>
        <path id="Path_29886" d="M48 18.686l.66-.66-1.07-1.07H53v-.933h-5.407l1.07-1.07-.66-.66-1.866 1.867a.467.467 0 0 0 0 .66z" transform="translate(-23.467 -6.556)"/>
        <path id="Path_29887" d="M29.454 15.613a1.857 1.857 0 0 0-2.525-.1 1.851 1.851 0 0 0-1.6-.915 1.661 1.661 0 0 0-.611.107 1.792 1.792 0 0 0-.588.345 1.867 1.867 0 0 0-1.6-.919 1.845 1.845 0 0 0-.933.257V6.667A1.867 1.867 0 0 0 19.733 4.8a1.845 1.845 0 0 0-.933.257V3.4A1.4 1.4 0 0 0 17.4 2H6.2a1.4 1.4 0 0 0-1.4 1.4v9.333h-.467A2.333 2.333 0 0 0 2 15.067v1.909l.933 9.781v2.777A.467.467 0 0 0 3.4 30h10.267a.467.467 0 0 0 .467-.467v-2.65l1.735-2.483h1l.527 1.479v3.654a.467.467 0 0 0 .467.467H27.2a.467.467 0 0 0 .467-.467v-3.654l2.142-6a3.267 3.267 0 0 0 .191-1.1v-1.846a1.867 1.867 0 0 0-.546-1.32zM13.2 29.067H3.867V27.2H13.2zm.224-2.8h-9.6l-.891-9.333v-1.867a1.4 1.4 0 0 1 1.4-1.4H7.6a1.4 1.4 0 1 1 0 2.8H5.267a.467.467 0 0 0-.467.467V23a1.4 1.4 0 0 0 1.4 1.4h8.531zm-7.224-2.8A.467.467 0 0 1 5.733 23v-1.4h8.4v-.933h-8.4V17.4H7.6a2.333 2.333 0 1 0 0-4.667H5.733V3.4a.467.467 0 0 1 .467-.467h11.2a.467.467 0 0 1 .467.467v9.595a1.833 1.833 0 0 0-.938-.261 1.867 1.867 0 0 0-1.862 1.866v4.186a3.313 3.313 0 0 0 .191 1.1l1.279 3.584zm13.533 5.6h-1.4v-2.8h1.4zm2.333 0h-1.4v-2.8h1.4zm2.333 0H23v-2.8h1.4zm2.333 0h-1.4v-2.8h1.4zm2.333-10.285a2.367 2.367 0 0 1-.135.784l-2.058 5.768h-8.68l-2.057-5.764a2.415 2.415 0 0 1-.135-.789V14.6a.933.933 0 1 1 1.867 0v3.733h.933V6.667a.933.933 0 0 1 1.867 0v11.666h.933V16a.933.933 0 0 1 1.867 0v2.333h.933v-1.866a.925.925 0 0 1 .275-.658.84.84 0 0 1 .359-.224.872.872 0 0 1 .3-.051.936.936 0 0 1 .933.933V18.8h.933v-1.867a.933.933 0 0 1 1.867 0z"/>
        <path id="Path_29888" d="M17.667 6a4.667 4.667 0 1 0 4.667 4.667A4.667 4.667 0 0 0 17.667 6zm0 8.4a3.733 3.733 0 1 1 3.733-3.733 3.733 3.733 0 0 1-3.733 3.733z" transform="translate(-5.867 -2.133)"/>
        <path id="Path_29889" d="M22.8 13.733a1.4 1.4 0 0 1-.933 1.316v.551h-.933v-.551A1.4 1.4 0 0 1 20 13.733h.933a.467.467 0 1 0 .467-.467 1.4 1.4 0 0 1-.467-2.716V10h.933v.551a1.4 1.4 0 0 1 .933 1.316h-.933a.467.467 0 1 0-.467.467 1.4 1.4 0 0 1 1.401 1.399z" transform="translate(-9.6 -4.267)"/>
    </g>
</svg>
