<svg xmlns="http://www.w3.org/2000/svg" width="23.617" height="32" viewBox="0 0 23.617 32">
    <g>
        <g transform="translate(-8.102) translate(8.102)">
            <path fill="#beb6ce" d="M29.827.007A13.886 13.886 0 0 0 18.7 6.722 53.459 53.459 0 0 0 13.2 17.2a83.85 83.85 0 0 0-4.98 12.021c-.813 2.417 2.836 3.994 3.654 1.566a95.438 95.438 0 0 1 3.553-9.121c1.347 3.015 2.716 6.02 4.186 8.977 1.139 2.3 4.567.282 3.432-2.006-1.513-3.044-2.919-6.137-4.3-9.241.018-.06.04-.118.058-.178a1.638 1.638 0 0 0 .766.033l6.358-1.192a1.61 1.61 0 0 0 1.11-1.955 9.935 9.935 0 0 0-3.47-5.6 5.57 5.57 0 0 0-2.012-2.353c1.875-3.034 4.945-4.682 8.933-5.034 2.037-.179 1.358-3.287-.661-3.11zm-7.72 13.517a7.4 7.4 0 0 1 1.307 1.783l-3.076.577a17.4 17.4 0 0 1 1.768-2.36z" transform="translate(-8.102)"/>
            <circle cx="2.729" cy="2.729" r="2.729" fill="#ff7d38" transform="translate(15.662 5.359)"/>
        </g>
    </g>
</svg>
