<svg xmlns="http://www.w3.org/2000/svg" id="_001-calendar" width="24" height="24" viewBox="0 0 24 24">
    <defs>
        <style>
            .cls-1{fill:#beb6ce}.cls-2{fill:#ff7d38}
        </style>
    </defs>
    <path id="Path_28443" d="M21.75 1.5h-3a1.5 1.5 0 0 0-1.5-1.5h-1.5a1.5 1.5 0 0 0-1.5 1.5h-4.5A1.5 1.5 0 0 0 8.25 0h-1.5a1.5 1.5 0 0 0-1.5 1.5h-3A2.25 2.25 0 0 0 0 3.75v18A2.25 2.25 0 0 0 2.25 24H13.5a.75.75 0 0 0 0-1.5H2.25a.75.75 0 0 1-.75-.75V7.5h21v6a.75.75 0 0 0 1.5 0V3.75a2.25 2.25 0 0 0-2.25-2.25zM1.5 6V3.75A.75.75 0 0 1 2.25 3h3v.75a.75.75 0 0 0 1.5 0V1.5h1.5v2.25a.75.75 0 0 0 1.5 0V3h4.5v.75a.75.75 0 0 0 1.5 0V1.5h1.5v2.25a.75.75 0 0 0 1.5 0V3h3a.75.75 0 0 1 .75.75V6zm0 0" class="cls-1"/>
    <path id="Path_28444" d="M84.5 208.75a.75.75 0 0 0-.75-.75h-3a.75.75 0 0 0-.75.75v3a.75.75 0 0 0 .75.75h3a.75.75 0 0 0 .75-.75zM83 211h-1.5v-1.5H83zm0 0" class="cls-1" transform="translate(-76.25 -198.25)"/>
    <path id="Path_28445" d="M208.75 212.5h3a.75.75 0 0 0 .75-.75v-3a.75.75 0 0 0-.75-.75h-3a.75.75 0 0 0-.75.75v3a.75.75 0 0 0 .75.75zm.75-3h1.5v1.5h-1.5zm0 0" class="cls-1" transform="translate(-198.25 -198.25)"/>
    <path id="Path_28446" d="M339.75 211a.75.75 0 0 0 .75-.75v-1.5a.75.75 0 0 0-.75-.75h-3a.75.75 0 0 0-.75.75V211a.75.75 0 0 0 1.5 0v-1.5h1.5v.75a.75.75 0 0 0 .75.75zm0 0" class="cls-1" transform="translate(-320.25 -198.25)"/>
    <path id="Path_28447" d="M83.75 336h-3a.75.75 0 0 0-.75.75v3a.75.75 0 0 0 .75.75h3a.75.75 0 0 0 .75-.75v-3a.75.75 0 0 0-.75-.75zm-.75 3h-1.5v-1.5H83zm0 0" class="cls-1" transform="translate(-76.25 -320.25)"/>
    <path id="Path_28448" d="M211 337.5a.75.75 0 0 0 0-1.5h-2.25a.75.75 0 0 0-.75.75v3a.75.75 0 0 0 .75.75h1.5a.75.75 0 0 0 0-1.5h-.75v-1.5zm0 0" class="cls-1" transform="translate(-198.25 -320.25)"/>
    <path id="Path_28449" d="M293.25 288a5.25 5.25 0 1 0 5.25 5.25 5.25 5.25 0 0 0-5.25-5.25zm0 9a3.75 3.75 0 1 1 3.75-3.75 3.75 3.75 0 0 1-3.75 3.75zm0 0" class="cls-2" transform="translate(-274.5 -274.5)"/>
    <path id="Path_28450" d="M385.5 338.689v-1.939a.75.75 0 0 0-1.5 0V339a.75.75 0 0 0 .22.53l1.5 1.5a.75.75 0 0 0 1.061-1.061zm0 0" class="cls-2" transform="translate(-366 -320.25)"/>
</svg>
