<svg xmlns="http://www.w3.org/2000/svg" width="20" height="20" viewBox="0 0 20 20">
    <defs>
        <style>
            .cls-1{fill:#ff7d38}
        </style>
    </defs>
    <g id="sign_out" transform="translate(0 -.008)">
        <path id="Path_12031" d="M285.874 209.258h-7.917a.625.625 0 0 1 0-1.25h7.917a.625.625 0 0 1 0 1.25zm0 0" class="cls-1" transform="translate(-266.499 -199.875)"/>
        <path id="Path_12032" d="M400.629 135.471a.625.625 0 0 1-.442-1.068l2.683-2.683-2.683-2.683a.625.625 0 0 1 .884-.884l3.125 3.125a.625.625 0 0 1 0 .884l-3.125 3.125a.621.621 0 0 1-.442.184zm0 0" class="cls-1" transform="translate(-384.379 -122.963)"/>
        <path id="Path_12033" d="M6.667 20.008a1.717 1.717 0 0 1-.517-.078l-5.015-1.671A1.682 1.682 0 0 1 0 16.675v-15A1.668 1.668 0 0 1 1.667.008a1.719 1.719 0 0 1 .517.078L7.2 1.756a1.682 1.682 0 0 1 1.133 1.585v15a1.668 1.668 0 0 1-1.666 1.667zm-5-18.75a.418.418 0 0 0-.417.417v15a.433.433 0 0 0 .289.4l4.992 1.665a.453.453 0 0 0 .136.018.418.418 0 0 0 .417-.417v-15a.433.433 0 0 0-.289-.4L1.8 1.276a.452.452 0 0 0-.133-.018zm0 0" class="cls-1"/>
        <path id="Path_12034" d="M38.335 6.675a.625.625 0 0 1-.625-.625V2.3a1.043 1.043 0 0 0-1.042-1.042h-9.375a.625.625 0 0 1 0-1.25h9.375A2.293 2.293 0 0 1 38.96 2.3v3.75a.625.625 0 0 1-.625.625zm0 0" class="cls-1" transform="translate(-25.626)"/>
        <path id="Path_12035" d="M185.29 284.007h-3.333a.625.625 0 0 1 0-1.25h3.333a1.043 1.043 0 0 0 1.042-1.042v-3.75a.625.625 0 0 1 1.25 0v3.75a2.293 2.293 0 0 1-2.292 2.292zm0 0" class="cls-1" transform="translate(-174.249 -266.499)"/>
    </g>
</svg>
