<svg xmlns="http://www.w3.org/2000/svg" width="16.896" height="20" viewBox="0 0 16.896 20">
    <g>
        <path d="M99.164 178.6a1.785 1.785 0 0 0 1.783-1.783c0-.847-1.056-1.915-1.379-2.222a.586.586 0 0 0-.807 0 8.394 8.394 0 0 0-.649.7 2.6 2.6 0 0 0-.73 1.517 1.785 1.785 0 0 0 1.782 1.788zm0-2.731a2.6 2.6 0 0 1 .611.948.611.611 0 0 1-1.222 0 2.6 2.6 0 0 1 .611-.943z" transform="translate(-39.737) translate(-55.392 -167.625)"/>
        <path d="M222.535 211.606a.586.586 0 0 0 0-1.172h-3.3a.586.586 0 0 0 0 1.172z" transform="translate(-39.737) translate(-171.926 -202.214)"/>
        <path d="M102.384 431.071h-2.516a.586.586 0 0 0 0 1.172h2.516a.586.586 0 0 0 0-1.172z" transform="translate(-39.737) translate(-57.219 -414.232)"/>
        <path d="M102.384 371.071h-2.516a.586.586 0 0 0 0 1.172h2.516a.586.586 0 1 0 0-1.172z" transform="translate(-39.737) translate(-57.219 -356.576)"/>
        <path d="M102.384 311.071h-2.516a.586.586 0 0 0 0 1.172h2.516a.586.586 0 1 0 0-1.172z" transform="translate(-39.737) translate(-57.219 -298.92)"/>
        <path d="M53.528 10.611V4.037a.586.586 0 0 0-.586-.586H51.39v-.708a.586.586 0 0 0-.586-.586h-1.936a2.237 2.237 0 0 0-4.471 0h-1.936a.586.586 0 0 0-.586.586v.709h-1.552a.586.586 0 0 0-.586.586v15.376a.586.586 0 0 0 .586.586h11.451a4.858 4.858 0 0 0 1.754-9.389zm-8.467-7.282a.586.586 0 0 0 .558-.765 1.065 1.065 0 1 1 2.028 0 .586.586 0 0 0 .558.765h2.014v1.127h-7.172V3.329zm-4.152 15.5V4.623h.966v.418a.586.586 0 0 0 .586.586H50.8a.586.586 0 0 0 .586-.586v-.418h.966v5.695a4.856 4.856 0 0 0-3.743 8.51zm10.865 0a3.687 3.687 0 1 1 3.687-3.687 3.691 3.691 0 0 1-3.687 3.686z" transform="translate(-39.737)"/>
        <path d="M305.172 343.8a.586.586 0 0 0-.811.17l-1.008 1.542-.45-.631a.586.586 0 1 0-.954.681l.948 1.329a.586.586 0 0 0 .967-.02l1.477-2.259a.586.586 0 0 0-.169-.812z" transform="translate(-39.737) translate(-251.864 -330.275)"/>
    </g>
</svg>
