<svg xmlns="http://www.w3.org/2000/svg" width="17.503" height="16" viewBox="0 0 17.503 16">
    <defs>
        <style>
            .cls-1{fill:#ff4715}
        </style>
    </defs>
    <g id="_001-warning" transform="translate(0 -21.135)">
        <g id="Group_1322" transform="translate(0 21.135)">
            <path id="Path_28697" d="M219.124 333.382a.9.9 0 1 0 0 1.8.9.9 0 0 0 0-1.8z" class="cls-1" transform="translate(-210.373 -322.277)"/>
            <path id="Path_28698" d="M17.076 35.313a3.072 3.072 0 0 0 .007-3.109l-5.634-9.758a3.1 3.1 0 0 0-5.39 0L.418 32.212a3.116 3.116 0 0 0 2.7 4.67h11.253a3.1 3.1 0 0 0 2.705-1.569zm-1.223-.705a1.7 1.7 0 0 1-1.486.86H3.113a1.677 1.677 0 0 1-1.468-.842 1.7 1.7 0 0 1 0-1.716l5.642-9.765a1.694 1.694 0 0 1 2.943 0l5.638 9.765a1.68 1.68 0 0 1-.015 1.698z" class="cls-1" transform="translate(0 -20.882)"/>
            <path id="Path_28699" d="M218.419 157.2a.978.978 0 0 0-.694.982c.022.284.04.572.061.856l.183 3.227a.659.659 0 0 0 .673.633.673.673 0 0 0 .673-.655c0-.223 0-.428.022-.655.04-.694.083-1.389.122-2.083.022-.45.061-.9.083-1.349a1.111 1.111 0 0 0-.083-.45.9.9 0 0 0-1.04-.506z" class="cls-1" transform="translate(-209.891 -152.411)"/>
        </g>
    </g>
</svg>
