<svg xmlns="http://www.w3.org/2000/svg" width="158" height="117.274" viewBox="0 0 158 117.274">
    <path fill="#fff" fill-rule="evenodd" d="M750 379c20.706 9.547 37.46 8.673 56.563 8.673 10.17 0 18.854 3.909 18.854 18.873v89.729s-18.854-3.315-18.854-23.379v-57.513a8.905 8.905 0 0 0-9.05-8.855h-12.067c-14.881-.001-31.558-10.15-35.446-27.528zm158 0c-20.706 9.547-37.46 8.673-56.563 8.673-10.17 0-18.854 3.909-18.854 18.873v89.729s18.854-3.315 18.854-23.379v-57.513a8.905 8.905 0 0 1 9.05-8.855h12.067c14.88-.001 31.558-10.15 35.446-27.528z" transform="translate(-750 -379)"/>
</svg>
